<svg xmlns="http://www.w3.org/2000/svg" width="141" height="141" viewBox="0 0 141 141">
  <g id="Grupo_880458" data-name="Grupo 880458" transform="translate(-730 -3294)">
    <g id="Grupo_880445" data-name="Grupo 880445" transform="translate(242 691)">
      <ellipse id="Elipse_5195" data-name="Elipse 5195" cx="70.5" cy="70.5" rx="70.5" ry="70.5" transform="translate(488 2603)" fill="#179587"/>
    </g>
    <g id="conocimiento" transform="translate(741.571 3302.443)">
      <path id="Trazado_622610" data-name="Trazado 622610" d="M103.735,64V89.774H26.392a12.887,12.887,0,0,1,0-25.774Z" transform="translate(-0.187 -6.333)" fill="#ee4e5d"/>
      <path id="Trazado_622611" data-name="Trazado 622611" d="M27.114,70.772a6.836,6.836,0,0,0,0,13.673h77.343V70.775Z" transform="translate(-0.909 -7.054)" fill="#faf5e4"/>
      <path id="Trazado_622612" data-name="Trazado 622612" d="M103.735,118.621H26.392a12.887,12.887,0,1,1,0-25.774h77.342Z" transform="translate(-0.187 -9.406)" fill="#f1b62b"/>
      <path id="Trazado_622613" data-name="Trazado 622613" d="M52.445,75.227H73.093v9.692H52.445Z" transform="translate(-4.336 -7.529)" fill="#179587"/>
      <path id="Trazado_622614" data-name="Trazado 622614" d="M71.115,86.075l-1.877,6.051h-12.4l-1.877-6.051Z" transform="translate(-4.604 -8.685)" fill="#fe8a71"/>
      <path id="Trazado_622615" data-name="Trazado 622615" d="M71.806,69.269V65.676a14.161,14.161,0,0,1,4.4-10.123,21.118,21.118,0,1,0-29.456,0,14.161,14.161,0,0,1,4.4,10.123v3.593Z" transform="translate(-3.049 -1.571)" fill="#f1b62b"/>
      <path id="Trazado_622616" data-name="Trazado 622616" d="M45.814,70.772V80.01l-3.768-3.768L38.279,80.01V70.772Z" transform="translate(-2.827 -7.054)" fill="#fe8a71"/>
      <path id="Trazado_622617" data-name="Trazado 622617" d="M104.457,113.292H27.114a6.837,6.837,0,0,1,0-13.674h77.342Z" transform="translate(-0.909 -10.127)" fill="#faf5e4"/>
      <path id="Trazado_622618" data-name="Trazado 622618" d="M45.814,99.618v9.238l-3.768-3.767-3.767,3.767V99.618Z" transform="translate(-2.827 -10.127)" fill="#fe8a71"/>
      <g id="Grupo_880447" data-name="Grupo 880447" transform="translate(11.747 4.557)">
        <path id="Trazado_622619" data-name="Trazado 622619" d="M77.606,38.172a1.564,1.564,0,0,0,1.51,1.162,1.588,1.588,0,0,0,.4-.052,1.564,1.564,0,0,0,1.112-1.911A16.128,16.128,0,0,0,76.3,29.955a1.564,1.564,0,1,0-2.185,2.234,13.012,13.012,0,0,1,3.491,5.984Z" transform="translate(-18.337 -7.211)" fill="#2b1e0c"/>
        <path id="Trazado_622620" data-name="Trazado 622620" d="M66.53,28.254a12.91,12.91,0,0,1,2.747.836,1.58,1.58,0,0,0,.618.127,1.564,1.564,0,0,0,.619-3A16.056,16.056,0,0,0,67.1,25.18a1.564,1.564,0,1,0-.572,3.074Z" transform="translate(-17.447 -6.751)" fill="#2b1e0c"/>
        <path id="Trazado_622621" data-name="Trazado 622621" d="M63.814,13.87a1.564,1.564,0,0,0,1.564-1.564V6.121a1.564,1.564,0,0,0-3.127,0v6.185a1.564,1.564,0,0,0,1.564,1.564Z" transform="translate(-17.127 -4.557)" fill="#2b1e0c"/>
        <path id="Trazado_622622" data-name="Trazado 622622" d="M93.526,44.319h6.186a1.564,1.564,0,1,0,0-3.127H93.526a1.564,1.564,0,0,0,0,3.127Z" transform="translate(-20.293 -8.46)" fill="#2b1e0c"/>
        <path id="Trazado_622623" data-name="Trazado 622623" d="M27.178,44.319h6.186a1.564,1.564,0,1,0,0-3.127H27.178a1.564,1.564,0,0,0,0,3.127Z" transform="translate(-13.224 -8.46)" fill="#2b1e0c"/>
        <path id="Trazado_622624" data-name="Trazado 622624" d="M41.176,22.331a1.564,1.564,0,0,0,2.211-2.207L39.01,15.75A1.563,1.563,0,1,0,36.8,17.961Z" transform="translate(-14.367 -5.701)" fill="#2b1e0c"/>
        <path id="Trazado_622625" data-name="Trazado 622625" d="M84.823,22.788a1.557,1.557,0,0,0,1.105-.458l4.378-4.378a1.563,1.563,0,1,0-2.215-2.207l-4.378,4.374a1.564,1.564,0,0,0,1.106,2.67Z" transform="translate(-19.365 -5.7)" fill="#2b1e0c"/>
        <path id="Trazado_622626" data-name="Trazado 622626" d="M103.548,57.488H73.321c.291-.345.6-.679.93-1a22.681,22.681,0,1,0-31.636,0q.494.482.929,1h-10.4a1.564,1.564,0,0,0,0,3.127H45.508a12.183,12.183,0,0,1,.861,2.923H26.206a8.4,8.4,0,0,0,0,16.8h23l.908,2.93h-23.9a11.324,11.324,0,1,1,0-22.647,1.563,1.563,0,1,0,0-3.127,14.439,14.439,0,0,0-6.5,27.34,14.439,14.439,0,0,0,6.5,27.34H78.468a1.564,1.564,0,1,0,0-3.127H26.206a11.323,11.323,0,0,1,0-22.646h75.778V89.32H26.206a8.4,8.4,0,1,0,0,16.8h75.778v2.923h-4.4a1.564,1.564,0,0,0,0,3.127h5.966a1.564,1.564,0,0,0,1.564-1.564V59.051a1.564,1.564,0,0,0-1.564-1.564ZM49.677,77.211V70.646H67.2v6.565Zm3.8-29.092H51.626a1.85,1.85,0,1,1,1.849-1.851Zm6.8,19.4H56.6V51.246h3.67Zm10.052,1.564V66.665h31.663V77.208H70.321Zm31.663-8.467v2.923H70.495a12.183,12.183,0,0,1,.861-2.923ZM38.879,40.237A19.554,19.554,0,1,1,72.07,54.246a16.469,16.469,0,0,0-3.079,4.11c-.019.037-.039.072-.055.112a15.21,15.21,0,0,0-1.707,6.344,1.571,1.571,0,0,0-.029.291c0,.033.008.063.01.095,0,.1-.015.2-.015.294v2.029H63.4V51.246h1.849a4.977,4.977,0,1,0-4.977-4.977v1.85H56.6V46.268a4.977,4.977,0,1,0-4.977,4.978h1.85V67.519H49.677V65.49c0-.1-.013-.2-.015-.294,0-.032.01-.062.01-.095a1.571,1.571,0,0,0-.029-.291,15.194,15.194,0,0,0-1.709-6.344c-.014-.036-.033-.069-.05-.1A16.481,16.481,0,0,0,44.8,54.248a19.388,19.388,0,0,1-5.922-14.011ZM63.4,48.119V46.268a1.85,1.85,0,1,1,1.849,1.851ZM37.016,66.665h4.407v3.9l-1.1-1.1a1.564,1.564,0,0,0-2.211,0l-1.1,1.1ZM20.934,71.936a5.279,5.279,0,0,1,5.271-5.271h7.684v7.674a1.564,1.564,0,0,0,2.67,1.106l2.665-2.662,2.662,2.662a1.561,1.561,0,0,0,1.105.457,1.591,1.591,0,0,0,.6-.118,1.565,1.565,0,0,0,.965-1.446V66.665h2V77.208H26.206a5.279,5.279,0,0,1-5.273-5.269ZM53.384,83.264l-.907-2.923H64.389l-.907,2.923Zm13.372,0,.908-2.923h34.321v2.923Zm-29.74,9.174h4.407v3.9l-1.1-1.1a1.563,1.563,0,0,0-2.211,0l-1.1,1.1ZM26.205,102.981a5.271,5.271,0,1,1,0-10.543h7.684v7.674a1.564,1.564,0,0,0,2.67,1.105l2.662-2.661,2.662,2.661a1.563,1.563,0,0,0,2.669-1.105V92.438h57.434v10.543Z" transform="translate(-11.747 -5.941)" fill="#12263f"/>
        <path id="Trazado_622627" data-name="Trazado 622627" d="M98.5,119.943H94.475a1.564,1.564,0,0,0,0,3.127H98.5a1.564,1.564,0,1,0,0-3.127Z" transform="translate(-20.394 -16.85)" fill="#2b1e0c"/>
      </g>
    </g>
  </g>
</svg>
