<svg xmlns="http://www.w3.org/2000/svg" width="169.912" height="169.912" viewBox="0 0 169.912 169.912">
  <g id="Grupo_881577" data-name="Grupo 881577" transform="translate(-1115.116 -13976.182)">
    <ellipse id="Elipse_5193" data-name="Elipse 5193" cx="84.956" cy="84.956" rx="84.956" ry="84.956" transform="translate(1115.116 13976.182)" fill="#179587"/>
    <g id="grupo" transform="translate(1134.164 13995.075)">
      <path id="Trazado_622439" data-name="Trazado 622439" d="M40.585,103.532H15.314a1.988,1.988,0,0,1-1.988-1.988V95.965A14.624,14.624,0,0,1,27.95,81.341h0A14.624,14.624,0,0,1,42.574,95.965v5.578A1.989,1.989,0,0,1,40.585,103.532Z" transform="translate(-9.919 -60.393)" fill="#e8e8e8"/>
      <path id="Trazado_622440" data-name="Trazado 622440" d="M139.366,270.015c-2.833-1.87-4.653-4.015-5.41-6.373a13.029,13.029,0,0,1-7.846-12.087,12.884,12.884,0,0,1,12.659-13.069h16.111a13.075,13.075,0,0,1,0,26.138H142.387a12.545,12.545,0,0,0,.129,3.339l.579,3.415a.545.545,0,0,1-.838.546Z" transform="translate(-93.867 -177.361)" fill="#ee4e5d"/>
      <path id="Trazado_622441" data-name="Trazado 622441" d="M189.524,251.556a12.884,12.884,0,0,0-12.659-13.069H160.754a12.246,12.246,0,0,0-5.108,1.115,20.771,20.771,0,0,0,20.817,19.27h10.886A13.291,13.291,0,0,0,189.524,251.556Z" transform="translate(-115.852 -177.362)" fill="#d23644"/>
      <path id="Trazado_622442" data-name="Trazado 622442" d="M215.982,217.3a15.322,15.322,0,0,0,.351-5.066H200.69a16.031,16.031,0,1,1-.243-32.059h20.221a16.175,16.175,0,0,1,16.253,15.837,15.97,15.97,0,0,1-9.95,15.025c-1.315,3.981-5.054,6.819-7.967,8.5l-3,1.733a.545.545,0,0,1-.8-.6Z" transform="translate(-137.267 -133.962)" fill="#f1b62b"/>
      <path id="Trazado_622443" data-name="Trazado 622443" d="M197.52,200.813a16.047,16.047,0,0,1,16.028-16.278H231.78a16.345,16.345,0,0,0-11.114-4.354H200.446a16.03,16.03,0,1,0,.243,32.059h1.976A15.842,15.842,0,0,1,197.52,200.813Z" transform="translate(-137.267 -133.962)" fill="#d89f17"/>
      <path id="Trazado_622444" data-name="Trazado 622444" d="M411.068,103.532H385.8a1.988,1.988,0,0,1-1.988-1.988V95.965a14.624,14.624,0,0,1,14.624-14.624h0a14.624,14.624,0,0,1,14.624,14.624v5.578A1.989,1.989,0,0,1,411.068,103.532Z" transform="translate(-285.68 -60.393)" fill="#f1b62b"/>
      <path id="Trazado_622445" data-name="Trazado 622445" d="M40.585,409.06H15.314a1.988,1.988,0,0,1-1.988-1.989v-5.578A14.624,14.624,0,0,1,27.95,386.869h0a14.624,14.624,0,0,1,14.624,14.624v5.578A1.989,1.989,0,0,1,40.585,409.06Z" transform="translate(-9.919 -287.807)" fill="#ee4e5d"/>
      <path id="Trazado_622446" data-name="Trazado 622446" d="M411.068,409.06H385.8a1.988,1.988,0,0,1-1.988-1.989v-5.578a14.624,14.624,0,0,1,14.624-14.624h0a14.624,14.624,0,0,1,14.624,14.624v5.578A1.989,1.989,0,0,1,411.068,409.06Z" transform="translate(-285.68 -287.807)" fill="#dee4f0"/>
      <path id="Trazado_622447" data-name="Trazado 622447" d="M24.563,101.544V95.965a14.627,14.627,0,0,1,9.005-13.5,14.577,14.577,0,0,0-5.619-1.12h0A14.624,14.624,0,0,0,13.325,95.965v5.578a1.988,1.988,0,0,0,1.989,1.988H26.551A1.988,1.988,0,0,1,24.563,101.544Z" transform="translate(-9.918 -60.393)" fill="#d2e1f1"/>
      <path id="Trazado_622448" data-name="Trazado 622448" d="M395.045,101.544V95.965a14.627,14.627,0,0,1,9.005-13.5,14.577,14.577,0,0,0-5.619-1.12h0a14.624,14.624,0,0,0-14.624,14.624v5.578a1.988,1.988,0,0,0,1.989,1.988h11.238A1.988,1.988,0,0,1,395.045,101.544Z" transform="translate(-285.678 -60.393)" fill="#ffb55c"/>
      <path id="Trazado_622449" data-name="Trazado 622449" d="M24.563,407.072v-5.578a14.627,14.627,0,0,1,9.005-13.5,14.582,14.582,0,0,0-5.619-1.12h0a14.624,14.624,0,0,0-14.624,14.624v5.578a1.989,1.989,0,0,0,1.989,1.989H26.551A1.989,1.989,0,0,1,24.563,407.072Z" transform="translate(-9.918 -287.807)" fill="#d23644"/>
      <path id="Trazado_622450" data-name="Trazado 622450" d="M395.045,407.072v-5.578a14.627,14.627,0,0,1,9.005-13.5,14.582,14.582,0,0,0-5.619-1.12h0a14.624,14.624,0,0,0-14.624,14.624v5.578a1.989,1.989,0,0,0,1.989,1.989h11.238A1.989,1.989,0,0,1,395.045,407.072Z" transform="translate(-285.678 -287.807)" fill="#afafaf"/>
      <g id="Grupo_880371" data-name="Grupo 880371" transform="translate(8.428 10.319)">
        <path id="Trazado_622451" data-name="Trazado 622451" d="M42.441,58.725a9.477,9.477,0,1,1,9.477-9.477A9.488,9.488,0,0,1,42.441,58.725Z" transform="translate(-32.964 -39.771)" fill="#fad393"/>
        <path id="Trazado_622452" data-name="Trazado 622452" d="M412.923,58.725a9.477,9.477,0,1,1,9.477-9.477A9.488,9.488,0,0,1,412.923,58.725Z" transform="translate(-308.724 -39.771)" fill="#fad393"/>
        <path id="Trazado_622453" data-name="Trazado 622453" d="M42.441,364.254a9.477,9.477,0,1,1,9.477-9.477A9.488,9.488,0,0,1,42.441,364.254Z" transform="translate(-32.964 -267.185)" fill="#fad393"/>
        <path id="Trazado_622454" data-name="Trazado 622454" d="M412.923,364.254a9.477,9.477,0,1,1,9.477-9.477A9.488,9.488,0,0,1,412.923,364.254Z" transform="translate(-308.724 -267.185)" fill="#fad393"/>
      </g>
      <g id="Grupo_880372" data-name="Grupo 880372" transform="translate(8.428 10.319)">
        <path id="Trazado_622455" data-name="Trazado 622455" d="M41.913,49.248a9.485,9.485,0,0,1,5-8.351,9.477,9.477,0,1,0,0,16.7A9.483,9.483,0,0,1,41.913,49.248Z" transform="translate(-32.963 -39.771)" fill="#edb769"/>
        <path id="Trazado_622456" data-name="Trazado 622456" d="M412.4,49.248a9.485,9.485,0,0,1,5-8.351,9.477,9.477,0,1,0,0,16.7A9.484,9.484,0,0,1,412.4,49.248Z" transform="translate(-308.724 -39.771)" fill="#edb769"/>
        <path id="Trazado_622457" data-name="Trazado 622457" d="M41.913,354.777a9.485,9.485,0,0,1,5-8.351,9.477,9.477,0,1,0,0,16.7A9.484,9.484,0,0,1,41.913,354.777Z" transform="translate(-32.963 -267.185)" fill="#edb769"/>
        <path id="Trazado_622458" data-name="Trazado 622458" d="M412.4,354.777a9.485,9.485,0,0,1,5-8.351,9.477,9.477,0,1,0,0,16.7A9.484,9.484,0,0,1,412.4,354.777Z" transform="translate(-308.724 -267.185)" fill="#edb769"/>
      </g>
      <path id="Trazado_622459" data-name="Trazado 622459" d="M125.663,28.115a2.122,2.122,0,0,0,1.067-.288,61.172,61.172,0,0,1,6.347-3.2,2.13,2.13,0,0,0-1.694-3.908,65.466,65.466,0,0,0-6.79,3.428,2.13,2.13,0,0,0,1.071,3.972Z" transform="translate(-91.948 -15.136)" fill="#12263f"/>
      <path id="Trazado_622460" data-name="Trazado 622460" d="M292.045,8.081A61.037,61.037,0,0,1,298.97,9.7a2.13,2.13,0,1,0,1.213-4.083,65.318,65.318,0,0,0-7.41-1.736,2.13,2.13,0,0,0-.728,4.2Z" transform="translate(-216.063 -2.716)" fill="#12263f"/>
      <path id="Trazado_622461" data-name="Trazado 622461" d="M235.008,4.573c.042,0,.085,0,.127,0,1.209-.071,2.437-.107,3.65-.107h.006c1.153,0,2.317.032,3.462.1A2.13,2.13,0,1,0,242.49.306c-1.223-.068-2.467-.1-3.7-.1h-.007c-1.3,0-2.608.038-3.9.115a2.13,2.13,0,0,0,.123,4.256Z" transform="translate(-173.339)" fill="#12263f"/>
      <path id="Trazado_622462" data-name="Trazado 622462" d="M490.238,190.311a2.13,2.13,0,0,0-1.578,2.565,61.257,61.257,0,0,1,1.242,7,2.13,2.13,0,1,0,4.23-.5,65.474,65.474,0,0,0-1.328-7.493A2.129,2.129,0,0,0,490.238,190.311Z" transform="translate(-363.68 -141.459)" fill="#12263f"/>
      <path id="Trazado_622463" data-name="Trazado 622463" d="M480.6,313.437a2.13,2.13,0,1,0,4,1.456,65.246,65.246,0,0,0,2.181-7.3,2.13,2.13,0,0,0-4.146-.978A61.018,61.018,0,0,1,480.6,313.437Z" transform="translate(-357.629 -226.852)" fill="#12263f"/>
      <path id="Trazado_622464" data-name="Trazado 622464" d="M346.688,24.316A61.224,61.224,0,0,1,353.05,27.5a2.13,2.13,0,1,0,2.127-3.69,65.427,65.427,0,0,0-6.807-3.41,2.13,2.13,0,1,0-1.682,3.913Z" transform="translate(-257.09 -14.906)" fill="#12263f"/>
      <path id="Trazado_622465" data-name="Trazado 622465" d="M8.313,305.292a2.13,2.13,0,0,0-1.581,2.564,65.209,65.209,0,0,0,2.187,7.291,2.13,2.13,0,0,0,4-1.461,60.978,60.978,0,0,1-2.044-6.812A2.129,2.129,0,0,0,8.313,305.292Z" transform="translate(-4.968 -227.044)" fill="#12263f"/>
      <path id="Trazado_622466" data-name="Trazado 622466" d="M178.4,9.952a2.126,2.126,0,0,0,.614-.091,61.026,61.026,0,0,1,6.919-1.645,2.13,2.13,0,0,0-.741-4.195,65.278,65.278,0,0,0-7.4,1.76,2.13,2.13,0,0,0,.612,4.17Z" transform="translate(-131.2 -2.818)" fill="#12263f"/>
      <path id="Trazado_622467" data-name="Trazado 622467" d="M496.242,247.347a2.129,2.129,0,0,0-2.13,2.129v.135a62.163,62.163,0,0,1-.408,7.1,2.13,2.13,0,1,0,4.231.489,66.4,66.4,0,0,0,.436-7.594v-.135A2.13,2.13,0,0,0,496.242,247.347Z" transform="translate(-367.468 -183.956)" fill="#12263f"/>
      <path id="Trazado_622468" data-name="Trazado 622468" d="M271.271,491.832a61.613,61.613,0,0,1-7.067.821,2.129,2.129,0,0,0,.121,4.255c.041,0,.083,0,.125,0a65.76,65.76,0,0,0,7.558-.878,2.129,2.129,0,1,0-.737-4.195Z" transform="translate(-195.161 -365.909)" fill="#12263f"/>
      <path id="Trazado_622469" data-name="Trazado 622469" d="M214.362,492.691a61.63,61.63,0,0,1-7.067-.814,2.13,2.13,0,1,0-.733,4.2,65.852,65.852,0,0,0,7.559.87c.041,0,.082,0,.123,0a2.13,2.13,0,0,0,.119-4.256Z" transform="translate(-152.437 -365.943)" fill="#12263f"/>
      <path id="Trazado_622470" data-name="Trazado 622470" d="M159.357,478.012a60.889,60.889,0,0,1-6.688-2.43,2.13,2.13,0,0,0-1.686,3.911,65.257,65.257,0,0,0,7.158,2.6,2.129,2.129,0,1,0,1.217-4.081Z" transform="translate(-111.423 -353.708)" fill="#12263f"/>
      <path id="Trazado_622471" data-name="Trazado 622471" d="M3.506,202.52a2.127,2.127,0,0,0,2.358-1.873,61.21,61.21,0,0,1,1.219-7.008,2.13,2.13,0,0,0-4.147-.974,65.546,65.546,0,0,0-1.3,7.5A2.129,2.129,0,0,0,3.506,202.52Z" transform="translate(-1.204 -142.032)" fill="#12263f"/>
      <path id="Trazado_622472" data-name="Trazado 622472" d="M327.02,475.485a61.034,61.034,0,0,1-6.683,2.436A2.13,2.13,0,1,0,321.559,482a65.262,65.262,0,0,0,7.151-2.607,2.13,2.13,0,0,0-1.691-3.909Z" transform="translate(-237.305 -353.635)" fill="#12263f"/>
      <path id="Trazado_622473" data-name="Trazado 622473" d="M2.806,259.73a2.129,2.129,0,0,0,1.868-2.362,62.1,62.1,0,0,1-.415-7.1,2.129,2.129,0,0,0-2.129-2.127h0A2.13,2.13,0,0,0,0,250.268a66.384,66.384,0,0,0,.444,7.593,2.13,2.13,0,0,0,2.112,1.883A2.174,2.174,0,0,0,2.806,259.73Z" transform="translate(0 -184.544)" fill="#12263f"/>
      <path id="Trazado_622474" data-name="Trazado 622474" d="M9.228,69.069H33.833a4.532,4.532,0,0,0,4.526-4.526V59.411a15.377,15.377,0,0,0-.823-4.979A1.921,1.921,0,1,0,33.9,55.673a11.546,11.546,0,0,1,.617,3.738v5.132a.684.684,0,0,1-.684.684H9.228a.684.684,0,0,1-.684-.684V59.411A11.587,11.587,0,0,1,12.4,50.794a11.246,11.246,0,1,0-1.782-3.514A15.432,15.432,0,0,0,4.7,59.412v5.132A4.531,4.531,0,0,0,9.228,69.069ZM21.4,36.6a7.428,7.428,0,1,1-7.428,7.428A7.436,7.436,0,0,1,21.4,36.6Z" transform="translate(-3.5 -24.232)" fill="#12263f"/>
      <path id="Trazado_622475" data-name="Trazado 622475" d="M375.652,59.412v5.132a4.531,4.531,0,0,0,4.526,4.526h24.605a4.532,4.532,0,0,0,4.526-4.526V59.412a15.378,15.378,0,0,0-.823-4.979,1.921,1.921,0,1,0-3.637,1.241,11.551,11.551,0,0,1,.617,3.738v5.132a.684.684,0,0,1-.684.684H380.178a.684.684,0,0,1-.684-.684V59.412a11.587,11.587,0,0,1,3.852-8.618,11.245,11.245,0,1,0-1.782-3.514A15.429,15.429,0,0,0,375.652,59.412Zm16.7-22.811a7.428,7.428,0,1,1-7.427,7.428A7.436,7.436,0,0,1,392.354,36.6Z" transform="translate(-279.608 -24.232)" fill="#12263f"/>
      <path id="Trazado_622476" data-name="Trazado 622476" d="M406.048,358.1a1.921,1.921,0,0,0-1.2,2.439,11.552,11.552,0,0,1,.617,3.738v5.132a.684.684,0,0,1-.684.684H380.178a.684.684,0,0,1-.684-.684V364.28a11.587,11.587,0,0,1,3.852-8.618,11.245,11.245,0,1,0-1.782-3.514,15.432,15.432,0,0,0-5.912,12.132v5.132a4.531,4.531,0,0,0,4.526,4.526h24.605a4.531,4.531,0,0,0,4.526-4.526v-5.132a15.378,15.378,0,0,0-.823-4.979A1.922,1.922,0,0,0,406.048,358.1Zm-13.694-16.634a7.428,7.428,0,1,1-7.427,7.428A7.436,7.436,0,0,1,392.354,341.469Z" transform="translate(-279.608 -251.154)" fill="#12263f"/>
      <path id="Trazado_622477" data-name="Trazado 622477" d="M35.1,358.1a1.921,1.921,0,0,0-1.2,2.439,11.544,11.544,0,0,1,.617,3.738v5.132a.684.684,0,0,1-.684.684H9.228a.684.684,0,0,1-.684-.684V364.28a11.587,11.587,0,0,1,3.852-8.618,11.244,11.244,0,1,0-1.782-3.514A15.432,15.432,0,0,0,4.7,364.281v5.132a4.532,4.532,0,0,0,4.526,4.526H33.834a4.531,4.531,0,0,0,4.526-4.526v-5.132a15.377,15.377,0,0,0-.823-4.979A1.922,1.922,0,0,0,35.1,358.1ZM21.4,341.469a7.428,7.428,0,1,1-7.428,7.428A7.436,7.436,0,0,1,21.4,341.469Z" transform="translate(-3.5 -251.154)" fill="#12263f"/>
      <path id="Trazado_622478" data-name="Trazado 622478" d="M172.272,173.165H151.827a17.848,17.848,0,0,0-17.58,14.908h-.7A14.678,14.678,0,0,0,119.1,202.935a14.842,14.842,0,0,0,8.215,13.407c2.466,5.975,10.162,8.84,10.5,8.964a1.921,1.921,0,0,0,2.407-2.6,13.9,13.9,0,0,1-1.3-4.91h10.739a14.469,14.469,0,0,0,13.272-8.986h3.059a16.7,16.7,0,0,1-1.706,6.634,1.921,1.921,0,0,0,2.379,2.627c.427-.151,10.126-3.648,13.1-10.913a17.823,17.823,0,0,0-7.495-33.994Zm5.253,30.779a1.889,1.889,0,0,0-1.1,1.167c-1.078,3.366-4.36,5.872-7.068,7.436a17.258,17.258,0,0,0,.38-5.859,1.927,1.927,0,0,0-1.911-1.719h-16a13.88,13.88,0,0,1-5.206-1.009,1.911,1.911,0,0,0-2.071.413l-.027.027a1.907,1.907,0,0,0,.638,3.115,17.7,17.7,0,0,0,6.666,1.3h6.8a10.524,10.524,0,0,1-8.969,5.143H137.051a1.917,1.917,0,0,0-1.908,1.7,14.5,14.5,0,0,0,.132,4.033c-1.865-1.231-3.856-3.011-4.588-5.289a1.984,1.984,0,0,0-1.1-1.241,10.982,10.982,0,0,1-6.644-10.22,10.833,10.833,0,0,1,10.61-11.019h.48a17.675,17.675,0,0,0,1.26,5.709,1.907,1.907,0,0,0,3.118.646l.028-.028a1.907,1.907,0,0,0,.415-2.062,13.894,13.894,0,0,1-1-5.5,14.11,14.11,0,0,1,14.175-13.669h20.012a14.214,14.214,0,0,1,14.215,14.026A13.928,13.928,0,0,1,177.525,203.944Z" transform="translate(-88.647 -128.741)" fill="#12263f"/>
    </g>
  </g>
</svg>
