<svg xmlns="http://www.w3.org/2000/svg" width="169.912" height="169.912" viewBox="0 0 169.912 169.912">
  <g id="Grupo_881590" data-name="Grupo 881590" transform="translate(-1074.667 -8849.412)">
    <ellipse id="Elipse_5191" data-name="Elipse 5191" cx="84.956" cy="84.956" rx="84.956" ry="84.956" transform="translate(1074.667 8849.412)" fill="#f3f9ff"/>
    <g id="Grupo_879998" data-name="Grupo 879998" transform="translate(505.878 8471.768)">
      <g id="Grupo_879980" data-name="Grupo 879980" transform="translate(598.869 411.421)">
        <path id="Trazado_621907" data-name="Trazado 621907" d="M1062.142,413.645a56.9,56.9,0,0,1,32.487.293" transform="translate(-1022.182 -411.421)" fill="none" stroke="#12263f" stroke-linecap="round" stroke-linejoin="round" stroke-width="1" stroke-dasharray="66.294"/>
        <path id="Trazado_621908" data-name="Trazado 621908" d="M678.612,1119.452a56.57,56.57,0,0,1-22.562-31.422,25.409,25.409,0,0,1-1.226-6" transform="translate(-654.825 -1016.235)" fill="none" stroke="#12263f" stroke-linecap="round" stroke-linejoin="round" stroke-width="1" stroke-dasharray="62.48"/>
        <path id="Trazado_621909" data-name="Trazado 621909" d="M1581.224,923.184a57.072,57.072,0,0,1,.329,7.83,56.455,56.455,0,0,1-23.64,44.508" transform="translate(-1469.316 -872.977)" fill="none" stroke="#12263f" stroke-linecap="round" stroke-linejoin="round" stroke-width="1" stroke-dasharray="66.294"/>
        <circle id="Elipse_5272" data-name="Elipse 5272" cx="41.515" cy="41.515" r="41.515" transform="translate(14.2 15.028)" fill="#b0c0d2" stroke="#12263f" stroke-width="1"/>
      </g>
      <g id="Grupo_879991" data-name="Grupo 879991" transform="translate(592.782 412.426)">
        <g id="Grupo_879981" data-name="Grupo 879981" transform="translate(4.084)">
          <path id="Trazado_621910" data-name="Trazado 621910" d="M634.428,453.122V448.7a4.771,4.771,0,0,1,.4-1.906l2.833-6.392,15.818-14.4h.67a2.739,2.739,0,0,0,2.169-1.067l1.661-2.156a2.867,2.867,0,0,1,2.271-1.117H662.5l1.279.916.125,7.938.239,22.574H634.428Z" transform="translate(-634.426 -421.666)" fill="#e8e8e8" stroke="#12263f" stroke-linecap="round" stroke-linejoin="round" stroke-width="1"/>
          <path id="Trazado_621911" data-name="Trazado 621911" d="M934.3,482.049h5.727a1.911,1.911,0,0,0,1.911-1.911v-1.829a1.911,1.911,0,0,1,1.911-1.911h12.606a2.1,2.1,0,0,0,2.1-2.1,2.865,2.865,0,0,0-.839-2.027l-3-2.744v-2.707l-5.05-19.582s1.363-3.842-.5-5.081L933.6,431Z" transform="translate(-904.252 -430.085)" fill="#ee4e5d" stroke="#12263f" stroke-linecap="round" stroke-linejoin="round" stroke-width="1"/>
          <path id="Trazado_621912" data-name="Trazado 621912" d="M634.414,741.867v9.244l2,1.752,17.156,11.668,2.826,0a2.11,2.11,0,0,0,2.11-2.11h5.958l-.333-20.536Z" transform="translate(-634.412 -710.454)" fill="#f1b62b" stroke="#12263f" stroke-linecap="round" stroke-linejoin="round" stroke-width="1"/>
        </g>
        <circle id="Elipse_5273" data-name="Elipse 5273" cx="11.118" cy="11.118" r="11.118" transform="translate(4.084 1.492)" fill="#179587" stroke="#12263f" stroke-linecap="round" stroke-linejoin="round" stroke-width="1"/>
        <g id="Grupo_879984" data-name="Grupo 879984" transform="translate(8.168 6.675)">
          <g id="Grupo_879982" data-name="Grupo 879982">
            <line id="Línea_251" data-name="Línea 251" x1="14.069" transform="translate(0 3.726)" fill="none" stroke="#12263f" stroke-linecap="round" stroke-linejoin="round" stroke-width="1"/>
            <line id="Línea_252" data-name="Línea 252" y1="3.726" x2="3.726" fill="none" stroke="#12263f" stroke-linecap="round" stroke-linejoin="round" stroke-width="1"/>
          </g>
          <g id="Grupo_879983" data-name="Grupo 879983" transform="translate(0 8.146)">
            <line id="Línea_253" data-name="Línea 253" x2="14.069" fill="none" stroke="#12263f" stroke-linecap="round" stroke-linejoin="round" stroke-width="1"/>
            <line id="Línea_254" data-name="Línea 254" x1="3.726" y2="3.726" transform="translate(10.342)" fill="#fff" stroke="#12263f" stroke-linecap="round" stroke-linejoin="round" stroke-width="1"/>
          </g>
        </g>
        <circle id="Elipse_5274" data-name="Elipse 5274" cx="11.118" cy="11.118" r="11.118" transform="translate(0 39.404)" fill="#ee4e5d" stroke="#12263f" stroke-linecap="round" stroke-linejoin="round" stroke-width="1"/>
        <g id="Grupo_879987" data-name="Grupo 879987" transform="translate(4.084 44.586)">
          <g id="Grupo_879985" data-name="Grupo 879985">
            <line id="Línea_255" data-name="Línea 255" x1="14.069" transform="translate(0 3.726)" fill="none" stroke="#12263f" stroke-linecap="round" stroke-linejoin="round" stroke-width="1"/>
            <line id="Línea_256" data-name="Línea 256" y1="3.726" x2="3.726" fill="none" stroke="#12263f" stroke-linecap="round" stroke-linejoin="round" stroke-width="1"/>
          </g>
          <g id="Grupo_879986" data-name="Grupo 879986" transform="translate(0 8.146)">
            <line id="Línea_257" data-name="Línea 257" x2="14.069" fill="none" stroke="#12263f" stroke-linecap="round" stroke-linejoin="round" stroke-width="1"/>
            <line id="Línea_258" data-name="Línea 258" x1="3.726" y2="3.726" transform="translate(10.342)" fill="none" stroke="#12263f" stroke-linecap="round" stroke-linejoin="round" stroke-width="1"/>
          </g>
        </g>
        <circle id="Elipse_5275" data-name="Elipse 5275" cx="11.118" cy="11.118" r="11.118" transform="translate(38.375 26.44) rotate(-45)" fill="#f1b62b" stroke="#12263f" stroke-linecap="round" stroke-linejoin="round" stroke-width="1"/>
        <g id="Grupo_879990" data-name="Grupo 879990" transform="translate(47.064 20.504)">
          <g id="Grupo_879988" data-name="Grupo 879988">
            <line id="Línea_259" data-name="Línea 259" x1="14.069" transform="translate(0 3.726)" fill="none" stroke="#12263f" stroke-linecap="round" stroke-linejoin="round" stroke-width="1"/>
            <line id="Línea_260" data-name="Línea 260" y1="3.726" x2="3.726" fill="none" stroke="#12263f" stroke-linecap="round" stroke-linejoin="round" stroke-width="1"/>
          </g>
          <g id="Grupo_879989" data-name="Grupo 879989" transform="translate(0 8.146)">
            <line id="Línea_261" data-name="Línea 261" x2="14.069" fill="none" stroke="#12263f" stroke-linecap="round" stroke-linejoin="round" stroke-width="1"/>
            <line id="Línea_262" data-name="Línea 262" x1="3.726" y2="3.726" transform="translate(10.342)" fill="none" stroke="#12263f" stroke-linecap="round" stroke-linejoin="round" stroke-width="1"/>
          </g>
        </g>
      </g>
      <g id="Grupo_879996" data-name="Grupo 879996" transform="translate(654.25 417.499)">
        <g id="Grupo_879992" data-name="Grupo 879992" transform="translate(9.329)">
          <path id="Trazado_621913" data-name="Trazado 621913" d="M1343.424,520.964a24.124,24.124,0,1,0-29.012-29.236" transform="translate(-1314.412 -473.372)" fill="#e8e8e8" stroke="#12263f" stroke-linecap="round" stroke-linejoin="round" stroke-width="1"/>
        </g>
        <g id="Grupo_879994" data-name="Grupo 879994" transform="translate(0 13.251)">
          <g id="Grupo_879993" data-name="Grupo 879993" transform="translate(0 0)">
            <circle id="Elipse_5276" data-name="Elipse 5276" cx="15.424" cy="15.424" r="15.424" transform="translate(0 21.813) rotate(-45)" fill="#f1b62b" stroke="#12263f" stroke-linecap="round" stroke-linejoin="round" stroke-width="1"/>
          </g>
        </g>
        <path id="Trazado_621914" data-name="Trazado 621914" d="M1549.917,592.52l3.927-3.928,4.151,4.151V577.887h-14.855l4.151,4.151-3.928,3.928" transform="translate(-1511.372 -567.634)" fill="#179587" stroke="#12263f" stroke-linecap="round" stroke-linejoin="round" stroke-width="1"/>
        <g id="Grupo_879995" data-name="Grupo 879995" transform="translate(10.104 26.274)">
          <path id="Trazado_621915" data-name="Trazado 621915" d="M1324.71,787.989h-1.08a1.324,1.324,0,0,1,0-2.648h2.287" transform="translate(-1322.309 -781.01)" fill="#787f9f" stroke="#12263f" stroke-linecap="round" stroke-linejoin="round" stroke-width="1"/>
          <path id="Trazado_621916" data-name="Trazado 621916" d="M1525.455,787.989h1.081a1.324,1.324,0,0,0,0-2.648h-2.287" transform="translate(-1504.437 -781.01)" fill="#787f9f" stroke="#12263f" stroke-linecap="round" stroke-linejoin="round" stroke-width="1"/>
          <path id="Trazado_621917" data-name="Trazado 621917" d="M1345.649,748.422l2.422-5.344a3.121,3.121,0,0,1,2.869-1.9h8.244a3.121,3.121,0,0,1,2.869,1.9l2.582,5.687" transform="translate(-1343.359 -741.181)" fill="#787f9f" stroke="#12263f" stroke-linecap="round" stroke-linejoin="round" stroke-width="1"/>
          <path id="Trazado_621918" data-name="Trazado 621918" d="M1361.453,807.522h-19.564v-4.576a2.885,2.885,0,0,1,2.885-2.885h13.795a2.885,2.885,0,0,1,2.885,2.885Z" transform="translate(-1339.968 -794.285)" fill="#787f9f" stroke="#12263f" stroke-linecap="round" stroke-linejoin="round" stroke-width="1"/>
          <path id="Trazado_621919" data-name="Trazado 621919" d="M1345.729,879.25h-2.638a1.2,1.2,0,0,1-1.2-1.2v-1.934h5.042v1.934A1.2,1.2,0,0,1,1345.729,879.25Z" transform="translate(-1339.968 -862.876)" fill="#787f9f" stroke="#12263f" stroke-linecap="round" stroke-linejoin="round" stroke-width="1"/>
          <path id="Trazado_621920" data-name="Trazado 621920" d="M1493.752,879.25h-2.638a1.2,1.2,0,0,1-1.2-1.2v-1.934h5.042v1.934A1.2,1.2,0,0,1,1493.752,879.25Z" transform="translate(-1473.469 -862.876)" fill="#787f9f" stroke="#12263f" stroke-linecap="round" stroke-linejoin="round" stroke-width="1"/>
        </g>
      </g>
      <g id="Grupo_879997" data-name="Grupo 879997" transform="translate(629.685 467.564)">
        <path id="Trazado_621921" data-name="Trazado 621921" d="M979.075,1055.65h-7.692a2.455,2.455,0,0,0-2.455,2.455v38.9a2.454,2.454,0,0,0,2.455,2.454h46.744a2.454,2.454,0,0,0,2.455-2.454v-38.9a2.455,2.455,0,0,0-2.455-2.455H996.139" transform="translate(-968.929 -1048.591)" fill="#e8e8e8" stroke="#12263f" stroke-linecap="round" stroke-linejoin="round" stroke-width="1"/>
        <path id="Trazado_621922" data-name="Trazado 621922" d="M1087.138,990.676c0,3.858,6.984,13.131,6.984,13.131s6.984-9.273,6.984-13.131a6.984,6.984,0,0,0-13.969,0Z" transform="translate(-1075.541 -983.692)" fill="#f1b62b" stroke="#12263f" stroke-linecap="round" stroke-linejoin="round" stroke-width="1"/>
        <path id="Trazado_621923" data-name="Trazado 621923" d="M1120,1020.286a3.69,3.69,0,1,0,3.69-3.689A3.69,3.69,0,0,0,1120,1020.286Z" transform="translate(-1105.177 -1013.369)" fill="#fff" stroke="#12263f" stroke-linecap="round" stroke-linejoin="round" stroke-width="1"/>
        <path id="Trazado_621924" data-name="Trazado 621924" d="M1316.85,1161.359c0,3.858,6.984,13.131,6.984,13.131s6.984-9.273,6.984-13.131a6.984,6.984,0,0,0-13.969,0Z" transform="translate(-1282.717 -1137.63)" fill="#179587" stroke="#12263f" stroke-linecap="round" stroke-linejoin="round" stroke-width="1"/>
        <path id="Trazado_621925" data-name="Trazado 621925" d="M1349.71,1190.969a3.69,3.69,0,1,0,3.69-3.689A3.69,3.69,0,0,0,1349.71,1190.969Z" transform="translate(-1312.353 -1167.307)" fill="#fff" stroke="#12263f" stroke-linecap="round" stroke-linejoin="round" stroke-width="1"/>
        <line id="Línea_263" data-name="Línea 263" y2="11.069" transform="translate(40.585 39.804)" fill="none" stroke="#12263f" stroke-linecap="round" stroke-linejoin="round" stroke-width="1"/>
        <line id="Línea_264" data-name="Línea 264" y2="7.84" transform="translate(40.585 7.059)" fill="none" stroke="#12263f" stroke-linecap="round" stroke-linejoin="round" stroke-width="1"/>
        <line id="Línea_265" data-name="Línea 265" y2="10.305" transform="translate(31.361 40.568)" fill="none" stroke="#12263f" stroke-linecap="round" stroke-linejoin="round" stroke-width="1"/>
        <line id="Línea_266" data-name="Línea 266" y2="20.118" transform="translate(31.361 7.059)" fill="none" stroke="#12263f" stroke-linecap="round" stroke-linejoin="round" stroke-width="1"/>
        <line id="Línea_267" data-name="Línea 267" x1="9.215" y1="9.215" transform="translate(22.146 17.963)" fill="none" stroke="#12263f" stroke-linecap="round" stroke-linejoin="round" stroke-width="1"/>
        <line id="Línea_268" data-name="Línea 268" y1="5.995" transform="translate(9.224 7.06)" fill="none" stroke="#12263f" stroke-linecap="round" stroke-linejoin="round" stroke-width="1"/>
        <line id="Línea_269" data-name="Línea 269" x1="17.084" y1="18.288" transform="translate(14.277 22.279)" fill="none" stroke="#12263f" stroke-linecap="round" stroke-linejoin="round" stroke-width="1"/>
        <line id="Línea_270" data-name="Línea 270" x1="9.966" y1="10.715" transform="translate(0 40.158)" fill="none" stroke="#12263f" stroke-linecap="round" stroke-linejoin="round" stroke-width="1"/>
        <line id="Línea_271" data-name="Línea 271" x1="3.046" y1="3.214" transform="translate(0 27.855)" fill="none" stroke="#12263f" stroke-linecap="round" stroke-linejoin="round" stroke-width="1"/>
        <line id="Línea_272" data-name="Línea 272" x1="5.293" y1="5.586" transform="translate(16.52 45.287)" fill="none" stroke="#12263f" stroke-linecap="round" stroke-linejoin="round" stroke-width="1"/>
        <line id="Línea_273" data-name="Línea 273" x1="9.224" transform="translate(0 13.055)" fill="none" stroke="#12263f" stroke-linecap="round" stroke-linejoin="round" stroke-width="1"/>
        <line id="Línea_274" data-name="Línea 274" x1="14.277" transform="translate(0 22.279)" fill="none" stroke="#12263f" stroke-linecap="round" stroke-linejoin="round" stroke-width="1"/>
        <line id="Línea_275" data-name="Línea 275" x2="11.069" transform="translate(40.585 39.804)" fill="none" stroke="#12263f" stroke-linecap="round" stroke-linejoin="round" stroke-width="1"/>
        <line id="Línea_276" data-name="Línea 276" x2="3.69" transform="translate(47.964 30.119)" fill="none" stroke="#12263f" stroke-linecap="round" stroke-linejoin="round" stroke-width="1"/>
        <path id="Trazado_621926" data-name="Trazado 621926" d="M1021.91,1266.559c0,3.858,6.985,13.131,6.985,13.131s6.985-9.273,6.985-13.131a6.985,6.985,0,0,0-13.969,0Z" transform="translate(-1016.712 -1232.509)" fill="#ee4e5d" stroke="#12263f" stroke-linecap="round" stroke-linejoin="round" stroke-width="1"/>
        <path id="Trazado_621927" data-name="Trazado 621927" d="M1054.77,1296.169a3.69,3.69,0,1,0,3.69-3.689A3.69,3.69,0,0,0,1054.77,1296.169Z" transform="translate(-1046.349 -1262.186)" fill="#fff" stroke="#12263f" stroke-linecap="round" stroke-linejoin="round" stroke-width="1"/>
      </g>
    </g>
  </g>
</svg>
