<svg id="dolar" xmlns="http://www.w3.org/2000/svg" width="83.511" height="83.511" viewBox="0 0 83.511 83.511">
  <g id="Grupo_879953" data-name="Grupo 879953" transform="translate(0 0)">
    <path id="Trazado_621388" data-name="Trazado 621388" d="M366.822,426.746c-1.516,1.179-3.039,2.308-4.526,3.355a1.224,1.224,0,0,0-.513,1.121,44.1,44.1,0,0,1,0,7.854,1.223,1.223,0,0,0,1.08,1.351,1.256,1.256,0,0,0,.137.008,1.224,1.224,0,0,0,1.214-1.088,44.685,44.685,0,0,0,.062-7.652c1.336-.953,2.694-1.966,4.047-3.018a1.223,1.223,0,0,0-1.5-1.931Z" transform="translate(-302.768 -356.924)"/>
    <path id="Trazado_621389" data-name="Trazado 621389" d="M308.368,172.084a276.31,276.31,0,0,1,0-30.418,1.223,1.223,0,0,0-1.221-1.3c-4.73,0-7.367,1.6-8.692,5.315a7.153,7.153,0,0,0-4.74,2.2c-3.567,3.793-3.083,11.66-2.656,18.6q.019.31.038.618a7.37,7.37,0,0,0-3.949.613c-3.3,1.368-7.152,4.753-13.541,10.362-1.3,1.14-2.641,2.319-4.117,3.6a1.224,1.224,0,0,0-.414.8,108.631,108.631,0,0,0-.095,17.373,1.223,1.223,0,0,0,1.219,1.13c.031,0,.063,0,.094,0a1.223,1.223,0,0,0,1.127-1.313,109.841,109.841,0,0,1,.046-16.464c1.335-1.162,2.563-2.24,3.754-3.286,11.92-10.465,14.619-12.594,18.96-8.369-1.7,1.508-5.5,4.841-9.806,8.334a1.223,1.223,0,0,0,1.541,1.9c5.865-4.754,10.8-9.217,10.848-9.262a1.223,1.223,0,0,0,.082-1.732q-.606-.664-1.192-1.207l3.487-3.184a1.223,1.223,0,0,0,.4-.9c0-9.017,0-14.974,1.054-18.487.819-2.73,2.249-3.907,5.256-4.147a281.672,281.672,0,0,0,.045,28.859,146.383,146.383,0,0,1-12.5,11.925,1.223,1.223,0,1,0,1.583,1.865,145.258,145.258,0,0,0,13.079-12.536A1.222,1.222,0,0,0,308.368,172.084Zm-11.274-7.133-3.41,3.113-.081-.048c-.032-.554-.067-1.117-.1-1.685-.4-6.446-.846-13.752,2-16.775a4.474,4.474,0,0,1,2.3-1.3C297.11,152.03,297.094,157.428,297.093,164.951Z" transform="translate(-224.859 -117.469)"/>
    <path id="Trazado_621390" data-name="Trazado 621390" d="M183.785,353.525c-1.475-1.283-2.818-2.461-4.116-3.6-1.616-1.418-3.142-2.758-4.5-3.925a1.223,1.223,0,0,0-1.593,1.857c1.35,1.157,2.8,2.431,4.481,3.906,1.191,1.045,2.419,2.123,3.753,3.285a109.853,109.853,0,0,1,.046,16.464,1.223,1.223,0,0,0,1.127,1.313c.032,0,.063,0,.094,0a1.224,1.224,0,0,0,1.219-1.13,108.6,108.6,0,0,0-.095-17.373,1.224,1.224,0,0,0-.414-.8Z" transform="translate(-144.906 -289.317)"/>
    <path id="Trazado_621391" data-name="Trazado 621391" d="M25.443,170.243c-3.3-2.434-5.853-3.486-8.213-3.135l.042-.685c.43-6.923.918-14.769-2.635-18.55a7.128,7.128,0,0,0-4.722-2.2c-1.324-3.717-3.962-5.316-8.692-5.316A1.223,1.223,0,0,0,0,141.585c0,.028,0,.055,0,.082.955,14.589.955,14.589,0,30.415a1.224,1.224,0,0,0,.307.887A147.467,147.467,0,0,0,22,192.239a44.683,44.683,0,0,0,.061,7.652,1.224,1.224,0,0,0,1.214,1.088,1.25,1.25,0,0,0,.137-.008,1.223,1.223,0,0,0,1.08-1.351,44.189,44.189,0,0,1,0-7.855,1.224,1.224,0,0,0-.513-1.121A145.176,145.176,0,0,1,2.475,171.716c.9-14.973.924-15.6.057-28.858,3,.242,4.425,1.419,5.243,4.146,1.054,3.514,1.054,9.471,1.054,18.487a1.224,1.224,0,0,0,.4.9l3.486,3.183q-.587.545-1.191,1.208a1.223,1.223,0,0,0,.082,1.732c.049.044,4.983,4.507,10.848,9.262a1.223,1.223,0,1,0,1.541-1.9c-4.306-3.491-8.105-6.823-9.8-8.332,1.45-1.4,2.65-2.026,3.887-2.055,1.49-.036,3.313.8,5.915,2.722a1.223,1.223,0,0,0,1.451-1.97Zm-10.613-3.971q-.056.894-.107,1.766l-.04.024-3.407-3.111c0-7.523-.016-12.92-.7-16.7a4.448,4.448,0,0,1,2.277,1.294C15.683,152.559,15.23,159.844,14.831,166.272Z" transform="translate(0 -117.468)"/>
    <path id="Trazado_621392" data-name="Trazado 621392" d="M156.056,63.61a1.223,1.223,0,1,0-2.281.886,16.936,16.936,0,1,0-1.143-6.124,1.223,1.223,0,1,0,2.447,0,14.447,14.447,0,1,1,.977,5.238Z" transform="translate(-127.737 -34.685)"/>
    <path id="Trazado_621393" data-name="Trazado 621393" d="M158.565,23.688a23.506,23.506,0,0,0-4.48-13.861A1.223,1.223,0,1,0,152.1,11.26a21.261,21.261,0,1,1-17.241-8.814,21.293,21.293,0,0,1,13.566,4.887A1.223,1.223,0,0,0,149.99,5.45a23.685,23.685,0,1,0,8.576,18.237Z" transform="translate(-93.028 0)"/>
    <path id="Trazado_621394" data-name="Trazado 621394" d="M231.453,93.5a2.433,2.433,0,0,1-2.431-2.429,1.223,1.223,0,0,0-2.447,0,4.885,4.885,0,0,0,3.655,4.72v1.671a1.223,1.223,0,1,0,2.447,0V95.791a4.875,4.875,0,0,0-1.223-9.6,2.429,2.429,0,1,1,2.431-2.429,1.223,1.223,0,0,0,2.447,0,4.885,4.885,0,0,0-3.655-4.72V77.375a1.223,1.223,0,1,0-2.447,0v1.671a4.875,4.875,0,0,0,1.223,9.6,2.429,2.429,0,1,1,0,4.857Z" transform="translate(-189.619 -63.731)"/>
  </g>
</svg>
