<svg xmlns="http://www.w3.org/2000/svg" xmlns:xlink="http://www.w3.org/1999/xlink" width="169.912" height="169.912" viewBox="0 0 169.912 169.912">
  <defs>
    <linearGradient id="linear-gradient" x1="-204.565" y1="0.657" x2="-193.754" y2="0.657" gradientUnits="objectBoundingBox">
      <stop offset="0" stop-color="#daece5"/>
      <stop offset="1" stop-color="#b2deeb"/>
    </linearGradient>
  </defs>
  <g id="Grupo_881591" data-name="Grupo 881591" transform="translate(-355 -9340.189)">
    <ellipse id="Elipse_5191" data-name="Elipse 5191" cx="84.956" cy="84.956" rx="84.956" ry="84.956" transform="translate(355 9340.189)" fill="#f3f9ff"/>
    <g id="Grupo_880045" data-name="Grupo 880045" transform="translate(-1692.766 9214.484)">
      <path id="Trazado_621928" data-name="Trazado 621928" d="M2520.732,1186.428a81.5,81.5,0,0,1-3.086,7.716c-1.115,2.061-4.648,5.437-4.648,5.437l-1.758-4.507a20.753,20.753,0,0,0,4.764-3.346,34.893,34.893,0,0,0,3.639-5.894Z" transform="translate(-423.174 -963.61)" fill="#179587"/>
      <g id="Grupo_880008" data-name="Grupo 880008" transform="translate(2078.145 217.936)">
        <g id="Grupo_880001" data-name="Grupo 880001" transform="translate(1.894 20.99)">
          <g id="Grupo_879999" data-name="Grupo 879999" transform="translate(8.014 26.912)">
            <path id="Trazado_621929" data-name="Trazado 621929" d="M2512.5,1799.006s.336.465,1.918.868c.349.089.724.149.724.724h-1.562l-1.6-.276v.276h-.863s-.24-1.411.264-1.592Z" transform="translate(-2511.063 -1797.993)" fill="#122043"/>
            <path id="Trazado_621930" data-name="Trazado 621930" d="M2516.67,1785.081l-.082,1.013h0a.975.975,0,0,1-1.057.036l-.059-.036v-1.013Z" transform="translate(-2515.151 -1785.081)" fill="#f7a57a"/>
          </g>
          <g id="Grupo_880000" data-name="Grupo 880000" transform="translate(0 27.114)">
            <path id="Trazado_621931" data-name="Trazado 621931" d="M2402.4,1801.781s.336.465,1.918.868c.348.089.724.15.724.724h-1.562l-1.6-.276v.276h-.863s-.24-1.411.264-1.592Z" transform="translate(-2400.96 -1800.768)" fill="#122043"/>
            <path id="Trazado_621932" data-name="Trazado 621932" d="M2406.567,1787.856l-.082,1.014h0a.976.976,0,0,1-1.057.035l-.059-.035v-1.014Z" transform="translate(-2405.048 -1787.856)" fill="#f7a57a"/>
          </g>
          <path id="Trazado_621933" data-name="Trazado 621933" d="M2482.459,1418.057l-.111,24.724h-1.855s-2.823-20.554-2.22-25.458S2482.459,1418.057,2482.459,1418.057Z" transform="translate(-2472.567 -1415.318)" fill="#0e1a54"/>
          <path id="Trazado_621934" data-name="Trazado 621934" d="M2409.168,1442.781s-.646,7.821-2.129,12.15-4.161,13.314-4.161,13.314h-1.92s2.9-18.393,2.777-25.436Z" transform="translate(-2400.959 -1440.782)" fill="#222b5a"/>
        </g>
        <g id="Grupo_880007" data-name="Grupo 880007" transform="translate(0)">
          <g id="Grupo_880002" data-name="Grupo 880002">
            <path id="Trazado_621935" data-name="Trazado 621935" d="M2375.5,1128.848l-.535-1.025a.291.291,0,0,1,.012-.285l.126-.2a.291.291,0,0,1,.179-.13l1.108-.267a.292.292,0,0,1,.328.152l.064.127a.292.292,0,0,1,.019.217l-.42,1.372Z" transform="translate(-2374.935 -1126.927)" fill="#f7a57a"/>
            <path id="Trazado_621936" data-name="Trazado 621936" d="M2386.726,1134.555l.536-.87a.279.279,0,0,0-.149-.411l-.421-.141c-.112-.038-.587.391-.587.391s.209.421.6-.016a.439.439,0,0,0,.187.122,1.252,1.252,0,0,0-.8.957Z" transform="translate(-2385.278 -1132.679)" fill="#f7a57a"/>
          </g>
          <path id="Trazado_621937" data-name="Trazado 621937" d="M2388.672,1163.038c2.354,1.495,1.472,10.978,1.472,10.978l-7.115-.712.637-7.016s-3.305-3.875-3.975-6.742a66.74,66.74,0,0,1-1.064-7.4l1.308-.025s1.574,5.89,2.525,7.373,4.069,3.546,4.069,3.546Z" transform="translate(-2378.358 -1150.287)" fill="#179587"/>
          <g id="Grupo_880003" data-name="Grupo 880003" transform="translate(10.963 13.472)">
            <path id="Trazado_621938" data-name="Trazado 621938" d="M2526.205,1322.241c.084-1.024.661-7.527-.64-10.044.028-.056.055-.113.081-.17,1.456,2.607.806,9.534.742,10.256C2526.34,1322.247,2526.254,1322.277,2526.205,1322.241Z" transform="translate(-2525.565 -1312.027)" fill="url(#linear-gradient)"/>
          </g>
          <g id="Grupo_880006" data-name="Grupo 880006" transform="translate(6.87 6.866)">
            <g id="Grupo_880004" data-name="Grupo 880004" transform="translate(1.885 4.443)">
              <path id="Trazado_621939" data-name="Trazado 621939" d="M2495.223,1283.631l.285-1.329,1.523.141.143,1.57a.345.345,0,0,1-.031.032A4.326,4.326,0,0,0,2495.223,1283.631Z" transform="translate(-2495.223 -1282.302)" fill="#f18c72"/>
            </g>
            <g id="Grupo_880005" data-name="Grupo 880005">
              <path id="Trazado_621940" data-name="Trazado 621940" d="M2487.021,1244.845l.438,2.074c.207-.041.364.162.356.364a.393.393,0,0,1,.059.148,2.428,2.428,0,0,0,1.932.138c1.283-.463.079-2.894.079-2.894Z" transform="translate(-2485.733 -1242.972)" fill="#f7a57a"/>
              <path id="Trazado_621941" data-name="Trazado 621941" d="M2470.2,1224.808a1.3,1.3,0,0,0-.427-.526c-.852-.529-.257-1.108-.044-1.3.236-.211.109-.679.407-1,.455-.489,1.023-.147,1.346-.262s.459-.59.98-.432.528.546.709.682.4-.353.948.079c.84.656-.516,1.209-.516,1.209a2.587,2.587,0,0,1-1.8.2.339.339,0,0,0-.379.159,7.217,7.217,0,0,0,.083,2.116l-.385-.229A.958.958,0,0,1,2470.2,1224.808Z" transform="translate(-2469.326 -1221.258)" fill="#122043"/>
              <path id="Trazado_621942" data-name="Trazado 621942" d="M2491.984,1264.359a.325.325,0,1,0,.109-.447A.325.325,0,0,0,2491.984,1264.359Z" transform="translate(-2490.291 -1260.765)" fill="#f7a57a"/>
            </g>
          </g>
          <path id="Trazado_621943" data-name="Trazado 621943" d="M2491.987,1291.726l.045.72-2.36-.425.478-.795Z" transform="translate(-2481.321 -1279.269)" fill="#0f787a"/>
        </g>
      </g>
      <g id="Grupo_880009" data-name="Grupo 880009" transform="translate(2096.385 220.644)">
        <path id="Trazado_621944" data-name="Trazado 621944" d="M2628.9,1166.286l.873-.758a.291.291,0,0,0,.093-.27l-.042-.237a.29.29,0,0,0-.12-.187l-.933-.654a.291.291,0,0,0-.361.021l-.106.095a.292.292,0,0,0-.1.195l-.111,1.431Z" transform="translate(-2627.906 -1164.128)" fill="#f7a57a"/>
        <path id="Trazado_621945" data-name="Trazado 621945" d="M2625.727,1171.786l-.181-1.006a.279.279,0,0,1,.288-.328l.444.023c.118.006.4.579.4.579s-.348.316-.555-.236a.441.441,0,0,1-.219.046,1.252,1.252,0,0,1,.4,1.185Z" transform="translate(-2625.541 -1169.992)" fill="#f18c72"/>
      </g>
      <g id="Grupo_880011" data-name="Grupo 880011" transform="translate(2145.368 215.627)">
        <path id="Trazado_621946" data-name="Trazado 621946" d="M3311.593,1122.653l2.573,6.724,1.622-1.207-3.625-6.11Z" transform="translate(-3310.644 -1120.105)" fill="#f18c72"/>
        <g id="Grupo_880010" data-name="Grupo 880010" transform="translate(0 0)">
          <path id="Trazado_621947" data-name="Trazado 621947" d="M3299.822,1095.708a1.046,1.046,0,0,1,.233.71l.114.971-.133.15-.456.4c.016-.2.039,0,.039,0l-.732-1.274s-.885-.568.231-1.405a.321.321,0,0,1,.367-.024A.82.82,0,0,1,3299.822,1095.708Z" transform="translate(-3298.553 -1095.193)" fill="#f18c72"/>
        </g>
        <path id="Trazado_621948" data-name="Trazado 621948" d="M3350.057,1207.212a42.282,42.282,0,0,1-3.107-4.857l1.4-1.589,1.712,2Z" transform="translate(-3343.427 -1193.082)" fill="#e12537"/>
      </g>
      <g id="Grupo_880016" data-name="Grupo 880016" transform="translate(2145.58 146.585)">
        <g id="Grupo_880012" data-name="Grupo 880012" transform="translate(0 0)">
          <path id="Trazado_621949" data-name="Trazado 621949" d="M3301.469,181.134s2.481-28.093,21.2-34.549c21.964,26.052-3.716,47.583-3.716,47.583Z" transform="translate(-3301.469 -146.585)" fill="#a4d1bc"/>
          <path id="Trazado_621950" data-name="Trazado 621950" d="M3407.65,146.585c.077.091.15.181.226.272l-9.561,30.38,18.2-7.953q-.012.332-.031.661l-18.407,8.042-2.759,8.767-.489-.421,5.5-17.476h0l-7.213-8.975c.1-.189.2-.379.306-.567l7.122,8.861,6.754-21.462c.117-.043.232-.088.351-.129Z" transform="translate(-3386.447 -146.585)" fill="#fff"/>
        </g>
        <g id="Grupo_880013" data-name="Grupo 880013" transform="translate(4.349 16.426)">
          <path id="Trazado_621951" data-name="Trazado 621951" d="M3374.919,379.623c7.292-4.827,19.139-10.132,30.962-5.672,3.394,22.556-21.187,30.165-21.187,30.165l-23.468-2.212S3362.672,387.73,3374.919,379.623Z" transform="translate(-3361.227 -372.272)" fill="#179587"/>
          <path id="Trazado_621952" data-name="Trazado 621952" d="M3384.864,394.378l-.246,11.95,20.84-13.045c.141.05.282.1.423.15.013.089.022.175.035.264l-11.162,6.987,10.642,3.171c-.027.1-.058.2-.086.3l-.08.267-11.146-3.321-18.6,11.644,18.5,6.161c-.208.143-.417.283-.623.418l-18.529-6.171-13.208,8.268-.4-.037.21-.547,22.579-14.134.249-12.1Q3384.564,394.49,3384.864,394.378Z" transform="translate(-3361.227 -391.754)" fill="#005558"/>
        </g>
        <g id="Grupo_880015" data-name="Grupo 880015" transform="translate(3.231 43.176)">
          <path id="Trazado_621953" data-name="Trazado 621953" d="M3356.594,740.13s22.283-3.108,29.645,10.087c-8.132,14.634-22.259,16.273-33.485,14.713a7.171,7.171,0,0,0-2.731-6.333,55.412,55.412,0,0,0-3.741-7.5,6.974,6.974,0,0,0-.421-.652Z" transform="translate(-3345.862 -739.811)" fill="#0c9182"/>
          <g id="Grupo_880014" data-name="Grupo 880014" transform="translate(1.117 1.902)">
            <path id="Trazado_621954" data-name="Trazado 621954" d="M3361.532,777.141q-.16-.289-.319-.575l19.824-1.222,8.4-9.4q.3.1.606.212l-8.165,9.141,18.425-1.136c.056.1.114.189.168.287h0c-.058.1-.117.205-.175.308l-30.412,1.875,11.131,12.3q-.341.069-.682.131l-11.207-12.38Z" transform="translate(-3361.213 -765.939)" fill="#0f787a" opacity="0.78"/>
          </g>
        </g>
      </g>
      <g id="Grupo_880023" data-name="Grupo 880023" transform="translate(2175.65 171.477)">
        <g id="Grupo_880017" data-name="Grupo 880017" transform="translate(0 0)">
          <path id="Trazado_621955" data-name="Trazado 621955" d="M3725.037,525.544l2.432,1.733-2.82.741-10.037,1.785Z" transform="translate(-3714.612 -522.854)" fill="#c43543"/>
          <path id="Trazado_621956" data-name="Trazado 621956" d="M3834.963,549.353l-4.419,1.969.77-1.081Z" transform="translate(-3822.106 -544.93)" fill="#ee4e5d"/>
          <path id="Trazado_621957" data-name="Trazado 621957" d="M3725.037,491.277l-.451-2.69-9.973,6.949Z" transform="translate(-3714.612 -488.587)" fill="#ee4e5d"/>
          <path id="Trazado_621958" data-name="Trazado 621958" d="M3714.612,561.318l10.037-1.786.446,3.984Z" transform="translate(-3714.612 -554.369)" fill="#ee4e5d"/>
        </g>
        <g id="Grupo_880022" data-name="Grupo 880022" transform="translate(7.493 6.77)">
          <g id="Grupo_880018" data-name="Grupo 880018" transform="translate(4.122)">
            <path id="Trazado_621959" data-name="Trazado 621959" d="M3875.74,582.119a.23.23,0,0,0,.036-.079.227.227,0,0,0-.168-.274,6.378,6.378,0,0,0-1.166-.168.227.227,0,1,0-.022.454,5.912,5.912,0,0,1,1.083.156A.227.227,0,0,0,3875.74,582.119Z" transform="translate(-3874.203 -581.598)" fill="#ee4e5d"/>
          </g>
          <g id="Grupo_880020" data-name="Grupo 880020" transform="translate(0 0.621)">
            <g id="Grupo_880019" data-name="Grupo 880019">
              <path id="Trazado_621960" data-name="Trazado 621960" d="M3831.584,613.675a.227.227,0,0,1-.073-.313,6.385,6.385,0,0,0,.808-2.051.227.227,0,0,1,.444.095,6.834,6.834,0,0,1-.867,2.2l-.008.012A.228.228,0,0,1,3831.584,613.675Zm1.116-3.456a.227.227,0,0,1-.219-.235,8.126,8.126,0,0,0-.227-2.214.227.227,0,1,1,.441-.107,8.543,8.543,0,0,1,.239,2.338.221.221,0,0,1-.042.124A.227.227,0,0,1,3832.7,610.219Zm-.574-3.6a.228.228,0,0,1-.3-.118l-.042-.094a10.476,10.476,0,0,0-1.087-1.841.227.227,0,0,1,.367-.268,10.964,10.964,0,0,1,1.134,1.921l.045.1a.227.227,0,0,1-.118.3Zm-1.965-3.081a.226.226,0,0,1-.32-.014,16.591,16.591,0,0,0-1.644-1.554.227.227,0,1,1,.29-.35,16.949,16.949,0,0,1,1.689,1.6.227.227,0,0,1,.017.285A.214.214,0,0,1,3830.161,603.542Zm-2.723-2.455a.227.227,0,0,1-.317.049l-.155-.112a7.549,7.549,0,0,1-.538.557.227.227,0,0,1-.31-.332q.25-.233.476-.489c-.418-.291-.867-.587-1.361-.9a.227.227,0,0,1,.243-.384c.513.323.976.63,1.408.932a6.87,6.87,0,0,0,.594-.906.227.227,0,1,1,.4.218,7.352,7.352,0,0,1-.622.951l.135.1a.227.227,0,0,1,.051.315Zm.706-2.525a.227.227,0,0,1-.152-.283,5.715,5.715,0,0,0,.219-2.183.227.227,0,1,1,.452-.042,6.148,6.148,0,0,1-.237,2.355.213.213,0,0,1-.032.067A.227.227,0,0,1,3828.145,598.562Zm-2.835,3.887a7.1,7.1,0,0,1-2.17.926.227.227,0,1,1-.105-.442,6.638,6.638,0,0,0,2.031-.867.227.227,0,0,1,.307.324A.22.22,0,0,1,3825.31,602.449Zm2.922-7.5a.227.227,0,0,1-.285-.148,6.884,6.884,0,0,0-1.006-1.97.227.227,0,0,1,.367-.267,7.337,7.337,0,0,1,1.071,2.1.226.226,0,0,1-.147.285Zm-6.506,8.6a5.911,5.911,0,0,1-.616-.027,4.852,4.852,0,0,1-1.706-.493.227.227,0,1,1,.2-.406,4.4,4.4,0,0,0,1.544.446,5.54,5.54,0,0,0,.569.025.227.227,0,1,1,0,.454Zm2.34-4.4a8.421,8.421,0,0,0-2.045-.885.227.227,0,0,1,.113-.44,8.869,8.869,0,0,1,2.156.93.227.227,0,0,1,.085.31.168.168,0,0,1-.013.02A.226.226,0,0,1,3824.065,599.152Zm2.316-7.334a.227.227,0,0,1-.321.008,7.279,7.279,0,0,0-.782-.644,6.94,6.94,0,0,0-1.041-.613.227.227,0,1,1,.2-.41,7.378,7.378,0,0,1,1.109.653,7.706,7.706,0,0,1,.831.685.227.227,0,0,1,.029.3A.234.234,0,0,1,3826.382,591.818Zm-7.821,10.357a.227.227,0,0,1-.32-.019,2.522,2.522,0,0,1-.674-1.691,2.3,2.3,0,0,1,.1-.653.227.227,0,1,1,.435.13,1.854,1.854,0,0,0-.078.524,2.051,2.051,0,0,0,.559,1.389.226.226,0,0,1,.015.282A.221.221,0,0,1,3818.561,602.176Zm2.165-4.057a3.25,3.25,0,0,0-1.945.793.227.227,0,1,1-.3-.339,3.667,3.667,0,0,1,2.226-.908.227.227,0,0,1,.022.454Z" transform="translate(-3817.567 -590.137)" fill="#ee4e5d"/>
            </g>
          </g>
          <g id="Grupo_880021" data-name="Grupo 880021" transform="translate(12.127 24.825)">
            <path id="Trazado_621961" data-name="Trazado 621961" d="M3985.51,923.041a.227.227,0,0,0-.342-.3,4.872,4.872,0,0,1-.863.654.227.227,0,1,0,.232.39,5.322,5.322,0,0,0,.944-.714A.254.254,0,0,0,3985.51,923.041Z" transform="translate(-3984.194 -922.682)" fill="#ee4e5d"/>
          </g>
        </g>
      </g>
      <g id="Grupo_880032" data-name="Grupo 880032" transform="translate(2134.282 261.151)">
        <g id="Grupo_880027" data-name="Grupo 880027" transform="translate(26.53)">
          <g id="Grupo_880024" data-name="Grupo 880024" transform="translate(7.89)">
            <path id="Trazado_621962" data-name="Trazado 621962" d="M3622.23,1727.574l-2.214-6.882h-.869l2.214,6.882Z" transform="translate(-3619.147 -1720.692)" fill="#53b6b9"/>
          </g>
          <g id="Grupo_880025" data-name="Grupo 880025">
            <path id="Trazado_621963" data-name="Trazado 621963" d="M3513.829,1727.574l-2.214-6.882h-.869l2.214,6.882Z" transform="translate(-3510.746 -1720.692)" fill="#53b6b9"/>
          </g>
          <g id="Grupo_880026" data-name="Grupo 880026" transform="translate(1.309 3.121)">
            <path id="Trazado_621964" data-name="Trazado 621964" d="M3537.047,1763.584v.707l-8.176,0-.14-.707Z" transform="translate(-3528.731 -1763.58)" fill="#53b6b9"/>
          </g>
        </g>
        <g id="Grupo_880031" data-name="Grupo 880031" transform="translate(0)">
          <g id="Grupo_880028" data-name="Grupo 880028">
            <path id="Trazado_621965" data-name="Trazado 621965" d="M3147.107,1727.574l2.214-6.882h-.869l-2.214,6.882Z" transform="translate(-3146.238 -1720.692)" fill="#002f4c"/>
          </g>
          <g id="Grupo_880029" data-name="Grupo 880029" transform="translate(7.89)">
            <path id="Trazado_621966" data-name="Trazado 621966" d="M3255.51,1727.574l2.214-6.882h-.869l-2.214,6.882Z" transform="translate(-3254.64 -1720.692)" fill="#002f4c"/>
          </g>
          <g id="Grupo_880030" data-name="Grupo 880030" transform="translate(1.348 3.121)">
            <path id="Trazado_621967" data-name="Trazado 621967" d="M3164.763,1763.584v.707l8.175,0,.14-.707Z" transform="translate(-3164.763 -1763.58)" fill="#002f4c"/>
          </g>
        </g>
        <rect id="Rectángulo_294780" data-name="Rectángulo 294780" width="32.87" height="0.534" transform="translate(2.214 0)" fill="#002f4c"/>
      </g>
      <path id="Trazado_621968" data-name="Trazado 621968" d="M2987.789,529.182l-3.545-37.648a4.087,4.087,0,0,0-4.452-3.686l-41.717,3.928,1.6,17.024a6.9,6.9,0,1,1,1.043,11.076l1.665,17.686,41.717-3.928A4.087,4.087,0,0,0,2987.789,529.182Z" transform="translate(-818.943 -316.408)" fill="#222b5a"/>
      <g id="Grupo_880036" data-name="Grupo 880036" transform="translate(2142.665 215.302)">
        <path id="Trazado_621969" data-name="Trazado 621969" d="M3386.01,1500.174l-.819.142c-.169-1.016-2.718-5.835-2.925-8.338a56.527,56.527,0,0,0-.875-5.872l2.741-.815s.694,0-.068,5.663C3385.777,1493.2,3386.236,1498.309,3386.01,1500.174Z" transform="translate(-3372.657 -1456.575)" fill="#f18c72"/>
        <path id="Trazado_621970" data-name="Trazado 621970" d="M3363.474,1456.993s-.644,3.874-1.539,8.016c.935,2.5-.49,9.483-.516,9.458-.108-.1-.6.506-.6.506s-1.039-6.161-1.269-8.939-.287-6.166-.287-6.166Z" transform="translate(-3352.14 -1430.336)" fill="#f7a57a"/>
        <path id="Trazado_621971" data-name="Trazado 621971" d="M3347.473,1691.72a.914.914,0,0,1,.318.753c-.071.422-.172,1.41-.172,1.41h-.4l.013-.921c0-.06-.861.921-1.006.921H3344.1s-.141-.621,1.105-.821A4.542,4.542,0,0,0,3347.473,1691.72Z" transform="translate(-3338.078 -1647.979)" fill="#002f4c"/>
        <g id="Grupo_880033" data-name="Grupo 880033" transform="translate(10.263 42.706)">
          <path id="Trazado_621972" data-name="Trazado 621972" d="M3423.068,1677.826l.056.879a.818.818,0,0,1-.145.52,3.308,3.308,0,0,1-.638.664c.615.2,1.175-.492,1.468-.951a1.1,1.1,0,0,0,.16-.753l-.1-.692Z" transform="translate(-3420.891 -1677.493)" fill="#f18c72"/>
          <path id="Trazado_621973" data-name="Trazado 621973" d="M3405.509,1688.716s.542.049.631.46.346,1.245.346,1.245l-.3.235-.416-.826a12.275,12.275,0,0,1-1.038,1.266h-2.317s0-.767,1.45-.8C3405.206,1690.263,3405.509,1688.716,3405.509,1688.716Z" transform="translate(-3402.42 -1687.899)" fill="#122043"/>
        </g>
        <path id="Trazado_621974" data-name="Trazado 621974" d="M3274.448,1118.188l2.574,6.724,1.622-1.207-3.624-6.11Z" transform="translate(-3273.499 -1115.64)" fill="#f7a57a"/>
        <g id="Grupo_880034" data-name="Grupo 880034" transform="translate(0 0)">
          <path id="Trazado_621975" data-name="Trazado 621975" d="M3262.677,1091.243a1.046,1.046,0,0,1,.233.71l.114.971-.133.15-.455.4c.016-.2.039,0,.039,0l-.732-1.275s-.885-.568.231-1.405a.321.321,0,0,1,.367-.023A.819.819,0,0,1,3262.677,1091.243Z" transform="translate(-3261.41 -1090.728)" fill="#f7a57a"/>
        </g>
        <path id="Trazado_621976" data-name="Trazado 621976" d="M3377.565,1215.948h1.658l-.662-1.949-1.3.8Z" transform="translate(-3368.832 -1205.026)" fill="#f18c72"/>
        <path id="Trazado_621977" data-name="Trazado 621977" d="M3312.812,1201.635c.008-.049.019-.09.029-.135-1.642-2.118-3.036-3.609-3.036-3.609l1.4-1.589,3.173,3.013.931,0a1.865,1.865,0,0,1,2.356.3,3.307,3.307,0,0,1,.4,2.722,10.154,10.154,0,0,0-.161,5l-4.279,1.6s-.1-2.844-.164-4.839v-.007a2.22,2.22,0,0,0-.348-1.091A1.951,1.951,0,0,1,3312.812,1201.635Z" transform="translate(-3306.283 -1188.617)" fill="#ee4e5d"/>
        <g id="Grupo_880035" data-name="Grupo 880035" transform="translate(7.174 5.469)">
          <path id="Trazado_621978" data-name="Trazado 621978" d="M3360.954,1165.864l2.72.952-.268,2.03c0,.029-.012.056-.017.085-.052.01-.1.019-.156.032l-.025.007-.024.005a1.862,1.862,0,0,0-1.271,1.273,3.209,3.209,0,0,1-1.177-.015,1.177,1.177,0,0,1-.618-.267C3359.542,1168.714,3360.954,1165.864,3360.954,1165.864Z" transform="translate(-3359.978 -1165.864)" fill="#f7a57a"/>
        </g>
        <path id="Trazado_621979" data-name="Trazado 621979" d="M3366.913,1159.037c.732.358.56,4.131.686,6.7a2.921,2.921,0,0,0,2.473,2.731,4.5,4.5,0,0,0,2.675-.183,10.5,10.5,0,0,1-1.979-8.171,3.735,3.735,0,0,0-.88-3.106c-1.1-.985-3.362.3-3.362.3S3365.908,1158.545,3366.913,1159.037Z" transform="translate(-3358.701 -1151.841)" fill="#122043"/>
        <path id="Trazado_621980" data-name="Trazado 621980" d="M3353.781,1346.65a31.77,31.77,0,0,0-.569,4.624c0,.948.232,6.917.232,6.917s4.065.294,4.855.294c.2-4.892,1.311-5.042,1.311-7.324a6.509,6.509,0,0,0-.9-2.826,4.133,4.133,0,0,1-.564-1.586l-.027-.093Z" transform="translate(-3346.53 -1328.024)" fill="#222b5a"/>
        <path id="Trazado_621981" data-name="Trazado 621981" d="M3425.794,1496.646" transform="translate(-3413.83 -1467.103)" fill="#ffc630"/>
      </g>
      <path id="Trazado_621982" data-name="Trazado 621982" d="M2117.321,513.127a6.851,6.851,0,0,0-4.584.054l1.784-12.906a4.087,4.087,0,0,0-3.489-4.608l-37.486-5.182a4.087,4.087,0,0,0-4.609,3.489l-1.909,13.812a6.96,6.96,0,1,0-1.443,10.437l-1.83,13.238a4.087,4.087,0,0,0,3.49,4.608l37.486,5.182a4.087,4.087,0,0,0,4.609-3.489l1.732-12.532a6.783,6.783,0,0,0,2.562,1.154,6.891,6.891,0,0,0,3.688-13.256Z" transform="translate(0 -318.833)" fill="#f1b62b"/>
      <g id="Grupo_880044" data-name="Grupo 880044" transform="translate(2174.188 226.95)">
        <g id="Grupo_880037" data-name="Grupo 880037" transform="translate(3.727 39.794)">
          <path id="Trazado_621983" data-name="Trazado 621983" d="M3748.045,1809.695s-.294.406-1.677.758c-.3.078-.633.13-.633.633h1.365l1.4-.241v.241h.754s.21-1.233-.23-1.391Z" transform="translate(-3745.736 -1808.809)" fill="#122043"/>
          <path id="Trazado_621984" data-name="Trazado 621984" d="M3776.475,1797.528l.072.886h0a.853.853,0,0,0,.923.031l.052-.031v-.886Z" transform="translate(-3774.238 -1797.528)" fill="#f7a57a"/>
        </g>
        <g id="Grupo_880038" data-name="Grupo 880038" transform="translate(10.729 39.97)">
          <path id="Trazado_621985" data-name="Trazado 621985" d="M3844.244,1812.119s-.293.406-1.676.758c-.3.078-.633.13-.633.633h1.365l1.4-.241v.241h.754s.21-1.233-.23-1.391Z" transform="translate(-3841.935 -1811.234)" fill="#122043"/>
          <path id="Trazado_621986" data-name="Trazado 621986" d="M3872.674,1799.953l.072.885h0a.852.852,0,0,0,.924.031l.052-.031v-.885Z" transform="translate(-3870.437 -1799.953)" fill="#f7a57a"/>
        </g>
        <path id="Trazado_621987" data-name="Trazado 621987" d="M3768.831,1474.26l.34,22.243h1.62s2.467-17.958,1.94-22.243S3768.831,1474.26,3768.831,1474.26Z" transform="translate(-3763.423 -1456.229)" fill="#121c4d"/>
        <path id="Trazado_621988" data-name="Trazado 621988" d="M3792.364,1498.455s.564,6.833,1.86,10.615,3.635,11.632,3.635,11.632h1.677s-2.8-16.4-2.16-22.248h-5.012Z" transform="translate(-3785.243 -1480.428)" fill="#222b5a"/>
        <path id="Trazado_621989" data-name="Trazado 621989" d="M3707.309,1342.9s-2,4.657-2.5,4.657c-.406,0,.152-3.8.152-3.8h-1.673s-2.1,6.518-.431,7.709,5.347-3.371,5.347-3.371Z" transform="translate(-3701.648 -1336.196)" fill="#179587"/>
        <path id="Trazado_621990" data-name="Trazado 621990" d="M3818.607,1505.283l-.605,1.5c-.292.588-1.363.6-2.074.416a.148.148,0,0,1-.07-.243,20.5,20.5,0,0,1,1.756-1.772Z" transform="translate(-3806.991 -1486.665)" fill="#f7a57a"/>
        <path id="Trazado_621991" data-name="Trazado 621991" d="M3771.266,1329.447s-1.043.707-1.043,1.518v10.765h6.112v-10.064a2.326,2.326,0,0,0-2.312-2.238C3771.834,1329.428,3771.266,1329.447,3771.266,1329.447Z" transform="translate(-3764.713 -1323.703)" fill="#179587"/>
        <g id="Grupo_880039" data-name="Grupo 880039" transform="translate(5.408 8.363)">
          <path id="Trazado_621992" data-name="Trazado 621992" d="M3769.033,1375.351v-9.668l-.2.007v9.661Z" transform="translate(-3768.831 -1365.683)" fill="#53b6b9"/>
        </g>
        <path id="Trazado_621993" data-name="Trazado 621993" d="M3790.187,1296.662v2.539a1.551,1.551,0,0,1-1.185.579c-.763,0-.763-.55-.763-.55V1297.6l1.129-.294Z" transform="translate(-3781.419 -1293.322)" fill="#f18c72"/>
        <path id="Trazado_621994" data-name="Trazado 621994" d="M3776.147,1263.543a.946.946,0,0,1-.566-.147c-.677-1.079.094-3.988.094-3.988l2.458.441.078,1.949a1.637,1.637,0,0,1-.614,1.345h0A2.626,2.626,0,0,1,3776.147,1263.543Z" transform="translate(-3769.423 -1258.78)" fill="#f7a57a"/>
        <path id="Trazado_621995" data-name="Trazado 621995" d="M3770.836,1251.893a5.254,5.254,0,0,1-1.674,0c-.858-.153-.309-1.1-.309-1.1a3.372,3.372,0,0,0,1.763.123c.762-.113.967-.26,1.455,0,.664.354.5,1.553.5,1.553l-.366,2.537h-.137s-.033-1.509-.033-2.022c-.144-.234-.3-.234-.419-.176a.384.384,0,0,0-.2.349v2.635a6.527,6.527,0,0,1-2.1.592c-.427-.131-.142-2.083-.142-2.083a.785.785,0,0,1,.874.214c.378.423.836-.017.836-.017Z" transform="translate(-3763.283 -1250.773)" fill="#122043"/>
        <path id="Trazado_621996" data-name="Trazado 621996" d="M3721.414,1327.26l.059-.321a2.674,2.674,0,0,1,1.495-1.828h.71l-.22,1.517-1,.632Z" transform="translate(-3719.457 -1319.701)" fill="#f7a57a"/>
        <path id="Trazado_621997" data-name="Trazado 621997" d="M3806.761,1277.848a.428.428,0,0,0-.4.4.369.369,0,0,0,.278.46.429.429,0,0,0,.4-.4A.369.369,0,0,0,3806.761,1277.848Z" transform="translate(-3798.211 -1275.876)" fill="#f7a57a"/>
        <path id="Trazado_621998" data-name="Trazado 621998" d="M3727.857,1336.884l-1.383.8s.868-.009.882,0l1.464-1.225s-.106-.214-.438-.033A1.683,1.683,0,0,0,3727.857,1336.884Z" transform="translate(-3724.149 -1330.125)" fill="#f7a57a"/>
        <path id="Trazado_621999" data-name="Trazado 621999" d="M3819.108,1338.684s3.455,3.838,3.455,6.139-2.8,6.356-2.8,6.356l-1.385-.406a53.009,53.009,0,0,0,1.25-6.353c0-1.335-2.568-3.292-2.568-3.292" transform="translate(-3808.137 -1332.286)" fill="#179587"/>
        <g id="Grupo_880040" data-name="Grupo 880040" transform="translate(8.857 8.762)">
          <path id="Trazado_622000" data-name="Trazado 622000" d="M3818.738,1374.538a51.958,51.958,0,0,1-1.256,6.33l.205.052a51.619,51.619,0,0,0,1.254-6.381c0-1.369-2.5-3.291-2.608-3.372l-.123.161C3816.235,1371.346,3818.738,1373.269,3818.738,1374.538Z" transform="translate(-3816.21 -1371.166)" fill="#53b6b9"/>
        </g>
        <g id="Grupo_880043" data-name="Grupo 880043" transform="translate(0 1.291)">
          <path id="Trazado_622001" data-name="Trazado 622001" d="M3736.814,1308.846a3.665,3.665,0,0,1-.633,2.681.4.4,0,0,1-.259.144,1.018,1.018,0,0,1-.478-.079.445.445,0,0,1-.289-.207.193.193,0,0,1,.02-.2,2.717,2.717,0,0,0,.5-2.075A1.5,1.5,0,0,1,3736.814,1308.846Z" transform="translate(-3732.179 -1305.891)" fill="#f4872e"/>
          <path id="Trazado_622002" data-name="Trazado 622002" d="M3735.317,1311.978a.3.3,0,0,1-.162-.156.193.193,0,0,1,.02-.2,2.717,2.717,0,0,0,.5-2.075,1.267,1.267,0,0,1,.543-.25A4.136,4.136,0,0,1,3735.317,1311.978Z" transform="translate(-3732.179 -1306.329)" fill="#fda630"/>
          <g id="Grupo_880042" data-name="Grupo 880042" transform="translate(3.42 3.749)">
            <g id="Grupo_880041" data-name="Grupo 880041" transform="translate(0.071 0.001)">
              <path id="Trazado_622003" data-name="Trazado 622003" d="M3742.819,1320.643c-.044.213-.147.371-.231.354s-.116-.2-.073-.417.147-.371.231-.354S3742.863,1320.43,3742.819,1320.643Z" transform="translate(-3742.497 -1320.212)" fill="#f4872e"/>
              <path id="Trazado_622004" data-name="Trazado 622004" d="M3745.042,1320.063l-.088-.021.007.044.059.023Z" transform="translate(-3744.775 -1320.042)" fill="#f4872e"/>
              <path id="Trazado_622005" data-name="Trazado 622005" d="M3742.675,1330.352l-.107-.021.121-.018Z" transform="translate(-3742.563 -1329.566)" fill="#de1d4c"/>
            </g>
            <path id="Trazado_622006" data-name="Trazado 622006" d="M3741.839,1320.442c-.043.213-.147.371-.23.354s-.116-.2-.072-.417.147-.371.23-.354S3741.883,1320.229,3741.839,1320.442Z" transform="translate(-3741.517 -1320.025)" fill="#ffc630"/>
          </g>
          <path id="Trazado_622007" data-name="Trazado 622007" d="M3763.321,1291.9h.164a.558.558,0,0,1,.569.542v.431a.558.558,0,0,1-.569.542h-.164Z" transform="translate(-3758.314 -1290.199)" fill="#ffc630"/>
          <path id="Trazado_622008" data-name="Trazado 622008" d="M3694.522,1270.643c0,1.176.271,2.129.6,2.129s.6-.953.6-2.129-.27-2.129-.6-2.129S3694.522,1269.467,3694.522,1270.643Z" transform="translate(-3694.522 -1268.514)" fill="#122043"/>
          <path id="Trazado_622009" data-name="Trazado 622009" d="M3705.4,1286.984l-.477.31v.689l.492.446.17-.9Z" transform="translate(-3704.164 -1285.639)" fill="#fff"/>
          <path id="Trazado_622010" data-name="Trazado 622010" d="M3705.371,1271.546a3.461,3.461,0,0,0-.45-2.056h0a9.731,9.731,0,0,0,4.344,1.646v1.5s-3.17-.178-4.344.967h0A3.453,3.453,0,0,0,3705.371,1271.546Z" transform="translate(-3704.163 -1269.417)" fill="#f99200"/>
          <path id="Trazado_622011" data-name="Trazado 622011" d="M3704.025,1291.553c0,.191.029.346.065.346s.065-.155.065-.346-.029-.346-.065-.346S3704.025,1291.362,3704.025,1291.553Z" transform="translate(-3703.333 -1289.555)" fill="#ffc630"/>
        </g>
        <path id="Trazado_622012" data-name="Trazado 622012" d="M3731.976,1326.555a1.635,1.635,0,0,0,.773.126c.4,0,.583-.494.652-.763.024-.094.046-.229-.073-.289l-.646-.09Z" transform="translate(-3729.25 -1320.098)" fill="#f7a57a"/>
      </g>
    </g>
  </g>
</svg>
