<svg id="Grupo_881608" data-name="Grupo 881608" xmlns="http://www.w3.org/2000/svg" width="74.406" height="92.204" viewBox="0 0 74.406 92.204">
  <path id="Trazado_624631" data-name="Trazado 624631" d="M504.248,189.107a7.356,7.356,0,0,1,1.293,5.326s4.088,2.509,2.075-6.5Z" transform="translate(-444.371 -108.289)" fill="#aa9981"/>
  <path id="Trazado_624632" data-name="Trazado 624632" d="M485.331,179.157a6.356,6.356,0,0,0-5.461.479s-3.68-3.654,5.5-4.662Z" transform="translate(-479.142 -126.24)" fill="#ddcbb1"/>
  <path id="Trazado_624633" data-name="Trazado 624633" d="M498.167,190.723a7.347,7.347,0,0,1-.26,5.473s3.215,3.561,3.823-5.648Z" transform="translate(-453.153 -104.67)" fill="#ddcbb1"/>
  <path id="Trazado_624634" data-name="Trazado 624634" d="M489.663,167.212c-9.49,7.908-14.679,29.206,4.994,44.641s35.712,24.212,54.929,1.362C558.99,202.034,504.189,155.106,489.663,167.212Z" transform="translate(-476.258 -139.73)" fill="#ceb799"/>
  <path id="Trazado_624635" data-name="Trazado 624635" d="M489.657,167.212c-7.565,6.306-12.382,21.116-4.064,34.684.913.856,1.879,1.7,2.933,2.528,19.671,15.435,35.712,24.212,54.929,1.362,2.368-2.814.663-7.894-3.441-13.728C525.175,176.173,499.032,159.4,489.657,167.212Z" transform="translate(-476.252 -139.73)" fill="#ddcbb1"/>
  <path id="Trazado_624636" data-name="Trazado 624636" d="M524.9,180.387c-16.675-12.354-34.414-17.949-39.625-12.5s4.085,19.888,20.761,32.242,28.838,19.716,38.848,12.561C550.992,208.326,541.576,192.743,524.9,180.387Z" transform="translate(-472.651 -138.943)" fill="#ddcbb1"/>
  <path id="Trazado_624637" data-name="Trazado 624637" d="M521.96,181.777c-15.2-12.33-31.183-18.712-35.709-14.257s4.121,18.063,19.315,30.393,26.241,19.85,35.018,14.25C545.938,208.748,537.154,194.107,521.96,181.777Z" transform="translate(-470.962 -138.528)" fill="#aa9981"/>
  <path id="Trazado_624638" data-name="Trazado 624638" d="M509.847,195.178a114.8,114.8,0,0,1-9.695-26.8c-6.485-2.6-11.634-3.086-13.9-.854-4.527,4.455,4.121,18.063,19.315,30.393,3.632,2.945,7.024,5.614,10.207,7.9C513.705,202.471,511.714,198.917,509.847,195.178Z" transform="translate(-470.962 -138.528)" fill="#917c63"/>
  <g id="Grupo_881581" data-name="Grupo 881581" transform="translate(14.399)">
    <path id="Trazado_624639" data-name="Trazado 624639" d="M485.947,183.293l-.768-.706c17.064-18.6,24.925-31.025,37.405-27.427l-.4,2.249C510.421,154.013,502.761,164.967,485.947,183.293Z" transform="translate(-485.179 -154.54)" fill="#ddcbb1"/>
    <path id="Trazado_624640" data-name="Trazado 624640" d="M508.515,158.107c-.126-1.2-2.745-3.532-5.411-3.246s-4.369,3.077-4.24,4.276,2.392,1.939,5.058,1.655S508.643,159.3,508.515,158.107Z" transform="translate(-466.237 -154.128)" fill="#ddcbb1"/>
  </g>
  <path id="Trazado_624641" data-name="Trazado 624641" d="M487.567,169.323c.656-1.309.875-2.526.489-2.719s-1.231.708-1.886,2.018-.875,2.526-.489,2.719S486.911,170.63,487.567,169.323Z" transform="translate(-470.349 -137.868)" fill="#ceb799"/>
</svg>
