<svg id="Grupo_881610" data-name="Grupo 881610" xmlns="http://www.w3.org/2000/svg" width="159.123" height="95.813" viewBox="0 0 159.123 95.813">
  <path id="Trazado_624724" data-name="Trazado 624724" d="M496.724,136.811c-22.051-17.768-56.663-27.794-57.939-26.3s4.87,4.262,4.87,4.262c-6.959-2.421-40.975-5.912-39.284-2.373,1.681,3.523,25.418,7.138,27.224,11.025,1.793,3.868-3.72,8.051,2.039,6.993s44.064,14.97,49.985,20.787c5.881,5.781,32.094,25.189,49.685,24.689a55.7,55.7,0,0,0-6.5-10.551C522.839,160.419,518.357,154.242,496.724,136.811Z" transform="translate(-404.309 -110.366)" fill="#bfcc46"/>
  <path id="Trazado_624725" data-name="Trazado 624725" d="M501.088,149.315c-36.32-26.065-74.774-40.973-95.573-38.378-.94.243-1.376.594-1.145,1.076,1.681,3.523,25.418,7.138,27.224,11.025,1.793,3.868-3.72,8.051,2.039,6.993S477.7,145,483.619,150.818c5.757,5.659,31,24.371,48.552,24.681A247.933,247.933,0,0,0,501.088,149.315Z" transform="translate(-404.309 -109.977)" fill="#afb535"/>
  <path id="Trazado_624726" data-name="Trazado 624726" d="M432.288,119.281l.742-.46c22.964,14.369,52.676,33.06,90.725,72.146l.93,3.5C488.851,157.552,458.734,135.973,432.288,119.281Z" transform="translate(-365.561 -98.655)" fill="#7a5252"/>
  <g id="Grupo_881594" data-name="Grupo 881594" transform="translate(96.245 49.209)">
    <path id="Trazado_624727" data-name="Trazado 624727" d="M469.294,141.481c-10.179-7.567-24.484-9.828-24.629-9.85l.1-.632c.146.021,14.6,2.306,24.913,9.969Z" transform="translate(-444.665 -130.999)" fill="#7a5252"/>
  </g>
  <g id="Grupo_881595" data-name="Grupo 881595" transform="translate(100.273 35.126)">
    <path id="Trazado_624728" data-name="Trazado 624728" d="M451.646,137.534c-1.355-1.4-4.472-8.636-5.292-12.3l.622-.141c.847,3.768,3.952,10.785,5.128,12Z" transform="translate(-446.354 -125.094)" fill="#7a5252"/>
  </g>
  <g id="Grupo_881596" data-name="Grupo 881596" transform="translate(76.013 35.722)">
    <path id="Trazado_624729" data-name="Trazado 624729" d="M453.625,127.872a43.114,43.114,0,0,0-17.267-1.615l-.177-.611a43.264,43.264,0,0,1,17.751,1.712Z" transform="translate(-436.182 -125.344)" fill="#7a5252"/>
  </g>
  <g id="Grupo_881597" data-name="Grupo 881597" transform="translate(54.938 21.613)">
    <path id="Trazado_624730" data-name="Trazado 624730" d="M444.786,121.954a43.163,43.163,0,0,0-17.267-1.615l-.174-.608a43.212,43.212,0,0,1,17.749,1.712Z" transform="translate(-427.345 -119.428)" fill="#7a5252"/>
  </g>
  <g id="Grupo_881598" data-name="Grupo 881598" transform="translate(73.998 20.008)">
    <path id="Trazado_624731" data-name="Trazado 624731" d="M439.27,126.554c-1.991-2.49-3.854-7.493-3.933-7.706l.656-.093c.019.05,1.894,5.085,3.792,7.458Z" transform="translate(-435.337 -118.755)" fill="#7a5252"/>
  </g>
</svg>
