<svg id="Grupo_881609" data-name="Grupo 881609" xmlns="http://www.w3.org/2000/svg" width="136.797" height="111.824" viewBox="0 0 136.797 111.824">
  <path id="Trazado_624732" data-name="Trazado 624732" d="M487.841,212.311c-22.6-6.089-42.2-28.414-48.225-41.6s-25.211-24.352-38.19-23.542S368.908,129.1,368.908,129.1s22.869,9.54,33.577,8.524c10.525-1,16.034-8.421,5.578-13.141,0,0,19.351.611,36.463,21.607,14.82,18.183,17.83,19.008,26.05,25.628C486.7,184.711,487.841,212.311,487.841,212.311Z" transform="translate(-368.908 -124.487)" fill="#bfcc46"/>
  <path id="Trazado_624733" data-name="Trazado 624733" d="M468.349,188.951c-11.9-15.309-20.968-28.75-21.572-40.121-.72-.868-1.467-1.772-2.251-2.735-17.112-21-36.463-21.607-36.463-21.607,10.455,4.72,4.946,12.144-5.578,13.141-10.708,1.016-33.577-8.524-33.577-8.524s19.537,18.874,32.518,18.061,32.168,10.351,38.19,23.542c5.9,12.912,24.806,34.565,46.8,41.187C479.644,206.733,474.76,197.2,468.349,188.951Z" transform="translate(-368.908 -124.487)" fill="#afb535"/>
  <path id="Trazado_624734" data-name="Trazado 624734" d="M396.91,132.851l-.445.65L462.84,222.87l4.7,1.857Z" transform="translate(-330.743 -112.903)" fill="#7a5252"/>
  <g id="Grupo_881600" data-name="Grupo 881600" transform="translate(89.656 66.859)">
    <path id="Trazado_624735" data-name="Trazado 624735" d="M428.564,168.481c-8.519-9.356-21.929-15.392-22.063-15.452l.2-.508c.134.06,13.687,6.158,22.316,15.633Z" transform="translate(-406.501 -152.521)" fill="#7a5252"/>
  </g>
  <g id="Grupo_881601" data-name="Grupo 881601" transform="translate(92.873 48.318)">
    <path id="Trazado_624736" data-name="Trazado 624736" d="M410.841,156.717c-1.066-1.574-2.829-8.624-2.991-11.97l.625.06c.167,3.444,1.958,10.3,2.886,11.665Z" transform="translate(-407.85 -144.747)" fill="#7a5252"/>
  </g>
  <g id="Grupo_881602" data-name="Grupo 881602" transform="translate(69.773 41.328)">
    <path id="Trazado_624737" data-name="Trazado 624737" d="M414.119,146.674a42.805,42.805,0,0,0-15.891-4.286l-.064-.572a42.92,42.92,0,0,1,16.327,4.453Z" transform="translate(-398.164 -141.816)" fill="#7a5252"/>
  </g>
  <g id="Grupo_881603" data-name="Grupo 881603" transform="translate(73.634 24.808)">
    <path id="Trazado_624738" data-name="Trazado 624738" d="M400.639,141.514c-.928-2.318-.859-6.451-.854-6.625l.625.1c0,.041-.069,4.2.813,6.408Z" transform="translate(-399.783 -134.889)" fill="#7a5252"/>
  </g>
</svg>
