<svg xmlns="http://www.w3.org/2000/svg" width="141" height="141" viewBox="0 0 141 141">
  <g id="Grupo_880457" data-name="Grupo 880457" transform="translate(-1150 -3294)">
    <g id="Grupo_880446" data-name="Grupo 880446" transform="translate(662 691)">
      <ellipse id="Elipse_5195" data-name="Elipse 5195" cx="70.5" cy="70.5" rx="70.5" ry="70.5" transform="translate(488 2603)" fill="#179587"/>
    </g>
    <g id="productividad" transform="translate(1162.376 3307.057)">
      <g id="Grupo_880449" data-name="Grupo 880449" transform="translate(5.276 5.863)">
        <path id="Trazado_622631" data-name="Trazado 622631" d="M57.329,110.739l-2.117-.57a7.782,7.782,0,0,1-5.474-5.474l-.57-2.117a.914.914,0,0,0-1.764,0l-.57,2.117a7.782,7.782,0,0,1-5.473,5.474l-2.118.57a.914.914,0,0,0,0,1.764l2.118.571a7.779,7.779,0,0,1,5.473,5.473l.57,2.117a.914.914,0,0,0,1.764,0l.57-2.117a7.782,7.782,0,0,1,5.474-5.474l2.117-.571a.914.914,0,0,0,0-1.764Z" transform="translate(-8.487 -14.526)" fill="#137b70"/>
        <path id="Trazado_622632" data-name="Trazado 622632" d="M75.107,101.8l-1.535-.414a5.386,5.386,0,0,1-3.789-3.79l-.414-1.535a.914.914,0,0,0-1.764,0L67.192,97.6a5.388,5.388,0,0,1-3.789,3.789l-1.535.414a.914.914,0,0,0,0,1.764l1.535.414a5.386,5.386,0,0,1,3.789,3.789L67.6,109.3a.914.914,0,0,0,1.764,0l.414-1.535a5.388,5.388,0,0,1,3.789-3.789l1.535-.414a.913.913,0,0,0,0-1.763Z" transform="translate(-10.452 -13.959)" fill="#137b70"/>
        <path id="Trazado_622633" data-name="Trazado 622633" d="M123.514,53.7l-1.28-.344a4.345,4.345,0,0,1-3.058-3.058l-.345-1.281a.914.914,0,0,0-1.764,0l-.345,1.281a4.344,4.344,0,0,1-3.057,3.057l-1.281.344a.914.914,0,0,0,0,1.764l1.281.345a4.345,4.345,0,0,1,3.057,3.058l.345,1.281a.914.914,0,0,0,1.764,0l.345-1.281a4.348,4.348,0,0,1,3.058-3.058l1.28-.345a.913.913,0,0,0,0-1.763Z" transform="translate(-14.842 -9.872)" fill="#137b70"/>
      </g>
      <g id="Grupo_880456" data-name="Grupo 880456" transform="translate(1.624 2.21)">
        <g id="Grupo_880451" data-name="Grupo 880451" transform="translate(0.912 0.914)">
          <g id="Grupo_880450" data-name="Grupo 880450">
            <circle id="Elipse_5380" data-name="Elipse 5380" cx="20.139" cy="20.139" r="20.139" transform="translate(14.135 50.937) rotate(-66.049)" fill="#e8e8e8"/>
            <path id="Trazado_622635" data-name="Trazado 622635" d="M84.05,48.2V39.652a2.379,2.379,0,0,0-2.379-2.379H75.923A33.064,33.064,0,0,0,71.076,25.59l4.071-4.071a2.379,2.379,0,0,0,0-3.365l-6.041-6.04a2.38,2.38,0,0,0-3.365,0L61.67,16.185a33.047,33.047,0,0,0-11.683-4.847V5.59a2.378,2.378,0,0,0-2.379-2.379H39.065A2.378,2.378,0,0,0,36.687,5.59v5.749A33.064,33.064,0,0,0,25,16.185l-4.071-4.071a2.379,2.379,0,0,0-3.365,0l-6.04,6.04a2.379,2.379,0,0,0,0,3.365L15.6,25.59a33.064,33.064,0,0,0-4.847,11.683H5a2.379,2.379,0,0,0-2.379,2.379V48.2A2.379,2.379,0,0,0,5,50.574h5.749A33.064,33.064,0,0,0,15.6,62.257l-4.071,4.071a2.38,2.38,0,0,0,0,3.365l6.041,6.041a2.38,2.38,0,0,0,3.365,0L25,71.663A33.047,33.047,0,0,0,36.687,76.51v5.749a2.378,2.378,0,0,0,2.379,2.379h8.543a2.378,2.378,0,0,0,2.379-2.379V76.51A33.064,33.064,0,0,0,61.67,71.663l4.071,4.071a2.38,2.38,0,0,0,3.365,0l6.04-6.041a2.379,2.379,0,0,0,0-3.365l-4.071-4.071a33.047,33.047,0,0,0,4.847-11.683h5.749A2.378,2.378,0,0,0,84.05,48.2ZM43.337,64.062A20.139,20.139,0,1,1,63.475,43.924,20.139,20.139,0,0,1,43.337,64.062Z" transform="translate(-2.623 -3.211)" fill="#222b5a"/>
          </g>
          <path id="Trazado_622636" data-name="Trazado 622636" d="M105.823,38.235l2.824-18.759L89.724,18.134l4.65,5.807L61.116,50.892,42.3,35.165a5.273,5.273,0,0,0-6.693-.058L25.236,43.484c-.049.573-.079,1.151-.079,1.738a20.035,20.035,0,0,0,2.555,9.815l11.153-9L57.684,61.765a5.269,5.269,0,0,0,6.7.051l36.583-29.645Z" transform="translate(-4.581 -4.508)" fill="#ee4e5d"/>
        </g>
        <g id="Grupo_880453" data-name="Grupo 880453" transform="translate(57.12 41.068)">
          <g id="Grupo_880452" data-name="Grupo 880452" transform="translate(15.025 53.406)">
            <path id="Trazado_622637" data-name="Trazado 622637" d="M92.919,113.979H83.374a2.739,2.739,0,0,1-2.739-2.739v-5.565H95.659v5.565A2.741,2.741,0,0,1,92.919,113.979Z" transform="translate(-80.635 -105.674)" fill="#6dc9f7"/>
          </g>
          <path id="Trazado_622638" data-name="Trazado 622638" d="M109.253,69.723A22.551,22.551,0,0,0,83.047,47.476,22.516,22.516,0,0,0,70.419,85.255a30.819,30.819,0,0,1,5.548,8.373l3.237,6.964H94.229l3.438-7.4a30.2,30.2,0,0,1,5.431-8.03,22.4,22.4,0,0,0,6.155-15.443Z" transform="translate(-64.18 -47.186)" fill="#f1b62b"/>
          <path id="Trazado_622639" data-name="Trazado 622639" d="M88.426,119.354a4.584,4.584,0,0,0,4.584-4.584H83.842A4.584,4.584,0,0,0,88.426,119.354Z" transform="translate(-65.888 -53.059)" fill="#6dc9f7"/>
        </g>
        <path id="Trazado_622640" data-name="Trazado 622640" d="M37.685,107.138l-2.118.57,2.118.57A8.668,8.668,0,0,1,43.8,114.4l.57,2.118.57-2.118a8.668,8.668,0,0,1,6.118-6.118l2.118-.57-2.118-.57a8.668,8.668,0,0,1-6.118-6.118l-.57-2.118-.57,2.118A8.67,8.67,0,0,1,37.685,107.138Z" transform="translate(-4.573 -10.612)" fill="#ffd7e5"/>
        <path id="Trazado_622641" data-name="Trazado 622641" d="M59.726,98.356l-1.535.414,1.535.414a6.285,6.285,0,0,1,4.435,4.435l.414,1.535.414-1.535a6.285,6.285,0,0,1,4.435-4.435l1.535-.414-1.535-.414a6.285,6.285,0,0,1-4.435-4.435l-.414-1.535-.414,1.535a6.285,6.285,0,0,1-4.435,4.435Z" transform="translate(-6.539 -10.045)" fill="#ffd7e5"/>
        <g id="Grupo_880455" data-name="Grupo 880455">
          <path id="Trazado_622642" data-name="Trazado 622642" d="M109.988,50.323l-1.281.345,1.281.345a5.246,5.246,0,0,1,3.7,3.7L114.035,56l.345-1.281a5.246,5.246,0,0,1,3.7-3.7l1.281-.345-1.281-.345a5.246,5.246,0,0,1-3.7-3.7l-.345-1.281-.345,1.281A5.244,5.244,0,0,1,109.988,50.323Z" transform="translate(-10.928 -5.958)" fill="#ffd7e5"/>
          <g id="Grupo_880454" data-name="Grupo 880454">
            <path id="Trazado_622643" data-name="Trazado 622643" d="M48.961,54.834a.913.913,0,1,0-1.172,1.4l4.243,3.547a.913.913,0,1,0,1.172-1.4Z" transform="translate(-5.607 -6.764)" fill="#3a2c60"/>
            <path id="Trazado_622644" data-name="Trazado 622644" d="M96.508,47.981a23.382,23.382,0,0,0-10.936-5.2l13.21-10.705,4.283,5.348a.913.913,0,0,0,1.615-.435L107.5,18.229a.915.915,0,0,0-.839-1.047L87.742,15.839a.936.936,0,0,0-.873.487.91.91,0,0,0,.1.994l4.083,5.1L76.1,34.535a33.752,33.752,0,0,0-3.944-8.907l3.55-3.549a3.3,3.3,0,0,0,0-4.656l-6.041-6.04a3.3,3.3,0,0,0-4.656,0l-3.549,3.548a33.78,33.78,0,0,0-10.646-4.417V5.5A3.3,3.3,0,0,0,47.521,2.21H38.979A3.3,3.3,0,0,0,35.688,5.5v5.011A33.823,33.823,0,0,0,25.042,14.93l-3.549-3.548a3.3,3.3,0,0,0-4.656,0l-6.04,6.04a3.3,3.3,0,0,0,0,4.656l3.549,3.549A33.84,33.84,0,0,0,9.927,36.273H4.916a3.3,3.3,0,0,0-3.292,3.292v8.543A3.3,3.3,0,0,0,4.916,51.4h5.01a33.848,33.848,0,0,0,4.419,10.646L10.8,65.594a3.3,3.3,0,0,0,0,4.656l6.04,6.041a3.3,3.3,0,0,0,4.656,0l3.549-3.548A33.819,33.819,0,0,0,35.687,77.16v5.011a3.3,3.3,0,0,0,3.292,3.292h8.542a3.3,3.3,0,0,0,3.292-3.292V77.16a33.728,33.728,0,0,0,8.5-3.193,23.363,23.363,0,0,0,5.013,8.01A29.965,29.965,0,0,1,69.7,90.1l3.152,6.782v5.825a3.186,3.186,0,0,0,3.008,3.172,5.489,5.489,0,0,0,10.834,0,3.186,3.186,0,0,0,3.008-3.172V96.886l3.353-7.214a29.234,29.234,0,0,1,5.267-7.788,23.409,23.409,0,0,0-1.817-33.9ZM93.043,21.987,89.7,17.809l15.854,1.125-2.366,15.718-3.553-4.436a.908.908,0,0,0-.615-.337.9.9,0,0,0-.673.2L83.075,42.452a24,24,0,0,0-5.606.215A23.042,23.042,0,0,0,58.406,60.629a4.267,4.267,0,0,1-2.183-.949L51.935,56.1a.913.913,0,1,0-1.172,1.4l2.923,2.443a19.108,19.108,0,0,1-26.814-6.086l9.938-8.023L41,49.333a.913.913,0,1,0,1.172-1.4l-4.766-3.983a.912.912,0,0,0-1.16-.01L25.978,52.228a19.071,19.071,0,0,1-1.954-8.39c0-.436.037-.861.066-1.289l10.05-8.113a4.369,4.369,0,0,1,5.534.047L58.487,50.211a.913.913,0,0,0,1.161.009L92.907,23.269a.916.916,0,0,0,.136-1.282ZM62.368,45.662l-3.287,2.664L40.845,33.08a6.2,6.2,0,0,0-7.853-.068l-8.567,6.916a19.225,19.225,0,0,1,38.049,3.908,16.966,16.966,0,0,1-.107,1.825ZM49.718,75.528a.913.913,0,0,0-.731.895v5.749a1.468,1.468,0,0,1-1.466,1.466H38.979a1.467,1.467,0,0,1-1.466-1.466V76.423a.913.913,0,0,0-.731-.895,32.047,32.047,0,0,1-11.361-4.713.913.913,0,0,0-1.15.116L20.2,75a1.469,1.469,0,0,1-2.074,0l-6.04-6.041a1.468,1.468,0,0,1,0-2.074l4.071-4.071a.913.913,0,0,0,.116-1.15A32.033,32.033,0,0,1,11.56,50.305a.914.914,0,0,0-.895-.731H4.916A1.467,1.467,0,0,1,3.45,48.108V39.565A1.467,1.467,0,0,1,4.916,38.1h5.749a.911.911,0,0,0,.894-.731,32.033,32.033,0,0,1,4.714-11.36.913.913,0,0,0-.116-1.15l-4.071-4.071a1.468,1.468,0,0,1,0-2.074l6.04-6.04a1.467,1.467,0,0,1,2.074,0l4.071,4.071a.914.914,0,0,0,1.15.116,32.04,32.04,0,0,1,11.361-4.713.913.913,0,0,0,.731-.895V5.5a1.468,1.468,0,0,1,1.466-1.466h8.542A1.467,1.467,0,0,1,48.986,5.5v5.749a.913.913,0,0,0,.731.895,32.04,32.04,0,0,1,11.361,4.713.914.914,0,0,0,1.15-.116L66.3,12.672a1.468,1.468,0,0,1,2.074,0l6.041,6.04a1.47,1.47,0,0,1,0,2.074l-4.072,4.071a.913.913,0,0,0-.116,1.15A32,32,0,0,1,74.56,35.78L64.291,44.1c0-.089.01-.177.01-.267A21.116,21.116,0,1,0,55.166,61.16a6.139,6.139,0,0,0,2.919,1.275c-.023.165-.059.325-.079.492a23.629,23.629,0,0,0,.731,9.29,31.919,31.919,0,0,1-9.019,3.311Zm28.367-1.3H73.761a2.983,2.983,0,0,1-2.98-2.979,3.652,3.652,0,0,1,7.3,0Zm4.566,1.826V95.772H79.911V76.056ZM87.881,97.6v2.326h-13.2V97.6Zm-6.6,11.062a3.678,3.678,0,0,1-3.556-2.758h7.111a3.676,3.676,0,0,1-3.556,2.758Zm5.236-4.584H76.047a1.365,1.365,0,0,1-1.364-1.364v-.962h13.2v.962A1.366,1.366,0,0,1,86.517,104.077ZM97,80.631A31.069,31.069,0,0,0,91.4,88.9l-3.191,6.868H84.477V76.056H88.8a4.812,4.812,0,0,0,4.806-4.806,5.479,5.479,0,0,0-10.957,0V74.23H79.911V71.25a5.479,5.479,0,0,0-10.957,0,4.811,4.811,0,0,0,4.807,4.806h4.324V95.772H74.351l-2.99-6.436a31.788,31.788,0,0,0-5.716-8.62,21.607,21.607,0,0,1-5.826-17.572A21.277,21.277,0,0,1,77.755,44.471,21.637,21.637,0,0,1,102.9,65.814,21.484,21.484,0,0,1,97,80.631Zm-12.522-6.4V71.25a3.652,3.652,0,0,1,7.3,0A2.983,2.983,0,0,1,88.8,74.23Z" transform="translate(-1.624 -2.21)" fill="#3a2c60"/>
            <path id="Trazado_622645" data-name="Trazado 622645" d="M53.329,106.74l-2.117-.571a7.781,7.781,0,0,1-5.474-5.473l-.57-2.118a.914.914,0,0,0-1.764,0l-.57,2.117a7.781,7.781,0,0,1-5.473,5.474l-2.118.571a.914.914,0,0,0,0,1.764l2.118.57a7.781,7.781,0,0,1,5.473,5.474l.57,2.117a.914.914,0,0,0,1.764,0l.57-2.117a7.783,7.783,0,0,1,5.474-5.474l2.117-.57a.914.914,0,0,0,0-1.764Zm-9.043,6.378a9.629,9.629,0,0,0-5.5-5.5,9.629,9.629,0,0,0,5.5-5.5,9.631,9.631,0,0,0,5.5,5.5A9.628,9.628,0,0,0,44.286,113.118Z" transform="translate(-4.487 -10.525)" fill="#3a2c60"/>
            <path id="Trazado_622646" data-name="Trazado 622646" d="M71.107,97.8l-1.535-.413a5.388,5.388,0,0,1-3.789-3.79l-.414-1.535a.914.914,0,0,0-1.764,0L63.192,93.6a5.391,5.391,0,0,1-3.789,3.79l-1.535.413a.914.914,0,0,0,0,1.764l1.535.414a5.386,5.386,0,0,1,3.789,3.789L63.6,105.3a.914.914,0,0,0,1.764,0l.414-1.535a5.388,5.388,0,0,1,3.789-3.789l1.535-.414a.914.914,0,0,0,0-1.764Zm-6.62,4.237a7.232,7.232,0,0,0-3.354-3.355,7.236,7.236,0,0,0,3.354-3.355,7.238,7.238,0,0,0,3.355,3.355A7.234,7.234,0,0,0,64.487,102.037Z" transform="translate(-6.452 -9.959)" fill="#3a2c60"/>
            <path id="Trazado_622647" data-name="Trazado 622647" d="M119.514,49.7l-1.28-.345a4.345,4.345,0,0,1-3.058-3.058l-.345-1.281a.913.913,0,0,0-1.764,0l-.344,1.28a4.347,4.347,0,0,1-3.058,3.058l-1.281.345a.914.914,0,0,0,0,1.764l1.281.344a4.349,4.349,0,0,1,3.058,3.057l.344,1.281a.913.913,0,0,0,1.764,0l.345-1.282a4.345,4.345,0,0,1,3.058-3.057l1.28-.344a.914.914,0,0,0,0-1.764Zm-5.565,3.352a6.194,6.194,0,0,0-2.47-2.47,6.191,6.191,0,0,0,2.47-2.471,6.2,6.2,0,0,0,2.471,2.471,6.191,6.191,0,0,0-2.471,2.47Z" transform="translate(-10.842 -5.871)" fill="#3a2c60"/>
          </g>
        </g>
      </g>
    </g>
  </g>
</svg>
