<svg xmlns="http://www.w3.org/2000/svg" width="70.388" height="84.283" viewBox="0 0 70.388 84.283">
  <g id="cuidado" transform="translate(-42.204)">
    <g id="Grupo_879945" data-name="Grupo 879945" transform="translate(43.44 1.235)">
      <path id="Trazado_621349" data-name="Trazado 621349" d="M201.746,39.436h2.97v-2.97a7.135,7.135,0,0,0-7.135-7.135h-2.311a.659.659,0,0,0-.658.658V32.3A7.135,7.135,0,0,0,201.746,39.436Z" transform="translate(-170.758 -25.737)" fill="#fff"/>
      <g id="Grupo_879942" data-name="Grupo 879942" transform="translate(33.958)">
        <path id="Trazado_621350" data-name="Trazado 621350" d="M258.964,17.6h-2.97v-2.97A7.135,7.135,0,0,1,263.129,7.5h2.311a.659.659,0,0,1,.659.658V10.47A7.135,7.135,0,0,1,258.964,17.6Z" transform="translate(-255.994 -7.5)" fill="#fff"/>
      </g>
      <g id="Grupo_879944" data-name="Grupo 879944" transform="translate(3.657 18.206)">
        <path id="Trazado_621355" data-name="Trazado 621355" d="M337.194,155.04a18.69,18.69,0,0,0,4.53-1.3,30.347,30.347,0,0,0-18.848-23.1A30.281,30.281,0,0,1,337.194,155.04Z" transform="translate(-281.565 -128.579)" fill="#fff"/>
        <path id="Trazado_621356" data-name="Trazado 621356" d="M84.51,201.34c-.95-3.067-3.557-5.921-6.735-7.826a30.276,30.276,0,0,0,2.446,38.7c3.8-2.527,6.525-6.595,6.783-10.243.172-2.426-.889-2.656-1.814-7.482C83.806,207.264,85.664,205.065,84.51,201.34Z" transform="translate(-71.928 -181.099)" fill="#fff"/>
        <path id="Trazado_621358" data-name="Trazado 621358" d="M226.377,403.851a31.644,31.644,0,0,0-3.495-4.2,30.411,30.411,0,0,1-27.714,11.554c-.558.329-1.1.629-1.609.907C204.573,416.317,218.527,412.931,226.377,403.851Z" transform="translate(-173.536 -353.303)" fill="#fff"/>
      </g>
      <path id="Trazado_621360" data-name="Trazado 621360" d="M382.761,377.443a2.881,2.881,0,0,1-4.074,0l-4.889-4.889a2.869,2.869,0,0,1-.617-.92,2.879,2.879,0,0,0,.142,3.917l4.889,4.889a2.88,2.88,0,0,0,4.692-3.154C382.857,377.339,382.812,377.393,382.761,377.443Z" transform="translate(-319.346 -311.69)" fill="#fff"/>
      <path id="Trazado_621362" data-name="Trazado 621362" d="M350.581,396.357a2.881,2.881,0,0,1-4.074,0l-8.381-8.381a2.878,2.878,0,0,1-.5-.668,2.88,2.88,0,0,0,.338,3.665l8.381,8.381a2.88,2.88,0,0,0,4.571-3.406A2.9,2.9,0,0,1,350.581,396.357Z" transform="translate(-289.81 -324.784)" fill="#fff"/>
      <path id="Trazado_621364" data-name="Trazado 621364" d="M325.676,421.762a2.881,2.881,0,0,1-4.074,0l-8.381-8.381a2.873,2.873,0,0,1-.42-.539,2.88,2.88,0,0,0,.42,3.536l8.381,8.381a2.879,2.879,0,0,0,4.494-3.536A2.873,2.873,0,0,1,325.676,421.762Z" transform="translate(-269.139 -346.115)" fill="#fff"/>
      <path id="Trazado_621365" data-name="Trazado 621365" d="M299.07,440.645a2.881,2.881,0,0,1,4.074,0l4.889,4.889a2.881,2.881,0,0,1-4.074,4.074l-4.889-4.889A2.881,2.881,0,0,1,299.07,440.645Z" transform="translate(-257.316 -368.636)" fill="#fff"/>
    </g>
    <path id="Trazado_621375" data-name="Trazado 621375" d="M108.421,55.4A31.529,31.529,0,0,0,78.633,18.233V12.574h1.735a8.379,8.379,0,0,0,8.37-8.37V1.893A1.9,1.9,0,0,0,86.844,0H84.533a8.384,8.384,0,0,0-8.111,6.3,8.349,8.349,0,0,0-6.159-2.71H67.951a1.9,1.9,0,0,0-1.893,1.893V7.8a8.379,8.379,0,0,0,8.37,8.37h1.735v2.066A31.443,31.443,0,0,0,46.374,55.4a4.375,4.375,0,0,0-.722,8.646l2.368.513a4.233,4.233,0,0,0-.477,6.3,4.09,4.09,0,0,0,1.6.989,4.116,4.116,0,0,0,3.6,6.036,4.112,4.112,0,0,0,6.031,3.6,4.2,4.2,0,0,0,3.9,2.8,4.1,4.1,0,0,0,2.91-1.2l3.04-3.04a31.706,31.706,0,0,0,17.544,0l3.04,3.04a4.117,4.117,0,0,0,6.811-1.6,4.112,4.112,0,0,0,6.031-3.6,4.087,4.087,0,0,0,2.872-1.2,4.173,4.173,0,0,0,.732-4.829,4.1,4.1,0,0,0,1.6-.991,4.271,4.271,0,0,0-.477-6.3l2.368-.513a4.375,4.375,0,0,0-.722-8.646ZM78.633,8.37a5.907,5.907,0,0,1,5.9-5.9h1.735V4.2a5.908,5.908,0,0,1-5.6,5.893l1.79-1.585a1.235,1.235,0,1,0-1.637-1.849L78.633,8.6ZM74.019,9.809a1.235,1.235,0,1,0-1.746,1.746L74.417,13.7a5.907,5.907,0,0,1-5.889-5.9V6.063h1.735a5.907,5.907,0,0,1,5.9,5.889ZM46.177,61.634a1.9,1.9,0,0,1,.761-3.731,31.474,31.474,0,0,0,1.45,4.211Zm3.113,7.478a1.661,1.661,0,0,1,0-2.328l4.889-4.889a1.646,1.646,0,0,1,2.328,2.328l-4.889,4.889a1.662,1.662,0,0,1-2.328,0Zm2.328,5.82a1.648,1.648,0,0,1,0-2.328L60,64.222a1.657,1.657,0,0,1,2.328,0h0a1.66,1.66,0,0,1,0,2.328l-8.381,8.381A1.662,1.662,0,0,1,51.618,74.931Zm6.4,4.074a1.646,1.646,0,0,1-2.328-2.328L64.073,68.3A1.646,1.646,0,0,1,66.4,70.624Zm10.709-2.561L63.84,81.334a1.646,1.646,0,0,1-2.328-2.328L66.4,74.117a1.646,1.646,0,0,1,2.328,2.328Zm1.746-4.074a4.1,4.1,0,0,0-1.6-.991,4.112,4.112,0,0,0-3.6-6.031,4.118,4.118,0,0,0-6.036-3.6,4.089,4.089,0,0,0-.989-1.6h0a4.116,4.116,0,0,0-5.82,0l-1.538,1.539a29.054,29.054,0,0,1,2.382-28.145A13.227,13.227,0,0,1,58.5,40.048a10.692,10.692,0,0,1,.236,4.377,28.908,28.908,0,0,0,.412,8.641,25.816,25.816,0,0,0,1.091,4.076,1.235,1.235,0,0,0,2.324-.835,23.458,23.458,0,0,1-.99-3.705,26.394,26.394,0,0,1-.375-7.982,12.919,12.919,0,0,0-.339-5.3,15.471,15.471,0,0,0-6.113-7.764A29.132,29.132,0,0,1,70.115,21.6c.71,2.994,1.294,6.213,1.783,9.354.789,5.065,1.413,9.066,4.444,10.042,1.741.561,3.231-.282,4.545-1.025,1.226-.693,2.384-1.347,3.788-1.074,2.143.416,3.546,3.829,5.5,5.439,2.879,2.367,7.088,3.307,11.3,2.958a1.235,1.235,0,1,0-.2-2.461c-3.757.311-7.319-.588-9.529-2.4-2.452-2.016-2.982-5.253-6.6-5.956a7.683,7.683,0,0,0-5.473,1.349c-1.155.653-1.9,1.042-2.574.824-1.582-.51-2.155-4.183-2.761-8.072-.5-3.182-1.092-6.456-1.808-9.488a29.074,29.074,0,0,1,31.371,40.6l-1.538-1.538a4.116,4.116,0,0,0-5.82,0h0a4.091,4.091,0,0,0-.989,1.6,4.111,4.111,0,0,0-2.067-.471c-2.778-2.519-8.457-7.418-12.513-5.474-2.133,1.022-2.458,3.138-2.835,5.59a22.532,22.532,0,0,1-1.566,6.016,17.414,17.414,0,0,1-5.109,6.565,4.072,4.072,0,0,0-.99-1.6Zm13.846,0a4.12,4.12,0,0,0-.163,5.647,29.287,29.287,0,0,1-13.52,0,4.1,4.1,0,0,0,.535-.758A20.62,20.62,0,0,0,78.835,68.4a24.939,24.939,0,0,0,1.746-6.633c.341-2.215.545-3.3,1.462-3.738,2.269-1.087,6.436,2.145,8.876,4.268a4.094,4.094,0,0,0-1.4,3.053,4.112,4.112,0,0,0-3.6,6.031A4.1,4.1,0,0,0,84.321,72.371Zm8.963,8.963a1.648,1.648,0,0,1-2.328,0l-4.889-4.889a1.648,1.648,0,0,1,0-2.328h0a1.657,1.657,0,0,1,2.328,0l4.89,4.89A1.663,1.663,0,0,1,93.284,81.334Zm5.82-2.328a1.648,1.648,0,0,1-2.328,0L88.4,70.624A1.646,1.646,0,1,1,90.723,68.3L99.1,76.678A1.648,1.648,0,0,1,99.1,79.006Zm4.074-4.074a1.662,1.662,0,0,1-2.328,0L92.469,66.55a1.658,1.658,0,0,1,0-2.328h0a1.657,1.657,0,0,1,2.328,0c2.634,2.66,5.862,5.863,8.381,8.381A1.648,1.648,0,0,1,103.178,74.931Zm2.328-5.82a1.648,1.648,0,0,1-2.328,0l-4.889-4.889a1.648,1.648,0,0,1,0-2.328h0a1.66,1.66,0,0,1,2.328,0c.96.96,3.871,3.881,4.889,4.889A1.663,1.663,0,0,1,105.506,69.111Zm3.114-7.478-2.212.479a31.488,31.488,0,0,0,1.45-4.211,1.9,1.9,0,0,1,.762,3.731Z"/>
  </g>
</svg>
