<svg xmlns="http://www.w3.org/2000/svg" width="185.912" height="185.912" viewBox="0 0 185.912 185.912">
  <g id="Grupo_880443" data-name="Grupo 880443" transform="translate(-1015 -2568)">
    <ellipse id="Elipse_5194" data-name="Elipse 5194" cx="92.956" cy="92.956" rx="92.956" ry="92.956" transform="translate(1015 2568)" fill="#f3f9ff"/>
    <g id="Grupo_880442" data-name="Grupo 880442" transform="translate(-1.552 -0.104)">
      <g id="informe-de-noticias" transform="translate(1031.552 2602.104)">
        <g id="Grupo_880440" data-name="Grupo 880440" transform="translate(2.303 2.303)">
          <g id="Grupo_880433" data-name="Grupo 880433" transform="translate(0 60.512)">
            <path id="Trazado_622587" data-name="Trazado 622587" d="M349.332,294.526h28.289a3.881,3.881,0,0,0,3.881-3.881V277.088a3.881,3.881,0,0,0-3.881-3.881H349.332a3.881,3.881,0,0,0-3.881,3.881v13.557A3.881,3.881,0,0,0,349.332,294.526Z" transform="translate(-345.451 -273.207)" fill="#179587"/>
          </g>
          <g id="Grupo_880434" data-name="Grupo 880434" transform="translate(18.375)">
            <path id="Trazado_622588" data-name="Trazado 622588" d="M41.07,47.158a15.11,15.11,0,0,1,12.362,23.8h1.434a3.881,3.881,0,0,1,3.881,3.881V88.4a3.881,3.881,0,0,1-3.881,3.881H51.419l-2.6,24.848h80.025a7.155,7.155,0,0,1-7.155-7.155V10.445H41.07Z" transform="translate(-41.07 -10.445)" fill="#fff"/>
          </g>
          <g id="Grupo_880435" data-name="Grupo 880435" transform="translate(98.993 26.846)">
            <path id="Trazado_622589" data-name="Trazado 622589" d="M24.31,199.7a7.155,7.155,0,0,1-14.31,0V127.021H24.31Z" transform="translate(-10 -127.021)" fill="#e7e7ef"/>
          </g>
          <g id="Grupo_880437" data-name="Grupo 880437" transform="translate(7.726 81.831)">
            <g id="Grupo_880436" data-name="Grupo 880436">
              <path id="Trazado_622590" data-name="Trazado 622590" d="M398.266,365.782l-3.244,31.267H380.05l-2.783-31.267h21Z" transform="translate(-377.267 -365.782)" fill="#222b5a"/>
            </g>
          </g>
          <g id="Grupo_880438" data-name="Grupo 880438" transform="translate(3.265 36.713)">
            <path id="Trazado_622591" data-name="Trazado 622591" d="M356.6,184.974a15.027,15.027,0,0,0,2.747,8.689h24.724a15.11,15.11,0,1,0-27.472-8.689Z" transform="translate(-356.6 -169.865)" fill="#f1b62b"/>
          </g>
          <g id="Grupo_880439" data-name="Grupo 880439" transform="translate(45.671 79.542)">
            <path id="Trazado_622592" data-name="Trazado 622592" d="M166.942,355.841H126.031v13.9h40.911Z" transform="translate(-126.031 -355.841)" fill="#ee4e5d"/>
          </g>
        </g>
        <path id="Trazado_622593" data-name="Trazado 622593" d="M4.562,61.175A17.419,17.419,0,0,1,18.375,37.315V2.748a2.3,2.3,0,0,1,2.3-2.3H101.3a2.3,2.3,0,0,1,2.3,2.3V27.291h12.007a2.3,2.3,0,0,1,2.3,2.3V57.7a2.3,2.3,0,0,1-4.606,0V31.9h-9.7v70.376a4.858,4.858,0,0,0,4.852,4.852h0a4.858,4.858,0,0,0,4.849-4.852V77.967a2.3,2.3,0,0,1,4.606,0v24.306a9.469,9.469,0,0,1-9.458,9.458H30.526l-.452,4.353a2.3,2.3,0,0,1-2.29,2.065H12.812a2.3,2.3,0,0,1-2.294-2.1l-2.6-29.169H6.184A6.191,6.191,0,0,1,0,80.7V67.141a6.194,6.194,0,0,1,4.562-5.966Zm3.31-6.6a12.714,12.714,0,0,0,1.7,6.386H31.78A12.807,12.807,0,1,0,7.872,54.57Zm92.464,52.555a9.479,9.479,0,0,1-1.342-4.852V29.594s0,0,0,0V5.051H22.981V37.31a17.6,17.6,0,0,1,14.2,11.705,17.434,17.434,0,0,1-.466,12.36,6.255,6.255,0,0,1,3.946,5.765V80.7a6.191,6.191,0,0,1-6.184,6.184H33.1L31,107.125Zm-85.417,6.418H25.708l2.764-26.661H12.546ZM4.606,80.7a1.58,1.58,0,0,0,1.578,1.578H34.474A1.58,1.58,0,0,0,36.052,80.7V67.141a1.58,1.58,0,0,0-1.578-1.578H6.184a1.58,1.58,0,0,0-1.578,1.578V80.7Z" transform="translate(0 -0.445)"/>
        <path id="Trazado_622594" data-name="Trazado 622594" d="M388.291,308.495h12.883a2.3,2.3,0,1,1,0,4.606H388.291a2.3,2.3,0,1,1,0-4.606Z" transform="translate(-374.457 -237.554)"/>
        <path id="Trazado_622595" data-name="Trazado 622595" d="M118.334,345.841h40.911a2.3,2.3,0,0,1,2.3,2.3v13.9a2.3,2.3,0,0,1-2.3,2.3H118.334a2.3,2.3,0,0,1-2.3-2.3v-13.9A2.3,2.3,0,0,1,118.334,345.841Zm2.3,13.9h36.306v-9.292H120.637v9.292Z" transform="translate(-70.359 -266.299)"/>
        <path id="Trazado_622596" data-name="Trazado 622596" d="M3.6,287.293a2.3,2.3,0,1,1-1.391-4.215A2.3,2.3,0,0,1,3.6,287.293Z" transform="translate(113.287 -217.988)"/>
        <path id="Trazado_622601" data-name="Trazado 622601" d="M118.334,178.579h45.15a2.3,2.3,0,0,1,0,4.606h-45.15a2.3,2.3,0,1,1,0-4.606Z" transform="translate(-74.598 -137.556)"/>
        <path id="Trazado_622604" data-name="Trazado 622604" d="M118.908,178.579h56.414c1.589,0,2.877.816,2.877,1.822s-1.289,1.822-2.877,1.822H118.908c-1.589,0-2.877-.816-2.877-1.822S117.32,178.579,118.908,178.579Z" transform="translate(-87.011 -155.556)"/>
        <path id="Trazado_622605" data-name="Trazado 622605" d="M118.908,178.579h56.414c1.589,0,2.877.816,2.877,1.822s-1.289,1.822-2.877,1.822H118.908c-1.589,0-2.877-.816-2.877-1.822S117.32,178.579,118.908,178.579Z" transform="translate(-87.011 -165.556)"/>
        <path id="Trazado_622602" data-name="Trazado 622602" d="M118.334,289.9h39.76a2.3,2.3,0,1,1,0,4.606h-39.76a2.3,2.3,0,0,1,0-4.606Z" transform="translate(-69.208 -223.24)"/>
        <path id="Trazado_622603" data-name="Trazado 622603" d="M118.334,234.5h39.76a2.3,2.3,0,0,1,0,4.606h-39.76a2.3,2.3,0,0,1,0-4.606Z" transform="translate(-69.208 -180.599)"/>
      </g>
      <g id="ubicacion" transform="translate(1097.5 2611.486)">
        <path id="Trazado_622606" data-name="Trazado 622606" d="M68.921,335.228a2.025,2.025,0,0,0-1.864.912l-6.307,9.837-6.307-9.837a1.948,1.948,0,0,0-1.864-.912C39.449,336.617,31,341.1,31,346.692c0,7.735,15.311,11.9,29.75,11.9s29.75-4.165,29.75-11.9C90.5,341.1,82.051,336.617,68.921,335.228Z" transform="translate(0 -290.894)" fill="#0f7a6e"/>
        <path id="Trazado_622607" data-name="Trazado 622607" d="M285.75,346.742c0,7.735-15.311,11.9-29.75,11.9V346.028l6.307-9.837a2.025,2.025,0,0,1,1.864-.912C277.3,336.667,285.75,341.149,285.75,346.742Z" transform="translate(-195.25 -290.944)" fill="#179587"/>
        <path id="Trazado_622608" data-name="Trazado 622608" d="M112.817,0A21.8,21.8,0,0,0,95.086,34.51l16.065,25.334a1.977,1.977,0,0,0,3.332,0l16.144-25.413A21.827,21.827,0,0,0,112.817,0Zm0,31.733a9.917,9.917,0,1,1,9.917-9.917A9.928,9.928,0,0,1,112.817,31.733Z" transform="translate(-52.067)" fill="#ee4e5d"/>
        <path id="Trazado_622609" data-name="Trazado 622609" d="M256,0V11.9h0a9.917,9.917,0,0,1,0,19.833h0V60.756a1.916,1.916,0,0,0,1.666-.912L273.81,34.431A21.827,21.827,0,0,0,256,0Z" transform="translate(-195.25)" fill="#e52e3f"/>
      </g>
    </g>
  </g>
</svg>
