<svg xmlns="http://www.w3.org/2000/svg" xmlns:xlink="http://www.w3.org/1999/xlink" width="898" height="139" viewBox="0 0 898 139">
  <defs>
    <clipPath id="clip-path">
      <rect id="Rectángulo_293760" data-name="Rectángulo 293760" width="898" height="139" rx="23" transform="translate(180 402)" fill="#fff" stroke="#707070" stroke-width="1"/>
    </clipPath>
    <clipPath id="clip-path-2">
      <rect id="Rectángulo_293887" data-name="Rectángulo 293887" width="327" height="135" rx="12" transform="translate(864.28 70)" fill="#fff" stroke="#707070" stroke-width="1"/>
    </clipPath>
  </defs>
  <g id="Grupo_880933" data-name="Grupo 880933" transform="translate(-522 -421)">
    <g id="Grupo_880932" data-name="Grupo 880932">
      <g id="Enmascarar_grupo_56" data-name="Enmascarar grupo 56" transform="translate(342 19)" clip-path="url(#clip-path)">
        <g id="Grupo_108521" data-name="Grupo 108521" transform="translate(180.029 400.228)">
          <g id="Grupo_108486" data-name="Grupo 108486" transform="translate(0 0)">
            <path id="Trazado_121011" data-name="Trazado 121011" d="M0,0H897.972V140.857H0Z" transform="translate(897.972 140.857) rotate(180)" fill="#222b5a"/>
          </g>
        </g>
      </g>
      <g id="Grupo_876775" data-name="Grupo 876775" transform="translate(-36.49 31.931)">
        <g id="Grupo_876760" data-name="Grupo 876760" transform="translate(583.736 408.125)">
          <path id="Trazado_126014" data-name="Trazado 126014" d="M584.843,409.274h0a3.78,3.78,0,0,1,5.346,0l11.383,11.383a3.781,3.781,0,0,1,0,5.346h0a3.781,3.781,0,0,1-5.346,0L584.843,414.62A3.781,3.781,0,0,1,584.843,409.274Z" transform="translate(-583.736 -408.166)" fill="#727997"/>
          <path id="Trazado_126015" data-name="Trazado 126015" d="M601.572,409.274h0a3.781,3.781,0,0,1,0,5.346L590.189,426a3.781,3.781,0,0,1-5.346,0h0a3.781,3.781,0,0,1,0-5.346l11.383-11.383A3.779,3.779,0,0,1,601.572,409.274Z" transform="translate(-583.736 -408.166)" fill="#727997"/>
        </g>
        <g id="Grupo_876767" data-name="Grupo 876767" transform="translate(614.756 407.914)">
          <g id="Grupo_876763" data-name="Grupo 876763" transform="translate(0 0)">
            <g id="Grupo_876761" data-name="Grupo 876761" transform="translate(27.279)">
              <circle id="Elipse_5013" data-name="Elipse 5013" cx="2.648" cy="2.648" r="2.648" fill="#727997"/>
              <path id="Trazado_126016" data-name="Trazado 126016" d="M658.5,427.051a2.648,2.648,0,1,1-2.648-2.648A2.648,2.648,0,0,1,658.5,427.051Z" transform="translate(-653.207 -410.566)" fill="#727997"/>
              <circle id="Elipse_5014" data-name="Elipse 5014" cx="2.648" cy="2.648" r="2.648" transform="translate(13.476)" fill="#727997"/>
              <path id="Trazado_126017" data-name="Trazado 126017" d="M674.562,427.051a2.648,2.648,0,1,1-2.648-2.648A2.649,2.649,0,0,1,674.562,427.051Z" transform="translate(-655.789 -410.566)" fill="#727997"/>
            </g>
            <g id="Grupo_876762" data-name="Grupo 876762">
              <circle id="Elipse_5015" data-name="Elipse 5015" cx="2.648" cy="2.648" r="2.648" transform="translate(0)" fill="#727997"/>
              <path id="Trazado_126018" data-name="Trazado 126018" d="M626,427.051a2.648,2.648,0,1,1-2.648-2.648A2.649,2.649,0,0,1,626,427.051Z" transform="translate(-620.7 -410.566)" fill="#727997"/>
              <circle id="Elipse_5016" data-name="Elipse 5016" cx="2.648" cy="2.648" r="2.648" transform="translate(13.477)" fill="#727997"/>
              <path id="Trazado_126019" data-name="Trazado 126019" d="M642.056,427.051a2.648,2.648,0,1,1-2.648-2.648A2.648,2.648,0,0,1,642.056,427.051Z" transform="translate(-623.283 -410.566)" fill="#727997"/>
            </g>
          </g>
          <g id="Grupo_876766" data-name="Grupo 876766" transform="translate(54.507)">
            <g id="Grupo_876764" data-name="Grupo 876764" transform="translate(27.279)">
              <circle id="Elipse_5017" data-name="Elipse 5017" cx="2.648" cy="2.648" r="2.648" transform="translate(0 0)" fill="#727997"/>
              <path id="Trazado_126020" data-name="Trazado 126020" d="M723.455,427.051a2.648,2.648,0,1,1-2.648-2.648A2.649,2.649,0,0,1,723.455,427.051Z" transform="translate(-718.158 -410.566)" fill="#727997"/>
              <path id="Trazado_126021" data-name="Trazado 126021" d="M739.514,410.562a2.648,2.648,0,1,1-2.648-2.648A2.648,2.648,0,0,1,739.514,410.562Z" transform="translate(-720.74 -407.914)" fill="#727997"/>
              <path id="Trazado_126022" data-name="Trazado 126022" d="M739.514,427.051a2.648,2.648,0,1,1-2.648-2.648A2.648,2.648,0,0,1,739.514,427.051Z" transform="translate(-720.74 -410.566)" fill="#727997"/>
            </g>
            <g id="Grupo_876765" data-name="Grupo 876765" transform="translate(0 0)">
              <circle id="Elipse_5018" data-name="Elipse 5018" cx="2.648" cy="2.648" r="2.648" fill="#727997"/>
              <path id="Trazado_126023" data-name="Trazado 126023" d="M690.949,427.051A2.648,2.648,0,1,1,688.3,424.4,2.649,2.649,0,0,1,690.949,427.051Z" transform="translate(-685.652 -410.566)" fill="#727997"/>
              <circle id="Elipse_5019" data-name="Elipse 5019" cx="2.648" cy="2.648" r="2.648" transform="translate(13.476)" fill="#727997"/>
              <path id="Trazado_126024" data-name="Trazado 126024" d="M707.007,427.051a2.648,2.648,0,1,1-2.648-2.648A2.648,2.648,0,0,1,707.007,427.051Z" transform="translate(-688.234 -410.566)" fill="#727997"/>
            </g>
          </g>
        </g>
      </g>
    </g>
    <g id="Enmascarar_grupo_61" data-name="Enmascarar grupo 61" transform="translate(228.72 351)" opacity="0.124" clip-path="url(#clip-path-2)">
      <g id="Grupo_876759" data-name="Grupo 876759" transform="translate(949.484 47.485)">
        <path id="Trazado_126012" data-name="Trazado 126012" d="M249.243-20.205,261.617-7.831a21.97,21.97,0,0,0,31.072,0l7.089-7.09a3.831,3.831,0,0,1,5.418,0l.07.07a3.949,3.949,0,0,1,.016,5.6l-22.5,22.494a20.04,20.04,0,0,0,0,28.341h0a20.04,20.04,0,0,0,28.341,0L379.78-27.076l15.116,2.06L369.9-.023a27.934,27.934,0,0,0,0,39.5h0a27.934,27.934,0,0,0,39.505,0L447.625,1.264a4.252,4.252,0,0,1,6.012,0h0a4.251,4.251,0,0,1,0,6.012l-56.595,56.6a15.788,15.788,0,0,0,0,22.328h0a15.788,15.788,0,0,0,22.328,0l39.2-39.2a4.554,4.554,0,0,1,6.441,0h0a4.554,4.554,0,0,1,0,6.441l-.687.687a33.339,33.339,0,0,0,0,47.149l29.241,29.241v-169.6" transform="translate(-249.243 39.726)" fill="#b8e3db"/>
        <circle id="Elipse_5005" data-name="Elipse 5005" cx="9.006" cy="9.006" r="9.006" transform="translate(62.305 62.956)" fill="#31346b"/>
        <g id="Grupo_876758" data-name="Grupo 876758" transform="translate(114.544 95.765)">
          <circle id="Elipse_5006" data-name="Elipse 5006" cx="1.489" cy="1.489" r="1.489" fill="#31346b"/>
          <circle id="Elipse_5007" data-name="Elipse 5007" cx="1.489" cy="1.489" r="1.489" transform="translate(0 7.781)" fill="#31346b"/>
          <circle id="Elipse_5008" data-name="Elipse 5008" cx="1.489" cy="1.489" r="1.489" transform="translate(7.578)" fill="#31346b"/>
          <circle id="Elipse_5009" data-name="Elipse 5009" cx="1.489" cy="1.489" r="1.489" transform="translate(7.578 7.781)" fill="#31346b"/>
        </g>
        <circle id="Elipse_5010" data-name="Elipse 5010" cx="3.678" cy="3.678" r="3.678" transform="translate(186.59 102.416)" fill="#31346b"/>
        <line id="Línea_166" data-name="Línea 166" y1="60.018" x2="60.018" transform="translate(187.187 23.071)" fill="none" stroke="#fff" stroke-linecap="round" stroke-miterlimit="10" stroke-width="3"/>
        <line id="Línea_167" data-name="Línea 167" y1="31.426" x2="31.426" transform="translate(79.936 14.854)" fill="none" stroke="#fff" stroke-linecap="round" stroke-miterlimit="10" stroke-width="3"/>
        <circle id="Elipse_5011" data-name="Elipse 5011" cx="3.928" cy="3.928" r="3.928" transform="translate(93.685 71.876)" fill="#b8e3db"/>
        <circle id="Elipse_5012" data-name="Elipse 5012" cx="3.928" cy="3.928" r="3.928" transform="translate(218.592 74.247)" fill="#f7f3ea"/>
        <path id="Trazado_126013" data-name="Trazado 126013" d="M596.514-13.988,567.777,14.749a6.83,6.83,0,0,0,0,9.658h0a6.829,6.829,0,0,0,9.658,0L592.793,9.049a2.351,2.351,0,0,1,3.325,0h0a2.352,2.352,0,0,1,0,3.325L590.893,17.6a3.694,3.694,0,0,0,0,5.225h0a3.694,3.694,0,0,0,5.225,0L610.2,8.743a9.967,9.967,0,0,1,14.111,0l.386.386,27.392-27.392S596.514-14.3,596.514-13.988Z" transform="translate(-416.401 28.731)" fill="#cef0e6"/>
        <line id="Línea_168" data-name="Línea 168" x1="55.3" y2="55.3" transform="translate(46.523)" fill="none" stroke="#31346b" stroke-linecap="round" stroke-miterlimit="10" stroke-width="3"/>
      </g>
    </g>
  </g>
</svg>
