<svg xmlns="http://www.w3.org/2000/svg" xmlns:xlink="http://www.w3.org/1999/xlink" width="185.912" height="185.912" viewBox="0 0 185.912 185.912">
  <defs>
    <clipPath id="clip-path">
      <path id="Trazado_622586" data-name="Trazado 622586" d="M92.956,0A92.956,92.956,0,1,1,0,92.956,92.956,92.956,0,0,1,92.956,0Z" transform="translate(520 2570.188)" fill="#f3f9ff" stroke="#707070" stroke-width="1"/>
    </clipPath>
  </defs>
  <g id="Grupo_880441" data-name="Grupo 880441" transform="translate(-479 -2573)">
    <ellipse id="Elipse_5195" data-name="Elipse 5195" cx="92.956" cy="92.956" rx="92.956" ry="92.956" transform="translate(479 2573)" fill="#f3f9ff"/>
    <g id="Enmascarar_grupo_87" data-name="Enmascarar grupo 87" transform="translate(-41 2.812)" clip-path="url(#clip-path)">
      <g id="apoyo" transform="translate(533.956 2609.145)">
        <path id="Trazado_622566" data-name="Trazado 622566" d="M365.9,8.533h-31.84a9.8,9.8,0,0,0-9.8,9.8V42.823a9.8,9.8,0,0,0,9.8,9.8h7.348V64.866L353.658,52.62H365.9a9.8,9.8,0,0,0,9.8-9.8V18.33A9.8,9.8,0,0,0,365.9,8.533Z" transform="translate(-231.195 -6.084)" fill="#f6f6f6"/>
        <path id="Trazado_622567" data-name="Trazado 622567" d="M379.319,13.466c-10.108,24.1-29.989,35.274-43.259,40.222a9.7,9.7,0,0,0,6.412,2.449h7.348V68.383l12.246-12.246h12.246a9.8,9.8,0,0,0,9.8-9.8V21.847A9.761,9.761,0,0,0,379.319,13.466Z" transform="translate(-239.603 -9.601)" fill="#f6f6f6"/>
        <path id="Trazado_622568" data-name="Trazado 622568" d="M108.952,323.394l24.493-46.536H113.851L101.6,298.9V279.307a14.7,14.7,0,0,0-14.7-14.7h-14.7a7.347,7.347,0,0,1-7.348-7.348v-9.8H45.271v9.8a7.347,7.347,0,0,1-7.348,7.348h-14.7a14.7,14.7,0,0,0-14.7,14.7v44.087Z" transform="translate(-6.083 -176.438)" fill="#fec9a3"/>
        <g id="Grupo_880430" data-name="Grupo 880430" transform="translate(12.247 109.987)">
          <path id="Trazado_622569" data-name="Trazado 622569" d="M52.379,420.167h-4.9v-6.513a24.413,24.413,0,0,1-1.011-27.635l1.79-2.821,4.137,2.626-1.79,2.819a19.512,19.512,0,0,0,1.237,22.646,2.447,2.447,0,0,1,.536,1.531v7.348Z" transform="translate(-42.669 -383.198)" fill="#f5b789"/>
          <path id="Trazado_622570" data-name="Trazado 622570" d="M269.688,420.167h-4.9v-7.348a2.447,2.447,0,0,1,.536-1.531,19.509,19.509,0,0,0,1.237-22.643l-1.79-2.821,4.137-2.626,1.79,2.821a24.413,24.413,0,0,1-1.011,27.635Z" transform="translate(-201.023 -383.198)" fill="#f5b789"/>
        </g>
        <path id="Trazado_622571" data-name="Trazado 622571" d="M119.779,67.315V42.823a34.29,34.29,0,0,0-34.29-34.29h0A34.29,34.29,0,0,0,51.2,42.823V67.315a14.7,14.7,0,0,0,14.7,14.7h39.188A14.694,14.694,0,0,0,119.779,67.315Z" transform="translate(-36.504 -6.084)" fill="#f1b62b"/>
        <path id="Trazado_622572" data-name="Trazado 622572" d="M146.331,8.533a34.3,34.3,0,0,0-9.8,1.438,34.293,34.293,0,0,1,24.493,32.852V67.315a14.7,14.7,0,0,1-14.7,14.7h19.594a14.7,14.7,0,0,0,14.7-14.7V42.823A34.29,34.29,0,0,0,146.331,8.533Z" transform="translate(-97.346 -6.084)" fill="#dfa825"/>
        <path id="Trazado_622573" data-name="Trazado 622573" d="M397.51,313.363H375.467a14.7,14.7,0,0,1,14.7-14.7h22.043A14.7,14.7,0,0,1,397.51,313.363Z" transform="translate(-267.699 -212.943)" fill="#fec9a3"/>
        <g id="Grupo_880431" data-name="Grupo 880431" transform="translate(102.869 12.246)">
          <rect id="Rectángulo_294915" data-name="Rectángulo 294915" width="17.145" height="4.899" fill="#ccbfb0"/>
          <rect id="Rectángulo_294916" data-name="Rectángulo 294916" width="9.797" height="4.899" transform="translate(22.043)" fill="#ccbfb0"/>
          <rect id="Rectángulo_294917" data-name="Rectángulo 294917" width="31.84" height="4.899" transform="translate(0 9.797)" fill="#ccbfb0"/>
          <rect id="Rectángulo_294918" data-name="Rectángulo 294918" width="17.145" height="4.899" transform="translate(0 19.594)" fill="#ccbfb0"/>
        </g>
        <path id="Trazado_622574" data-name="Trazado 622574" d="M156.14,257.389v-9.922H136.534v9.922a21.866,21.866,0,0,0,19.619,0Z" transform="translate(-97.346 -176.438)" fill="#f7c097"/>
        <path id="Trazado_622575" data-name="Trazado 622575" d="M93.867,102.536v10.547a22.043,22.043,0,1,0,44.087,0V93.488a21.924,21.924,0,0,0-2.638-10.458Z" transform="translate(-66.925 -59.198)" fill="#fec9a3"/>
        <rect id="Rectángulo_294919" data-name="Rectángulo 294919" width="34.29" height="26.942" transform="translate(31.84 102.869)" fill="#ee4e5d"/>
        <path id="Trazado_622576" data-name="Trazado 622576" d="M113.852,319.446,101.605,341.49V321.9a14.7,14.7,0,0,0-14.7-14.7H79.072l-24,31.84L32.291,307.2H23.229a14.7,14.7,0,0,0-14.7,14.7v44.087h100.42l24.493-46.536Z" transform="translate(-6.084 -219.026)" fill="#ee4e5d"/>
        <path id="Trazado_622577" data-name="Trazado 622577" d="M225.066,319.677H205.472l-12.246,22.043V322.127a14.7,14.7,0,0,0-13.082-14.6c-4.408,34.214-24.96,50.749-43.107,58.689h63.536Z" transform="translate(-97.704 -219.258)" fill="#e23141"/>
        <g id="Grupo_880432" data-name="Grupo 880432" transform="translate(12.247 109.987)">
          <path id="Trazado_622578" data-name="Trazado 622578" d="M52.379,420.167h-4.9v-6.513a24.413,24.413,0,0,1-1.011-27.635l1.79-2.821,4.137,2.626-1.79,2.819a19.512,19.512,0,0,0,1.237,22.646,2.447,2.447,0,0,1,.536,1.531v7.348Z" transform="translate(-42.669 -383.198)" fill="#3685ba"/>
          <path id="Trazado_622579" data-name="Trazado 622579" d="M269.688,420.167h-4.9v-7.348a2.447,2.447,0,0,1,.536-1.531,19.509,19.509,0,0,0,1.237-22.643l-1.79-2.821,4.137-2.626,1.79,2.821a24.413,24.413,0,0,1-1.011,27.635Z" transform="translate(-201.023 -383.198)" fill="#3685ba"/>
        </g>
        <path id="Trazado_622580" data-name="Trazado 622580" d="M192.71,113.081V93.487a21.924,21.924,0,0,0-2.638-10.458l-6.216,2.924a34.137,34.137,0,0,1,1.506,9.983v24.493a14.7,14.7,0,0,1-14.7,14.7,22.042,22.042,0,0,0,22.043-22.043Z" transform="translate(-121.682 -59.198)" fill="#f7c097"/>
        <path id="Trazado_622581" data-name="Trazado 622581" d="M99,75.927H96.55v4.9H99a17.164,17.164,0,0,0,17.145-17.145V36.739a36.739,36.739,0,0,0-73.478,0V63.681A17.164,17.164,0,0,0,59.811,80.826H62.26v-4.9H59.811A12.261,12.261,0,0,1,47.565,63.681V36.739a31.84,31.84,0,0,1,63.681,0V63.681A12.26,12.26,0,0,1,99,75.927Z" transform="translate(-30.42 0)" fill="#12263f"/>
        <path id="Trazado_622582" data-name="Trazado 622582" d="M52.4,385.824,48.259,383.2l-1.79,2.821a24.413,24.413,0,0,0,1.011,27.635v6.513h4.9v-7.348a2.447,2.447,0,0,0-.536-1.531,19.512,19.512,0,0,1-1.237-22.646Z" transform="translate(-30.421 -273.211)" fill="#12263f"/>
        <path id="Trazado_622583" data-name="Trazado 622583" d="M359.82,0h-31.84a12.261,12.261,0,0,0-12.246,12.246V36.739a12.261,12.261,0,0,0,12.246,12.246h4.9v9.8a2.45,2.45,0,0,0,1.511,2.263,2.45,2.45,0,0,0,2.67-.531l11.529-11.529H359.82a12.261,12.261,0,0,0,12.246-12.247V12.246A12.261,12.261,0,0,0,359.82,0Zm7.348,36.739a7.347,7.347,0,0,1-7.348,7.348H347.573a2.443,2.443,0,0,0-1.732.718l-8.065,8.065V46.536a2.45,2.45,0,0,0-2.449-2.449h-7.348a7.347,7.347,0,0,1-7.348-7.348V12.246A7.347,7.347,0,0,1,327.979,4.9h31.84a7.347,7.347,0,0,1,7.348,7.348Z" transform="translate(-225.11)" fill="#12263f"/>
        <rect id="Rectángulo_294920" data-name="Rectángulo 294920" width="17.145" height="4.899" transform="translate(102.869 12.246)" fill="#12263f"/>
        <rect id="Rectángulo_294921" data-name="Rectángulo 294921" width="9.797" height="4.899" transform="translate(124.912 12.246)" fill="#12263f"/>
        <rect id="Rectángulo_294922" data-name="Rectángulo 294922" width="31.84" height="4.899" transform="translate(102.869 22.043)" fill="#12263f"/>
        <rect id="Rectángulo_294923" data-name="Rectángulo 294923" width="17.145" height="4.899" transform="translate(102.869 31.84)" fill="#12263f"/>
        <path id="Trazado_622584" data-name="Trazado 622584" d="M264.789,412.819v7.348h4.9v-6.513a24.413,24.413,0,0,0,1.011-27.635l-1.79-2.821-4.137,2.626,1.79,2.821a19.509,19.509,0,0,1-1.237,22.644A2.447,2.447,0,0,0,264.789,412.819Z" transform="translate(-188.776 -273.211)" fill="#12263f"/>
        <path id="Trazado_622585" data-name="Trazado 622585" d="M4.9,155.989a12.26,12.26,0,0,1,12.246-12.246h7.794l22.055,30.817a2.445,2.445,0,0,0,1.96,1.024h.032a2.448,2.448,0,0,0,1.96-.98l23.268-30.861h6.613a12.261,12.261,0,0,1,12.246,12.246v19.594a2.449,2.449,0,0,0,4.59,1.188l11.546-20.782H123.25L99.37,200.076h5.572l23.89-44.087h.98a17.164,17.164,0,0,0,17.145-17.145,2.45,2.45,0,0,0-2.449-2.449H122.464a17.144,17.144,0,0,0-17.111,16.447l-7.382,13.29V155.989a17.164,17.164,0,0,0-17.145-17.145H71.874l-.066-.051-.044.051H66.13a4.9,4.9,0,0,1-4.9-4.9v-5.763A24.494,24.494,0,0,0,73.478,107V87.409a24.533,24.533,0,0,0-2.939-11.624,2.45,2.45,0,0,0-3.184-1.053L25.9,94.238a2.452,2.452,0,0,0-1.406,2.217V107a24.494,24.494,0,0,0,12.246,21.179v5.763a4.9,4.9,0,0,1-4.9,4.9h-14.7A17.164,17.164,0,0,0,0,155.989v44.087H4.9Zm117.565-14.7h19.349a12.266,12.266,0,0,1-12,9.8H110.462A12.266,12.266,0,0,1,122.463,141.293ZM49.037,169l-7.558-10.561H57ZM29.391,107V98.01l37.819-17.8a19.6,19.6,0,0,1,1.369,7.2V107a19.594,19.594,0,1,1-39.188,0Zm2.449,36.739a9.8,9.8,0,0,0,9.8-9.8v-3.578a24.46,24.46,0,0,0,14.7,0v3.578a9.8,9.8,0,0,0,9.8,9.8h1.96l-7.387,9.8H37.963l-7.012-9.8Z" transform="translate(0 -53.12)" fill="#12263f"/>
      </g>
    </g>
  </g>
</svg>
