<svg xmlns="http://www.w3.org/2000/svg" width="66.999" height="84.284" viewBox="0 0 66.999 84.284">
  <g id="trotar" transform="translate(-52.5 0)">
    <g id="Grupo_879941" data-name="Grupo 879941" transform="translate(52.5 0)">
      <path id="Trazado_621345" data-name="Trazado 621345" d="M144.169,74.728h-6.918l0-10.167a1.66,1.66,0,0,0-.847-1.448l-6.265-3.521h0c-.3-.175-.652-.365-1.02-.565-2.575-1.4-6.653-3.627-8.177-7.519h13.941l7.169,7.06c.463.456.463.456.452,1.64,0,.182,0,.379,0,.594v2.6a1.66,1.66,0,0,0,3.32,0V60.8c0-.2,0-.39,0-.562a4.568,4.568,0,0,0-1.443-4.038l-7.156-7.047.01-5.534,4.259,0c1.917,0,3.3-.009,4.894-2.2l.015-.022,5.54-7.884a5.394,5.394,0,0,0,.888-4.078,5.469,5.469,0,0,0-9.9-2.152l-3.5,5.1-2.933-.014L132.9,26.693a12.481,12.481,0,0,0,5.957-10.371,12.373,12.373,0,0,0-2.124-6.941,7.155,7.155,0,0,0,1.273-1.664c.767-1.4,1.329-3.729-.349-6.844a1.659,1.659,0,0,0-2.2-.7,16.138,16.138,0,0,1-7.94,1.765c-.275,0-.545,0-.809,0s-.525,0-.781,0a12.5,12.5,0,0,0-4.274.577c-4.2,1.491-10.618,5.871-6.506,18.462l0,.006.009.028c.014.043.03.085.047.126v0a12.418,12.418,0,0,0,4.17,5.429L117.1,29.845l-9.743,3.339a5.5,5.5,0,0,0-3.7,4.981c0,.02,0,.039,0,.059v1.818H94.17a1.66,1.66,0,0,0,0,3.32h9.492V48.22a5.492,5.492,0,0,0,5.5,5.471h.024a5.485,5.485,0,0,0,5.446-5.51l-.023-5.887.938-.321,1.556,7.879-1.294,6.719h-9.443a1.66,1.66,0,0,0,0,3.32h8.8l-.308,1.6-8.925,2.988-.025.01-.023.007-5.725,2.113a1.66,1.66,0,0,0-.982,2.133l4.92,13.306a1.66,1.66,0,0,0,2.37.871c3.215-1.808,5.186-4.769,5.11-7.39l12.927-4.467a5.067,5.067,0,0,0,3.2-2.844l2.334-4.847,2.846,1.638a1.667,1.667,0,0,0,.4.166l.637.358,0,10.851h0l-.019,6.237a1.66,1.66,0,0,0,1.66,1.665H150.2a1.66,1.66,0,0,0,1.588-1.177,5.211,5.211,0,0,0-.906-4.764A9.712,9.712,0,0,0,144.169,74.728ZM140.307,35.71a1.661,1.661,0,0,0,1.378-.722l3.994-5.83a2.149,2.149,0,0,1,2.984-.553,2.172,2.172,0,0,1,.9,1.416,2.094,2.094,0,0,1-.338,1.584L143.7,39.475c-.593.816-.6.816-2.207.82l-4.247,0,.008-4.6Zm-4.766-19.388c0,5.089-4.835,9.037-8.994,9.037a9.583,9.583,0,0,1-4.013-.788c-.048-.025-.1-.048-.145-.069a8.278,8.278,0,0,1-3.85-4.057c.739-1.731,3.213-6.734,7.2-7.041a24.146,24.146,0,0,0,8.268-2.129A9.059,9.059,0,0,1,135.541,16.322ZM117.63,10.434a7.654,7.654,0,0,1,5.135-4.8,9.3,9.3,0,0,1,3.162-.385c.247,0,.5,0,.753,0,.274,0,.553,0,.837,0a19.824,19.824,0,0,0,7.8-1.383,2.989,2.989,0,0,1-.22,2.246c-1.269,2.321-5.87,3.685-9.609,3.97-3.84.295-6.525,3.091-8.193,5.631A11.588,11.588,0,0,1,117.63,10.434Zm-5.221,29.1a1.66,1.66,0,0,0-1.122,1.577l.028,7.079a2.161,2.161,0,0,1-2.141,2.176h-.01a2.2,2.2,0,0,1-2.182-2.15V41.876a1.641,1.641,0,0,0,0-.347V38.258a2.189,2.189,0,0,1,1.452-1.932l10.011-3.431a2.1,2.1,0,0,1,.682-.114A2.167,2.167,0,0,1,119.832,37Zm8.5.6a5.487,5.487,0,0,0,.233-10.291l1.235-1.785a13.556,13.556,0,0,0,4.172.618,10.88,10.88,0,0,0,3.337-.548l4.051,6.377-.013,7.453h0l-.011,6.225H120.161l-1.442-7.3Zm-14.44,38.726-3.593-9.716,2.628-.97,2.686,7.015C108.482,75.956,107.973,77.49,106.468,78.862Zm18.258-12.088a1.818,1.818,0,0,1-1.3,1.148l-12.775,4.414-2.014-5.261,8.2-2.746a1.66,1.66,0,0,0,1.1-1.26l1.451-7.535c2.218,3.071,5.515,4.97,7.761,6.2Zm12.511,14.19.009-2.917h6.923a6.588,6.588,0,0,1,4.043,2.273,2.678,2.678,0,0,1,.362.644H137.237Z" transform="translate(-85.924 0)"/>
      <path id="Trazado_621346" data-name="Trazado 621346" d="M130.517,346.676a1.66,1.66,0,0,0,0-3.32h-.042a1.66,1.66,0,0,0,0,3.32Z" transform="translate(-116.252 -286.834)"/>
      <path id="Trazado_621347" data-name="Trazado 621347" d="M54.2,243.247H54.16a1.66,1.66,0,1,0,0,3.32H54.2a1.66,1.66,0,0,0,0-3.32Z" transform="translate(-52.5 -203.204)"/>
      <path id="Trazado_621348" data-name="Trazado 621348" d="M397.9,413.76a1.66,1.66,0,0,0-1.66,1.66v.042a1.66,1.66,0,0,0,3.32,0v-.042A1.66,1.66,0,0,0,397.9,413.76Z" transform="translate(-339.652 -345.648)"/>
    </g>
  </g>
</svg>
