<svg xmlns="http://www.w3.org/2000/svg" width="169.912" height="169.912" viewBox="0 0 169.912 169.912">
  <g id="Grupo_881576" data-name="Grupo 881576" transform="translate(-778 -13976)">
    <ellipse id="Elipse_5192" data-name="Elipse 5192" cx="84.956" cy="84.956" rx="84.956" ry="84.956" transform="translate(778 13976)" fill="#179587"/>
    <g id="Grupo_880370" data-name="Grupo 880370" transform="translate(-6.141 68.444)">
      <g id="comunicacion-bidireccional" transform="translate(799.141 13951.556)" opacity="0.92">
        <path id="Trazado_622413" data-name="Trazado 622413" d="M77.186,260.767H18.738V242.276A11.451,11.451,0,0,1,30.19,230.824H65.733a11.453,11.453,0,0,1,11.453,11.452Zm0,0" transform="translate(-16.578 -181.569)" fill="#179587"/>
        <path id="Trazado_622414" data-name="Trazado 622414" d="M73.346,259.087H14.9a2.16,2.16,0,0,1-2.16-2.16V238.436A13.626,13.626,0,0,1,26.35,224.824H61.893A13.626,13.626,0,0,1,75.5,238.436v18.491a2.158,2.158,0,0,1-2.158,2.16Zm-56.288-4.32H71.186V238.436a9.3,9.3,0,0,0-9.293-9.292H26.349a9.3,9.3,0,0,0-9.292,9.292Zm0,0" transform="translate(-12.738 -177.729)" fill="#222b5a"/>
        <path id="Trazado_622415" data-name="Trazado 622415" d="M86.479,223.365a7.561,7.561,0,0,1-7.561-7.561V202.922H94.04V215.8A7.561,7.561,0,0,1,86.479,223.365Zm0,0" transform="translate(-55.095 -163.711)" fill="#fff"/>
        <path id="Trazado_622416" data-name="Trazado 622416" d="M82.639,221.684a9.731,9.731,0,0,1-9.721-9.721V199.082a2.16,2.16,0,0,1,2.16-2.16H90.2a2.16,2.16,0,0,1,2.16,2.16v12.882A9.731,9.731,0,0,1,82.639,221.684Zm-5.4-20.443v10.722a5.4,5.4,0,0,0,10.8,0V201.242Zm0,0" transform="translate(-51.255 -159.871)" fill="#222b5a"/>
        <path id="Trazado_622417" data-name="Trazado 622417" d="M69.716,143.685A16.989,16.989,0,0,1,52.727,126.7v-9.712a16.989,16.989,0,0,1,33.978,0V126.7A16.99,16.99,0,0,1,69.716,143.685Zm0,0" transform="translate(-38.332 -97.836)" fill="#fff"/>
        <path id="Trazado_622418" data-name="Trazado 622418" d="M65.876,142a19.171,19.171,0,0,1-19.149-19.149v-9.711a19.148,19.148,0,1,1,38.3,0v9.711A19.169,19.169,0,0,1,65.876,142Zm0-43.689a14.845,14.845,0,0,0-14.829,14.828v9.712a14.829,14.829,0,1,0,29.657,0v-9.712A14.845,14.845,0,0,0,65.876,98.316Zm0,0" transform="translate(-34.492 -93.996)" fill="#222b5a"/>
        <path id="Trazado_622419" data-name="Trazado 622419" d="M47.429,285.705a2.16,2.16,0,0,1-2.16-2.16V268.574a2.16,2.16,0,0,1,4.32,0v14.971A2.16,2.16,0,0,1,47.429,285.705Zm0,0" transform="translate(-33.559 -204.348)" fill="#222b5a"/>
        <path id="Trazado_622420" data-name="Trazado 622420" d="M144.73,285.705a2.16,2.16,0,0,1-2.16-2.16V268.574a2.16,2.16,0,0,1,4.32,0v14.971A2.16,2.16,0,0,1,144.73,285.705Zm0,0" transform="translate(-95.834 -204.348)" fill="#222b5a"/>
        <path id="Trazado_622421" data-name="Trazado 622421" d="M74.261,161.566a2.16,2.16,0,0,1-2.16-2.16v-1.731a2.16,2.16,0,0,1,4.32,0v1.731A2.16,2.16,0,0,1,74.261,161.566Zm0,0" transform="translate(-50.732 -133.37)" fill="#4c4372"/>
        <path id="Trazado_622422" data-name="Trazado 622422" d="M117.9,161.566a2.16,2.16,0,0,1-2.16-2.16v-1.731a2.16,2.16,0,0,1,4.32,0v1.731A2.16,2.16,0,0,1,117.9,161.566Zm0,0" transform="translate(-78.663 -133.37)" fill="#4c4372"/>
        <path id="Trazado_622423" data-name="Trazado 622423" d="M291.343,260.767H232.9V242.276a11.453,11.453,0,0,1,11.453-11.452h35.543a11.451,11.451,0,0,1,11.452,11.452Zm0,0" transform="translate(-153.644 -181.569)" fill="#ee4e5d"/>
        <path id="Trazado_622424" data-name="Trazado 622424" d="M287.5,259.087H229.055a2.16,2.16,0,0,1-2.16-2.16V238.436a13.627,13.627,0,0,1,13.613-13.612h35.543a13.626,13.626,0,0,1,13.612,13.612v18.491a2.16,2.16,0,0,1-2.16,2.16Zm-56.288-4.32h54.128V238.436a9.3,9.3,0,0,0-9.292-9.292H240.508a9.3,9.3,0,0,0-9.292,9.292v16.331Zm0,0" transform="translate(-149.804 -177.729)" fill="#222b5a"/>
        <path id="Trazado_622425" data-name="Trazado 622425" d="M300.635,223.365a7.562,7.562,0,0,1-7.561-7.561V202.922H308.2V215.8A7.561,7.561,0,0,1,300.635,223.365Zm0,0" transform="translate(-192.16 -163.711)" fill="#fff"/>
        <path id="Trazado_622426" data-name="Trazado 622426" d="M296.795,221.684a9.731,9.731,0,0,1-9.721-9.721V199.082a2.16,2.16,0,0,1,2.16-2.16h15.122a2.16,2.16,0,0,1,2.16,2.16v12.882A9.731,9.731,0,0,1,296.795,221.684Zm-5.4-20.443v10.722a5.4,5.4,0,0,0,10.8,0V201.242Zm0,0" transform="translate(-188.32 -159.871)" fill="#222b5a"/>
        <path id="Trazado_622427" data-name="Trazado 622427" d="M283.874,143.685A16.988,16.988,0,0,1,266.887,126.7v-9.712a16.988,16.988,0,0,1,33.977,0V126.7A16.989,16.989,0,0,1,283.874,143.685Zm0,0" transform="translate(-175.399 -97.836)" fill="#fff"/>
        <g id="Grupo_880369" data-name="Grupo 880369" transform="translate(55.477 0)">
          <path id="Trazado_622428" data-name="Trazado 622428" d="M280.034,142a19.169,19.169,0,0,1-19.148-19.149v-9.711a19.148,19.148,0,1,1,38.3,0v9.711A19.171,19.171,0,0,1,280.034,142Zm0-43.689a14.844,14.844,0,0,0-14.828,14.828v9.712a14.829,14.829,0,1,0,29.657,0v-9.712A14.846,14.846,0,0,0,280.034,98.316Zm0,0" transform="translate(-227.036 -93.996)" fill="#222b5a"/>
          <path id="Trazado_622429" data-name="Trazado 622429" d="M261.59,285.705a2.16,2.16,0,0,1-2.16-2.16V268.574a2.16,2.16,0,0,1,4.32,0v14.971A2.16,2.16,0,0,1,261.59,285.705Zm0,0" transform="translate(-226.104 -204.348)" fill="#222b5a"/>
          <path id="Trazado_622430" data-name="Trazado 622430" d="M358.89,285.705a2.16,2.16,0,0,1-2.16-2.16V268.574a2.16,2.16,0,0,1,4.32,0v14.971A2.16,2.16,0,0,1,358.89,285.705Zm0,0" transform="translate(-288.378 -204.348)" fill="#222b5a"/>
          <path id="Trazado_622431" data-name="Trazado 622431" d="M288.418,161.566a2.16,2.16,0,0,1-2.16-2.16v-1.731a2.16,2.16,0,0,1,4.32,0v1.731A2.16,2.16,0,0,1,288.418,161.566Zm0,0" transform="translate(-243.275 -133.37)" fill="#222b5a"/>
          <path id="Trazado_622432" data-name="Trazado 622432" d="M332.058,161.566a2.16,2.16,0,0,1-2.16-2.16v-1.731a2.16,2.16,0,0,1,4.32,0v1.731A2.16,2.16,0,0,1,332.058,161.566Zm0,0" transform="translate(-271.205 -133.37)" fill="#222b5a"/>
          <path id="Trazado_622433" data-name="Trazado 622433" d="M188.19,111.871H169.012a2.16,2.16,0,0,1,0-4.32H188.19a2.16,2.16,0,1,1,0,4.32Zm0,0" transform="translate(-166.852 -102.671)" fill="#222b5a"/>
          <path id="Trazado_622434" data-name="Trazado 622434" d="M222.289,109.441a2.161,2.161,0,0,1-2.16-2.16v-6.243a2.16,2.16,0,0,1,3.24-1.872l5.407,3.123a2.159,2.159,0,0,1,0,3.74l-5.407,3.122a2.164,2.164,0,0,1-1.08.29Zm0,0" transform="translate(-200.95 -97.12)" fill="#222b5a"/>
          <path id="Trazado_622435" data-name="Trazado 622435" d="M231.535,108l-2.7,1.561-2.7,1.561v-6.243l2.7,1.561Zm0,0" transform="translate(-204.79 -100.961)" fill="#222b5a"/>
          <path id="Trazado_622436" data-name="Trazado 622436" d="M203.209,149.715H184.031a2.16,2.16,0,1,1,0-4.32h19.179a2.16,2.16,0,0,1,0,4.32Zm0,0" transform="translate(-176.464 -126.893)" fill="#222b5a"/>
          <path id="Trazado_622437" data-name="Trazado 622437" d="M174.418,147.284a2.162,2.162,0,0,1-1.08-.288l-5.407-3.122a2.161,2.161,0,0,1,0-3.742l5.407-3.122a2.16,2.16,0,0,1,3.24,1.87v6.243a2.157,2.157,0,0,1-2.16,2.16Zm0,0" transform="translate(-166.852 -121.341)" fill="#222b5a"/>
          <path id="Trazado_622438" data-name="Trazado 622438" d="M172.852,145.842l2.7-1.562,2.7-1.561v6.245l-2.7-1.561Zm0,0" transform="translate(-170.692 -125.18)" fill="#222b5a"/>
        </g>
      </g>
    </g>
  </g>
</svg>
