<svg xmlns="http://www.w3.org/2000/svg" width="77.829" height="83.511" viewBox="0 0 77.829 83.511">
  <g id="social" transform="translate(0)">
    <ellipse id="Elipse_5264" data-name="Elipse 5264" cx="11.135" cy="11.135" rx="11.135" ry="11.135" transform="translate(1.269 8.352)" fill="#e6eef3"/>
    <ellipse id="Elipse_5266" data-name="Elipse 5266" cx="11.135" cy="11.135" rx="11.135" ry="11.135" transform="translate(33.281 1.393)" fill="#e6eef3"/>
    <ellipse id="Elipse_5268" data-name="Elipse 5268" cx="11.135" cy="11.135" rx="11.135" ry="11.135" transform="translate(54.158 27.838)" fill="#e6eef3"/>
    <path id="Trazado_621399" data-name="Trazado 621399" d="M69.381,28.445A12.54,12.54,0,0,0,56.855,40.972c0,.4.024.789.06,1.177L46.423,44.615A8.409,8.409,0,0,0,42.759,40.6l4.825-13.6c.3.024.61.047.92.047a12.526,12.526,0,1,0-3.693-.557L40.124,39.7a8.176,8.176,0,0,0-5.345.892l-9.9-9.831a12.415,12.415,0,1,0-2.287,1.655l9.988,9.917a8.249,8.249,0,0,0-1.832,7.914l-3.471,1.858H25.635a5.567,5.567,0,1,0-7.288,0h-.463c-3.487,0-5.567,2.6-5.567,6.959v9.743A1.392,1.392,0,0,0,13.708,70.2h2.784V84.118a1.392,1.392,0,0,0,1.392,1.392h8.351a1.392,1.392,0,0,0,1.392-1.392V60.029l7.677-4.51a8.327,8.327,0,0,0,11.808-7.588c0-.206-.017-.408-.031-.61l10.4-2.452a12.526,12.526,0,1,0,11.9-16.424ZM51.288,23.852a9.641,9.641,0,0,1-5.567,0V18.7a1.392,1.392,0,0,1,1.392-1.392H49.9A1.392,1.392,0,0,1,51.288,18.7ZM47.112,11.743A1.392,1.392,0,1,1,48.5,13.135,1.392,1.392,0,0,1,47.112,11.743ZM42.937,18.7V22.51a9.743,9.743,0,1,1,11.135,0V18.7A4.175,4.175,0,0,0,51.331,14.8a4.175,4.175,0,1,0-5.654,0A4.175,4.175,0,0,0,42.937,18.7ZM19.276,30.811a9.641,9.641,0,0,1-5.567,0v-5.15A1.392,1.392,0,0,1,15.1,24.27h2.784a1.392,1.392,0,0,1,1.392,1.392ZM15.1,18.7a1.392,1.392,0,1,1,1.392,1.392A1.392,1.392,0,0,1,15.1,18.7ZM22.059,29.47V25.662a4.176,4.176,0,0,0-2.741-3.905,4.175,4.175,0,1,0-5.654,0,4.175,4.175,0,0,0-2.741,3.905V29.47a9.743,9.743,0,1,1,11.135,0Zm-.068,15.678a2.784,2.784,0,1,1-2.784,2.784A2.784,2.784,0,0,1,21.991,45.147Zm12.258,7.764-8.72,5.122a1.392,1.392,0,0,0-.686,1.2V82.727H23.451V67.416H20.667v15.31H19.276V59.065H16.492v8.351H15.1V59.065c0-4.175,2.095-4.175,2.784-4.175h9.743a1.4,1.4,0,0,0,.657-.164l4.5-2.411a1.335,1.335,0,0,0,.278-.2l4.1-3.744.992.992Zm4.512.587a5.507,5.507,0,0,1-.921-.086l3.271-2.966a1.392,1.392,0,0,0,.05-2.017L38.2,45.465a1.392,1.392,0,0,0-1.922-.045L33.223,48.2c0-.093-.029-.181-.029-.278a5.567,5.567,0,1,1,5.567,5.567Zm33.4-3.2a9.641,9.641,0,0,1-5.567,0v-5.15a1.392,1.392,0,0,1,1.392-1.392h2.784a1.392,1.392,0,0,1,1.392,1.392ZM67.99,38.188a1.392,1.392,0,1,1,1.392,1.392A1.392,1.392,0,0,1,67.99,38.188Zm6.959,10.767V45.147a4.175,4.175,0,0,0-2.741-3.905,4.175,4.175,0,1,0-5.654,0,4.175,4.175,0,0,0-2.741,3.905v3.808a9.743,9.743,0,1,1,11.135,0Z" transform="translate(-4.088 -1.999)"/>
  </g>
</svg>
