<svg xmlns="http://www.w3.org/2000/svg" width="192.196" height="192.196" viewBox="0 0 192.196 192.196">
  <g id="Grupo_881585" data-name="Grupo 881585" transform="translate(-976 -2196)">
    <g id="Trazado_624135" data-name="Trazado 624135" transform="translate(976 2196)" fill="#f3f9ff">
      <path d="M 96.09819030761719 189.6963806152344 C 89.74603271484375 189.6963806152344 83.39861297607422 189.0565795898438 77.23224639892578 187.7947387695312 C 71.223876953125 186.5652618408203 65.31381988525391 184.7306976318359 59.66632080078125 182.3419799804688 C 54.12079620361328 179.9964294433594 48.77192687988281 177.0931396484375 43.76829528808594 173.7127380371094 C 38.81158447265625 170.3640594482422 34.15042877197266 166.5182189941406 29.9142951965332 162.2820892333984 C 25.67816352844238 158.0459594726562 21.83232116699219 153.3847961425781 18.4836368560791 148.4280853271484 C 15.10324287414551 143.4244537353516 12.19995307922363 138.0755920410156 9.854400634765625 132.5300598144531 C 7.465690135955811 126.8825607299805 5.631111145019531 120.9725036621094 4.401637554168701 114.9641342163086 C 3.139795541763306 108.7977676391602 2.500006198883057 102.4503479003906 2.500006198883057 96.09819030761719 C 2.500006198883057 89.74603271484375 3.139795541763306 83.39861297607422 4.401637554168701 77.23224639892578 C 5.631111145019531 71.223876953125 7.465690135955811 65.31381988525391 9.854400634765625 59.66632080078125 C 12.19995307922363 54.12079620361328 15.10324287414551 48.77192687988281 18.4836368560791 43.76829528808594 C 21.83232116699219 38.81158447265625 25.67816352844238 34.15042877197266 29.9142951965332 29.9142951965332 C 34.15042877197266 25.67816352844238 38.81158447265625 21.83232116699219 43.76829528808594 18.4836368560791 C 48.77192687988281 15.10324287414551 54.12079620361328 12.19995307922363 59.66632080078125 9.854400634765625 C 65.31381988525391 7.465690135955811 71.223876953125 5.631111145019531 77.23224639892578 4.401637554168701 C 83.39861297607422 3.139795541763306 89.74603271484375 2.500006198883057 96.09819030761719 2.500006198883057 C 102.4503479003906 2.500006198883057 108.7977676391602 3.139795541763306 114.9641342163086 4.401637554168701 C 120.9725036621094 5.631111145019531 126.8825607299805 7.465690135955811 132.5300598144531 9.854400634765625 C 138.0755920410156 12.19995307922363 143.4244537353516 15.10324287414551 148.4280853271484 18.4836368560791 C 153.3847961425781 21.83232116699219 158.0459594726562 25.67816352844238 162.2820892333984 29.9142951965332 C 166.5182189941406 34.15042877197266 170.3640594482422 38.81158447265625 173.7127380371094 43.76829528808594 C 177.0931396484375 48.77192687988281 179.9964294433594 54.12079620361328 182.3419799804688 59.66632080078125 C 184.7306976318359 65.31381988525391 186.5652618408203 71.223876953125 187.7947387695312 77.23224639892578 C 189.0565795898438 83.39861297607422 189.6963806152344 89.74603271484375 189.6963806152344 96.09819030761719 C 189.6963806152344 102.4503479003906 189.0565795898438 108.7977676391602 187.7947387695312 114.9641342163086 C 186.5652618408203 120.9725036621094 184.7306976318359 126.8825607299805 182.3419799804688 132.5300598144531 C 179.9964294433594 138.0755920410156 177.0931396484375 143.4244537353516 173.7127380371094 148.4280853271484 C 170.3640594482422 153.3847961425781 166.5182189941406 158.0459594726562 162.2820892333984 162.2820892333984 C 158.0459594726562 166.5182189941406 153.3847961425781 170.3640594482422 148.4280853271484 173.7127380371094 C 143.4244537353516 177.0931396484375 138.0755920410156 179.9964294433594 132.5300598144531 182.3419799804688 C 126.8825607299805 184.7306976318359 120.9725036621094 186.5652618408203 114.9641342163086 187.7947387695312 C 108.7977676391602 189.0565795898438 102.4503479003906 189.6963806152344 96.09819030761719 189.6963806152344 Z" stroke="none"/>
      <path d="M 96.09819030761719 4.999984741210938 C 89.91401672363281 4.999984741210938 83.73522186279297 5.622726440429688 77.73342895507812 6.850860595703125 C 71.88671875 8.047271728515625 66.13571929931641 9.832489013671875 60.64019775390625 12.15689086914062 C 55.24333190917969 14.4395751953125 50.03765869140625 17.26516723632812 45.16780090332031 20.55516052246094 C 40.34292602539062 23.81480407714844 35.8056640625 27.55842590332031 31.68203735351562 31.68203735351562 C 27.55842590332031 35.8056640625 23.81480407714844 40.34292602539062 20.55516052246094 45.16780090332031 C 17.26516723632812 50.03765869140625 14.4395751953125 55.24333190917969 12.15689086914062 60.64019775390625 C 9.832489013671875 66.13571929931641 8.047271728515625 71.88671875 6.850860595703125 77.73342895507812 C 5.622726440429688 83.73522186279297 4.999984741210938 89.91401672363281 4.999984741210938 96.09819030761719 C 4.999984741210938 102.2823638916016 5.622726440429688 108.4611587524414 6.850860595703125 114.4629516601562 C 8.047256469726562 120.3096618652344 9.832489013671875 126.060661315918 12.15689086914062 131.5561828613281 C 14.4395751953125 136.9530487060547 17.26516723632812 142.15869140625 20.55516052246094 147.028564453125 C 23.81477355957031 151.8534240722656 27.55842590332031 156.3907165527344 31.68203735351562 160.5143432617188 C 35.8056640625 164.6379547119141 40.34292602539062 168.3815765380859 45.16780090332031 171.6411895751953 C 50.03765869140625 174.9311828613281 55.24333190917969 177.7567749023438 60.64019775390625 180.0394897460938 C 66.13571929931641 182.3638916015625 71.88671875 184.1491088867188 77.73342895507812 185.3455200195312 C 83.73522186279297 186.5736389160156 89.91401672363281 187.1963653564453 96.09819030761719 187.1963653564453 C 102.2823638916016 187.1963653564453 108.4611587524414 186.5736389160156 114.4629516601562 185.3455200195312 C 120.3096618652344 184.1491088867188 126.060661315918 182.3638916015625 131.5561828613281 180.0394897460938 C 136.9530487060547 177.7567749023438 142.1587219238281 174.9311828613281 147.028564453125 171.6411895751953 C 151.8534240722656 168.3815765380859 156.3907165527344 164.6379547119141 160.5143432617188 160.5143432617188 C 164.6379547119141 156.3907165527344 168.3815765380859 151.8534240722656 171.6411895751953 147.028564453125 C 174.9311828613281 142.1587219238281 177.7567749023438 136.9530487060547 180.0394897460938 131.5561828613281 C 182.3638916015625 126.060661315918 184.1491088867188 120.3096618652344 185.3455200195312 114.4629516601562 C 186.5736389160156 108.4611587524414 187.1963653564453 102.2823638916016 187.1963653564453 96.09819030761719 C 187.1963653564453 89.91401672363281 186.5736389160156 83.73522186279297 185.3455200195312 77.73342895507812 C 184.1491088867188 71.88671875 182.3638916015625 66.13571929931641 180.0394897460938 60.64019775390625 C 177.7567749023438 55.24333190917969 174.9311828613281 50.03765869140625 171.6411895751953 45.16780090332031 C 168.3815765380859 40.34292602539062 164.6379547119141 35.8056640625 160.5143432617188 31.68203735351562 C 156.3907165527344 27.55842590332031 151.8534240722656 23.81477355957031 147.028564453125 20.55516052246094 C 142.15869140625 17.26516723632812 136.9530487060547 14.4395751953125 131.5561828613281 12.15689086914062 C 126.060661315918 9.832489013671875 120.3096618652344 8.047256469726562 114.4629516601562 6.850860595703125 C 108.4611587524414 5.622726440429688 102.2823638916016 4.999984741210938 96.09819030761719 4.999984741210938 M 96.09819030761719 -1.52587890625e-05 C 149.1717529296875 -1.52587890625e-05 192.1963653564453 43.02462768554688 192.1963653564453 96.09819030761719 C 192.1963653564453 149.1717529296875 149.1717529296875 192.1963653564453 96.09819030761719 192.1963653564453 C 43.02462768554688 192.1963653564453 -1.52587890625e-05 149.1717529296875 -1.52587890625e-05 96.09819030761719 C -1.52587890625e-05 43.02462768554688 43.02462768554688 -1.52587890625e-05 96.09819030761719 -1.52587890625e-05 Z" stroke="none" fill="#ee4e5d"/>
    </g>
    <g id="Grupo_879525" data-name="Grupo 879525" transform="translate(815.561 2024.518)">
      <path id="Trazado_619700" data-name="Trazado 619700" d="M2254.084,933.33a7.186,7.186,0,0,1,8.29.244c2.275,1.894,2.775,5.72.779,7.905-.557-2.528,2.375-4.932,4.875-4.261s3.917,3.676,3.287,6.186a7.482,7.482,0,0,1-5.4,5.063c1.278-2.744,5.57-3.043,7.677-.87s2.059,5.844.463,8.416a12.836,12.836,0,0,1-7.3,5.065,2.609,2.609,0,0,1,3.893-.52,3.772,3.772,0,0,1,.765,4.173,7.038,7.038,0,0,1-3.057,3.227,12.675,12.675,0,0,1-19.159-10.808c-.032-4.914,2.423-9.432,1.5-14.387C2250,939.028,2250.528,935.643,2254.084,933.33Z" transform="translate(-1939.078 -672.878)" fill="#d2e1f1"/>
      <path id="Trazado_619701" data-name="Trazado 619701" d="M2282.96,1025.406a5.145,5.145,0,0,1,5.986.178,4.2,4.2,0,0,1,.563,5.769c-.4-1.845,1.715-3.6,3.521-3.109a3.794,3.794,0,0,1,2.374,4.514,5.426,5.426,0,0,1-3.9,3.695c.923-2,4.022-2.22,5.544-.635a5.2,5.2,0,0,1,.334,6.141,9.267,9.267,0,0,1-5.273,3.7,1.873,1.873,0,0,1,2.811-.379,2.774,2.774,0,0,1,.552,3.045,5.116,5.116,0,0,1-2.207,2.354,9.257,9.257,0,0,1-9.18.109,9.456,9.456,0,0,1-4.656-8c-.023-3.586,1.75-6.883,1.087-10.5C2280.013,1029.564,2280.392,1027.094,2282.96,1025.406Z" transform="translate(-1967.369 -759.339)" fill="#b0c0d2"/>
      <g id="Grupo_879506" data-name="Grupo 879506" transform="translate(301.917 252.506)">
        <g id="Grupo_879505" data-name="Grupo 879505">
          <path id="Trazado_619702" data-name="Trazado 619702" d="M2121.658,867.392a4.451,4.451,0,0,1,1.02-3.2,8.4,8.4,0,0,1,2.472-2.013c1.858-1.022,3.867-1.652,5.234-2.907,1.392-1.224,1.845-3.151,1.951-5.136s-.071-4.11.149-6.173a9.843,9.843,0,0,1,.774-2.968,9.684,9.684,0,0,1,1.708-2.47c1.356-1.47,2.977-2.657,4.318-4.079a10.225,10.225,0,0,0,2.671-5.115,32.349,32.349,0,0,0,.565-6.051.218.218,0,0,1,.28-.2.33.33,0,0,1,.272.3,33.068,33.068,0,0,1-.437,6.177A10.8,10.8,0,0,1,2139.96,839c-1.354,1.5-2.945,2.73-4.2,4.164a8.129,8.129,0,0,0-2.175,5.074c-.167,1.958.056,4.044-.008,6.153-.06,2.074-.494,4.341-2.116,5.849-1.574,1.494-3.68,2.179-5.338,3.161-1.626.954-3.012,2.4-2.815,4.138a.634.634,0,0,1-.739.7,1,1,0,0,1-.91-.821S2121.658,867.4,2121.658,867.392Z" transform="translate(-2121.641 -827.079)" fill="#592609"/>
          <path id="Trazado_619703" data-name="Trazado 619703" d="M2330.6,903.079a3.244,3.244,0,0,1-1.159-2.948,8.115,8.115,0,0,1,1.279-2.33,5.2,5.2,0,0,0-.285-5.213,5.575,5.575,0,0,1,.666,5.426,8.134,8.134,0,0,0-1.044,2.3,2.609,2.609,0,0,0,1.041,2.248.379.379,0,0,1,.107.538.427.427,0,0,1-.576,0Z" transform="translate(-2316.043 -888.378)" fill="#592609"/>
          <path id="Trazado_619704" data-name="Trazado 619704" d="M2414.6,1125.595l2.554,1.274a13.476,13.476,0,0,0,2.583,1.087,3.212,3.212,0,0,0,2.49-.2c.63-.4,1.339-1.071,2.306-.7-.973-.334-1.617.344-2.241.778a3.29,3.29,0,0,1-2.57.3,13.664,13.664,0,0,1-2.664-1.026l-2.586-1.2a.206.206,0,0,1-.126-.244.175.175,0,0,1,.247-.072Z" transform="translate(-2395.527 -1106.387)" fill="#592609"/>
          <path id="Trazado_619705" data-name="Trazado 619705" d="M2387.6,903.3a4.234,4.234,0,0,0,2.83-1.73c.716-.882,1.206-1.955,1.866-2.936a5.6,5.6,0,0,1,2.734-2.3,15.446,15.446,0,0,1,3.778-.775,14.9,14.9,0,0,0-3.664.951,5.287,5.287,0,0,0-2.48,2.362c-.584.993-1,2.1-1.7,3.083a4.687,4.687,0,0,1-3.1,2.1.509.509,0,0,1-.533-.311.311.311,0,0,1,.244-.439Z" transform="translate(-2370.229 -891.158)" fill="#592609"/>
          <path id="Trazado_619706" data-name="Trazado 619706" d="M2204.119,1046.59a1.463,1.463,0,0,0-.4-1.392,5.649,5.649,0,0,0-1.588-1.307,13.415,13.415,0,0,1-1.966-1.372,5.378,5.378,0,0,1-1.347-1.958,9.512,9.512,0,0,1-.468-4.075l.136-3.929.174,3.98a9.547,9.547,0,0,0,.728,3.9,4.709,4.709,0,0,0,1.252,1.611,12.606,12.606,0,0,0,1.883,1.149,6.98,6.98,0,0,1,2.013,1.5,2.632,2.632,0,0,1,.77,2.434l-.007.022a.545.545,0,0,1-.766.262.668.668,0,0,1-.435-.765A.465.465,0,0,1,2204.119,1046.59Z" transform="translate(-2193.396 -1019.351)" fill="#592609"/>
          <path id="Trazado_619707" data-name="Trazado 619707" d="M2131.545,1097.249a3.684,3.684,0,0,0-1.937-1.24,10.718,10.718,0,0,1-2.516-1.009,5.532,5.532,0,0,1-1.72-2.048,10.438,10.438,0,0,1-.937-2.295,10.826,10.826,0,0,0,1.115,2.228,5.308,5.308,0,0,0,1.725,1.81,10.083,10.083,0,0,0,2.425.775,4.549,4.549,0,0,1,2.515,1.452.336.336,0,0,1-.055.518.479.479,0,0,1-.585-.149C2131.566,1097.28,2131.553,1097.262,2131.545,1097.249Z" transform="translate(-2124.256 -1073.718)" fill="#592609"/>
        </g>
        <path id="Trazado_619708" data-name="Trazado 619708" d="M2290.5,1024.375a2.506,2.506,0,0,1,1.124-2.469,4.746,4.746,0,0,1,2.708-.78c1.949-.047,3.889.486,5.649.217a3.32,3.32,0,0,0,2.166-1.077,6,6,0,0,0,1.014-2.189,7.9,7.9,0,0,1,.94-2.3,2.726,2.726,0,0,1,2.119-1.3,2.637,2.637,0,0,0-2.018,1.368,7.891,7.891,0,0,0-.819,2.318,6.228,6.228,0,0,1-.948,2.319,3.57,3.57,0,0,1-2.293,1.274c-1.862.351-3.875-.125-5.65,0a3.992,3.992,0,0,0-2.3.754,1.9,1.9,0,0,0-.794,1.883.344.344,0,0,1-.358.423.558.558,0,0,1-.536-.414C2290.506,1024.392,2290.5,1024.381,2290.5,1024.375Z" transform="translate(-2279.621 -1002.433)" fill="#592609"/>
      </g>
      <path id="Trazado_619709" data-name="Trazado 619709" d="M449.716,1501.786s-7.085,14.71-12.424,14.937c-2.094.087-6.439.332-11.22.768-.506.052-1.012.1-1.536.157-3.909.384-7.974.89-11.238,1.536a21.2,21.2,0,0,0-5.549,1.675,1.062,1.062,0,0,0-.244.122s-5.88,8.6-33.259,4.9a36.3,36.3,0,0,0-4.153-1.239,48.123,48.123,0,0,0-16.874-1.187c-.332.035-.663.087-.995.14,0,0-19.4,3.472-26.715-3.473a6.116,6.116,0,0,1-.663-.68,21.939,21.939,0,0,1-4.1-.087c-2.338-.262-4.973-1.047-5.933-3.071-1.85-3.926-3.158-14.291-3.158-14.291l3.211.925,11.395,3.3h.017l6.858,1.989,22.789-.523,15.809-.349s.366-.052,1.03-.157c2.9-.384,11.621-1.588,22.213-2.862,6.422-.768,13.506-1.57,20.416-2.233.017-.018.017-.018.035,0,3.856-.384,7.678-.716,11.255-.977,4.938-.366,9.475-.593,13.174-.628,4.816-.035,8.254.262,9.423,1.082Z" transform="translate(-126.057 -1204.692)" fill="#aa5100"/>
      <path id="Trazado_619710" data-name="Trazado 619710" d="M2067.151,1487.209c-.035,1.309-1.274,2.3-2.53,2.7-1.239.4-2.6.419-3.839.873-2.774,1.012-4.328,3.874-5.654,6.508-.855,1.71-1.71,3.438-2.565,5.148-.506.052-1.012.1-1.535.157.349-2.565.68-5.13,1.03-7.678.226-1.623.384-3.42-.611-4.816-.75-1.064-2.425-1.78-1.1-3.054a6.039,6.039,0,0,1,2.827-.995c.767-.14,1.5-.227,1.989-.349a62.992,62.992,0,0,1,6.474-1.187,8.031,8.031,0,0,1,3.472.122,3.327,3.327,0,0,1,1.239.785A2.361,2.361,0,0,1,2067.151,1487.209Z" transform="translate(-1752.548 -1189.645)" fill="#934403"/>
      <path id="Trazado_619711" data-name="Trazado 619711" d="M1614.011,1527.677q-2.617,4.135-5.235,8.254c-.733,1.187-1.483,2.356-2.233,3.542a21.211,21.211,0,0,0-5.549,1.675c.192-2.862-.489-6.544-2.391-8.725-1.675-1.937-5.584-1.9-7.974-2.391-1.448-.3-3.124-.785-3.647-2.181a2.968,2.968,0,0,1,1.169-3.193c.017-.017.052-.035.07-.052a7.7,7.7,0,0,1,3.28-1.221,60.1,60.1,0,0,1,17.136-1.012c.017-.017.017-.017.035,0,1.082.07,2.146.192,3.228.349,1.117.157,2.373.436,2.879,1.431C1615.372,1525.268,1614.674,1526.612,1614.011,1527.677Z" transform="translate(-1319.301 -1224.982)" fill="#934403"/>
      <path id="Trazado_619712" data-name="Trazado 619712" d="M371.157,1533.218c-1.117,1.274-1.047,3.961-.628,5.462a21.563,21.563,0,0,1,.89,2.914v.07a6.086,6.086,0,0,1-.663-.68,21.933,21.933,0,0,1-4.1-.087c-.052-.558-.07-1.117-.1-1.675a22.061,22.061,0,0,0-4.764-12.215c-.593-.75-1.274-1.71-1.012-2.548a.927.927,0,0,1,.14-.3c.523-.82,1.745-.75,2.687-.506a24.276,24.276,0,0,1,7.783,3.507,8.4,8.4,0,0,1,.785.593h.017a4.3,4.3,0,0,1,1.5,2.076C374.315,1532.1,372.169,1532.066,371.157,1533.218Z" transform="translate(-171.966 -1226.23)" fill="#934403"/>
      <path id="Trazado_619713" data-name="Trazado 619713" d="M978.768,1597.163c-1.169.611-2.565.436-3.891.506-1.309.07-2.827.628-3.158,1.9-.454,1.815,1.78,3.124,2.408,4.886a3.178,3.178,0,0,1-.035,2.164,48.135,48.135,0,0,0-16.874-1.187,7.735,7.735,0,0,1,.523-3.909c.576-1.623,1.413-3.211,1.483-4.956.07-1.379-.506-2.6-.646-3.944a2.951,2.951,0,0,1,1.344-2.967,8.046,8.046,0,0,1,3.263-1.117,36.778,36.778,0,0,1,9.493-.279,14.724,14.724,0,0,1,4.083.89,6.154,6.154,0,0,1,.593.279,5.8,5.8,0,0,1,3.071,3.56A3.733,3.733,0,0,1,978.768,1597.163Z" transform="translate(-730.055 -1286.669)" fill="#934403"/>
      <path id="Trazado_619714" data-name="Trazado 619714" d="M798.6,716.871a7.6,7.6,0,0,0,1.99-4.9c-.109-1.8-1.782-3.578-3.539-3.169a9.321,9.321,0,0,0-9.673-15.264,28.106,28.106,0,0,0-22.127-6.668,11.029,11.029,0,0,0-4.791,1.6,5.071,5.071,0,0,0-2.354,4.272A40.171,40.171,0,0,0,736.42,695a10.559,10.559,0,0,0-4.377,2.8,4.359,4.359,0,0,0-.657,4.876c.591.967,1.675,1.619,2.038,2.692.665,1.964-1.36,3.668-2.683,5.265a9.136,9.136,0,0,0,9.21,14.7c2.03-.5,4.093-1.7,6.074-1.03,2.452.823,3.175,3.9,4.933,5.8,2.133,2.3,5.717,2.664,8.763,1.913s5.773-2.417,8.646-3.679a15.1,15.1,0,0,1,9.117-1.2c2.455.415,4.387.7,6.742-.255C789.575,724.713,795.032,721.47,798.6,716.871Z" transform="translate(-516.296 -443.139)" fill="#c6c491"/>
      <path id="Trazado_619715" data-name="Trazado 619715" d="M189.4,845.4a11.174,11.174,0,0,1-8.33-4.535,5.846,5.846,0,0,1-1.2-5.07c.559-1.714,2.78-2.878,4.28-1.876a13.216,13.216,0,0,1-6.631-7.025,9.115,9.115,0,0,1,1.653-9.248c2.278-2.386,6.367-2.978,8.983-.97a6.274,6.274,0,1,1,4.321-11.573c.316-3.391,4.145-5.348,7.545-5.556,3.592-.219,7.437.938,9.686,3.747s2.329,7.4-.378,9.768c1.1-1.955,4.075-2.2,5.9-.9a7.478,7.478,0,0,1,2.69,5.914,12.875,12.875,0,0,1-6.175,11.271l2.808-1.52a12.109,12.109,0,0,1-3.221,11.926c-3.3,3.128-7.031,3.08-11.252,3.06C196.228,842.8,193.349,845.61,189.4,845.4Z" transform="translate(0 -548.786)" fill="#dee4f0"/>
      <path id="Trazado_619716" data-name="Trazado 619716" d="M314.186,959.966a8.6,8.6,0,0,1-6.414-3.491,4.5,4.5,0,0,1-.922-3.9c.431-1.32,2.141-2.216,3.3-1.445a10.176,10.176,0,0,1-5.106-5.409,7.018,7.018,0,0,1,1.273-7.121,5.392,5.392,0,0,1,6.917-.747,4.831,4.831,0,1,1,3.327-8.911c.243-2.611,3.192-4.118,5.809-4.278a8.843,8.843,0,0,1,7.458,2.885c1.732,2.163,1.793,5.7-.291,7.521.849-1.505,3.137-1.7,4.542-.691a5.758,5.758,0,0,1,2.071,4.554,9.914,9.914,0,0,1-4.755,8.679l2.162-1.17a9.324,9.324,0,0,1-2.48,9.183c-2.541,2.408-5.414,2.371-8.664,2.356C319.446,957.964,317.229,960.128,314.186,959.966Z" transform="translate(-119.451 -665.865)" fill="#b0c0d2"/>
      <path id="Trazado_619717" data-name="Trazado 619717" d="M778.437,265.98a7.875,7.875,0,0,1,9.095-2.486,11.475,11.475,0,0,1-2.209-10.308,9.05,9.05,0,0,1,8.036-6.4c3.655-.1,7.261,2.827,7.553,6.472a5.278,5.278,0,0,1,10.453,1.224,5.325,5.325,0,1,1,5.2,9.257,4.753,4.753,0,1,1,4.646,7.96c.788-2.2,3.784-3.081,5.851-1.994a5.888,5.888,0,0,1,2.767,5.967,9.661,9.661,0,0,1-3.537,5.865,28.715,28.715,0,0,1-5.994,3.591L804.752,292.8a40.173,40.173,0,0,1-9.679,3.773,12.087,12.087,0,0,1-15.417-10.206c-.749-3.627.249-7.574-1.135-10.964C777.206,272.177,776.076,269.156,778.437,265.98Z" transform="translate(-561.558 -31.568)" fill="#d2e1f1"/>
      <path id="Trazado_619718" data-name="Trazado 619718" d="M903.946,404.162a5.854,5.854,0,0,1,6.76-1.848,8.53,8.53,0,0,1-1.642-7.662,6.727,6.727,0,0,1,5.973-4.759,5.574,5.574,0,0,1,5.614,4.811,3.923,3.923,0,0,1,7.77.91,3.958,3.958,0,1,1,3.866,6.881,3.533,3.533,0,1,1,3.454,5.917,3.178,3.178,0,0,1,4.349-1.483,4.377,4.377,0,0,1,2.056,4.435,7.182,7.182,0,0,1-2.629,4.359,21.347,21.347,0,0,1-4.455,2.669l-11.557,5.7a29.855,29.855,0,0,1-7.194,2.8,8.984,8.984,0,0,1-11.459-7.586c-.557-2.7.185-5.63-.844-8.15C903.031,408.768,902.191,406.523,903.946,404.162Z" transform="translate(-679.33 -165.481)" fill="#b0c0d2"/>
      <path id="Trazado_619719" data-name="Trazado 619719" d="M1436.627,304.859c.756-4.41,6.186-7.309,10.271-5.483a5.757,5.757,0,0,1,10.325-5.093A6.59,6.59,0,0,1,1470.332,293c1.2-1.943,4.19-2.248,6.03-.9a6.15,6.15,0,0,1,2.061,6.147,10.976,10.976,0,0,1-3.582,5.7,58.017,58.017,0,0,1-5.5,4.069,50.008,50.008,0,0,0-12.48,12.871c-.009.013-12.176-7.009-13.5-7.457C1439.556,312.156,1435.821,309.565,1436.627,304.859Z" transform="translate(-1178.63 -69.489)" fill="#b0c0d2"/>
      <path id="Trazado_619720" data-name="Trazado 619720" d="M375.051,1413.873l-.662.021c-7.265.236-72.2,2.278-64.784,8.042,7.852,6.108,16.806,6.115,13.534,7.859s2.844,5.538,15.258,6.246c3.177.181,14.515.3,13.861-3.628s22.575-.327,14.832,1.745,3.879,4.21,15.7,3.926c13.328-.32,29.992-5.78,14.4-9.6,0,0-4.908-1.2,7.307-1.527s23.23-1.527,16.9-4.362c0,0-2.181-1.091,4.035.218s27.374-.763,20.5-3.272-71.119-5.664-71.119-5.664Z" transform="translate(-123.588 -1123.656)" fill="#c4ab31"/>
      <path id="Trazado_619721" data-name="Trazado 619721" d="M375.051,1413.873l-.662.021c-7.265.236-72.2,2.278-64.784,8.042,7.852,6.108,16.806,6.115,13.534,7.859s2.844,5.538,15.258,6.246c3.177.181,14.515.3,13.861-3.628s22.575-.327,14.832,1.745,3.879,4.21,15.7,3.926c13.328-.32,29.992-5.78,14.4-9.6,0,0-4.908-1.2,7.307-1.527s23.23-1.527,16.9-4.362c0,0-2.181-1.091,4.035.218s27.374-.763,20.5-3.272-71.119-5.664-71.119-5.664Z" transform="translate(-123.588 -1123.656)" fill="#c4ab31"/>
      <path id="Trazado_619722" data-name="Trazado 619722" d="M375.051,1413.873l-.662.021c-7.265.236-72.2,2.278-64.784,8.042,7.852,6.108,16.806,6.115,13.534,7.859s2.844,5.538,15.258,6.246c3.177.181,14.515.3,13.861-3.628s22.575-.327,14.832,1.745,3.879,4.21,15.7,3.926c13.328-.32,29.992-5.78,14.4-9.6,0,0-4.908-1.2,7.307-1.527s23.23-1.527,16.9-4.362c0,0-2.181-1.091,4.035.218s27.374-.763,20.5-3.272-71.119-5.664-71.119-5.664Z" transform="translate(-123.588 -1123.656)" fill="#bfce28"/>
      <path id="Trazado_619723" data-name="Trazado 619723" d="M1450.6,246.346l6.8,6.033a5.2,5.2,0,0,0,3.078,1.661c2.113.062,3.451-2.573,2.921-4.619s-2.235-3.54-3.852-4.9a18.757,18.757,0,0,0,4.832,2.328,19.686,19.686,0,0,1,4.886,2.7,17.771,17.771,0,0,1,6.2,9.13c1.628,5.847.09,12.728-4.515,16.829-.718.639-1.559,1.318-1.651,2.275a2.307,2.307,0,0,0,1.357,2.136c3.686,1.877,6.171-1.967,8.871-3.707,1.791-1.154,4.572-1.433,5.738.35a11.823,11.823,0,0,0-7.87,17.7c1.623,2.7,4.28,4.681,5.749,7.464a11.7,11.7,0,0,1-.359,11,14.829,14.829,0,0,1-8.93,6.741,34.085,34.085,0,0,1-10.17.736l-35.085-.985c-2.852-.08-6.082-.337-7.877-2.555-1.577-1.948-1.453-4.818-.537-7.15s2.5-4.333,3.721-6.521,2.1-4.773,1.414-7.184c-.929-3.286-4.325-5.125-7.4-6.6l10.565,2.484c1.25.294,2.676.557,3.727-.179,1.494-1.047,1.156-3.514-.15-4.787s-3.185-1.707-4.935-2.223-3.606-1.283-4.478-2.884c-2.05-3.764,2-6.934,4.078-9.477a12.754,12.754,0,0,0,2.754-5.124c.881-3.9-1.765-8.476-5.384-10,1.953.351,3.655-.137,5.619-.066a13.76,13.76,0,0,1,6.185,1.738c1.623.907,3.185,1.516,4.85.157a8.264,8.264,0,0,0,2.376-4.436,37.945,37.945,0,0,0,1.193-7.138q.127-1.808.082-3.622c0-.182.313-3.025.366-2.97.841.877,1.714,1.725,2.549,2.607C1448.366,244.356,1449.486,245.353,1450.6,246.346Z" transform="translate(-1161.225 -25.862)" fill="#ffdb45"/>
      <path id="Trazado_619724" data-name="Trazado 619724" d="M1515.386,375.55c-1.018,0-2.037-.027-3.051-.056l-35.084-.985c-2.488-.07-5.253-.28-6.57-1.907-1.189-1.469-.919-3.761-.269-5.416a23.759,23.759,0,0,1,2.183-3.948c.495-.779.989-1.558,1.437-2.36,1.752-3.137,2.279-6,1.569-8.51a8.307,8.307,0,0,0-1.173-2.476l2.256.532a10.54,10.54,0,0,0,2.414.344,4.64,4.64,0,0,0,2.714-.792,4.1,4.1,0,0,0,1.711-3.1,5.617,5.617,0,0,0-1.643-4.364,11.413,11.413,0,0,0-5.1-2.485l-.556-.162c-1.29-.38-2.846-.954-3.441-2.045-1.021-1.874.371-3.623,2.61-6.077.464-.508.907-1,1.289-1.464a14.166,14.166,0,0,0,3.1-5.842,10.749,10.749,0,0,0-2.225-8.71c.118,0,.7,0,.7,0a12.022,12.022,0,0,1,5.4,1.518,7.5,7.5,0,0,0,3.644,1.172,4.913,4.913,0,0,0,3.16-1.188,9.841,9.841,0,0,0,2.959-5.337,39.776,39.776,0,0,0,1.247-7.466c.066-.925.1-1.863.1-2.8,1.105,1.113,2.263,2.14,3.289,3.052l6.8,6.032a6.763,6.763,0,0,0,4.184,2.1,4.43,4.43,0,0,0,3.615-1.8,5.928,5.928,0,0,0,1.068-4.921,15.771,15.771,0,0,1,3.082,1.861,16,16,0,0,1,5.594,8.224c1.535,5.511-.07,11.562-3.994,15.055l-.151.135a5.115,5.115,0,0,0-2.076,3.275,4.027,4.027,0,0,0,2.3,3.86,6.035,6.035,0,0,0,2.756.7,6.419,6.419,0,0,0,3.254-.947,13.005,13.005,0,0,0-.749,1.435,13.756,13.756,0,0,0,.775,12.509,25.2,25.2,0,0,0,2.919,3.732,19.225,19.225,0,0,1,2.781,3.648,9.976,9.976,0,0,1-.335,9.33,13.021,13.021,0,0,1-7.881,5.917A24.811,24.811,0,0,1,1515.386,375.55Z" transform="translate(-1209.827 -82.89)" fill="#f1b62b"/>
      <path id="Trazado_619725" data-name="Trazado 619725" d="M395.045,1147.226a7.142,7.142,0,0,0-3.258-6.449l3.828,1.294a11.039,11.039,0,0,1,.472-10.909,6.047,6.047,0,0,0,4.67,6.5,8.939,8.939,0,0,1,4.716-9.221,5.864,5.864,0,0,0-1.119,2.021,2,2,0,0,0,.625,2.1c1.123.795,2.6-.256,3.562-1.242-1.186.55-1.355,2.273-.727,3.42a9.962,9.962,0,0,0,2.8,2.706c2.679,2.139,4.769,5.273,4.838,8.7s-2.352,6.975-5.749,7.432c-3.673.494-6.992-1.922-10.719-1.38C395.071,1152.762,394.769,1150.9,395.045,1147.226Z" transform="translate(-201.04 -856.565)" fill="#ffd215"/>
      <path id="Trazado_619726" data-name="Trazado 619726" d="M1425.681,936.04a6.212,6.212,0,0,0,8.645-6.511,17.937,17.937,0,0,1-.577-3.539,4.967,4.967,0,0,1,2.423-3.646,14.689,14.689,0,0,1,4.223-1.614,7.152,7.152,0,0,0-8.141-.1,14.546,14.546,0,0,1-1.818,1.282,2.072,2.072,0,0,1-2.116-.024c-1.089-.814-.47-2.616.565-3.5s2.42-1.442,3.056-2.643c.958-1.811-.315-4.027-1.86-5.373s-3.471-2.4-4.376-4.241a3.38,3.38,0,0,1-3.875,5.465c-2.091-1.1-2.783-4.189-5.072-4.769-1.656-.42-3.319.766-4.3,2.165s-1.562,3.063-2.661,4.371-3.031,2.194-4.521,1.358c-1.828-1.026-1.97-4-3.927-4.753-1.019-.393-2.214-.019-3.23-.421-1.666-.659-1.91-2.843-2.5-4.536a8.071,8.071,0,0,0-7.977-5.242,8.373,8.373,0,0,1,2.972,4.307c.364,1.738-.535,3.843-2.266,4.237-1.394.318-2.759-.505-4.132-.906a7.322,7.322,0,0,0-7.973,2.975c.422,2.489-.5,5-1.5,7.314s-2.121,4.685-2.13,7.21,1.484,5.267,3.963,5.747c1.892.367,3.968-.62,5.723.178,1.111.5,1.825,1.624,2.881,2.234,1.656.956,3.734.476,5.579-.029l15.01-4.114c3.142-.861,6.658-1.686,9.522-.134,1.657.9,2.824,2.465,4.207,3.745a14.863,14.863,0,0,0,8.723,3.865Z" transform="translate(-1118.837 -642.573)" fill="#ee4e5d"/>
      <g id="Grupo_879508" data-name="Grupo 879508" transform="translate(255.405 235.898)">
        <g id="Grupo_879507" data-name="Grupo 879507">
          <path id="Trazado_619727" data-name="Trazado 619727" d="M1532.531,629.539a6.429,6.429,0,0,1-.864-3.987,12.021,12.021,0,0,1,1-3.721c1.014-2.288,2.368-4.271,2.844-6.475a10.377,10.377,0,0,0-1.124-6.608c-.984-2.143-2.274-4.209-3.2-6.49a14.133,14.133,0,0,1-.947-3.585,14.569,14.569,0,0,1,.109-3.688c.351-2.42,1.077-4.723,1.44-7.081a15.273,15.273,0,0,0-.505-7.065,43.691,43.691,0,0,0-2.785-6.639.291.291,0,0,1,.13-.391.3.3,0,0,1,.39.128,44.279,44.279,0,0,1,2.959,6.685,16.1,16.1,0,0,1,.676,7.4c-.331,2.452-1.01,4.776-1.295,7.092a12,12,0,0,0,.9,6.693c.914,2.138,2.226,4.15,3.308,6.375a11.747,11.747,0,0,1,1.369,7.456c-.521,2.589-1.926,4.692-2.794,6.807-.856,2.065-1.244,4.481-.143,6.148a.873.873,0,1,1-1.456.961Z" transform="translate(-1520.075 -573.45)" fill="#592609"/>
          <path id="Trazado_619728" data-name="Trazado 619728" d="M1483.3,722.448a3.4,3.4,0,0,1-2.565-2.284,12.2,12.2,0,0,1-.178-3.258,6.491,6.491,0,0,0-3.049-5.208,6.709,6.709,0,0,1,3.484,5.177,12.116,12.116,0,0,0,.36,3.074,2.637,2.637,0,0,0,2.088,1.639.437.437,0,0,1-.106.867Z" transform="translate(-1472.396 -702.504)" fill="#592609"/>
          <path id="Trazado_619729" data-name="Trazado 619729" d="M1661.979,831.313l2.838-.372a11.23,11.23,0,0,0,2.762-.585,3.4,3.4,0,0,0,1.989-1.859c.314-.833.551-2,1.566-2.252-1,.3-1.178,1.426-1.469,2.289a3.552,3.552,0,0,1-2,2.012,11.457,11.457,0,0,1-2.8.7l-2.822.474a.207.207,0,0,1-.068-.407Z" transform="translate(-1644.839 -809.691)" fill="#592609"/>
          <path id="Trazado_619730" data-name="Trazado 619730" d="M1581.119,584.087a5.724,5.724,0,0,0,1.453-3.665c.127-1.387-.038-2.823-.01-4.275a8.022,8.022,0,0,1,1.062-4.2,17.528,17.528,0,0,1,2.765-3.3,17.436,17.436,0,0,0-2.574,3.41,7.689,7.689,0,0,0-.817,4.087c.043,1.415.284,2.838.227,4.319a6.466,6.466,0,0,1-1.478,4.23.437.437,0,0,1-.647-.586Z" transform="translate(-1569.219 -568.647)" fill="#592609"/>
          <path id="Trazado_619731" data-name="Trazado 619731" d="M1443.269,963.254a1.63,1.63,0,0,0-1.087-1.177,4.671,4.671,0,0,0-2.042-.3,10.936,10.936,0,0,1-2.4-.119,4.916,4.916,0,0,1-2.19-1.136,11.562,11.562,0,0,1-2.59-3.909l-2-4.158,2.291,4.005a11.121,11.121,0,0,0,2.713,3.554,4.179,4.179,0,0,0,1.922.838,10.259,10.259,0,0,0,2.205-.057,5.724,5.724,0,0,1,2.5.215,2.849,2.849,0,0,1,1.96,2.01l.006.027a.656.656,0,1,1-1.293.207Z" transform="translate(-1428.838 -927.788)" fill="#592609"/>
          <path id="Trazado_619732" data-name="Trazado 619732" d="M1407.431,1065.314a3.036,3.036,0,0,0-2.3,0,8.953,8.953,0,0,1-2.663.621,4.84,4.84,0,0,1-2.553-.982,10.721,10.721,0,0,1-2.026-1.755,10.614,10.614,0,0,0,2.14,1.569,4.531,4.531,0,0,0,2.429.732,8.626,8.626,0,0,0,2.46-.8,3.756,3.756,0,0,1,2.9-.161.437.437,0,0,1-.339.806Z" transform="translate(-1397.89 -1031.414)" fill="#592609"/>
        </g>
        <path id="Trazado_619733" data-name="Trazado 619733" d="M1571.3,732.789a3.65,3.65,0,0,1-.384-3.3,5.631,5.631,0,0,1,1.861-2.6c1.617-1.34,3.538-2.072,4.876-3.516a4.332,4.332,0,0,0,1.244-2.549,8.95,8.95,0,0,0-.325-2.938,11.741,11.741,0,0,1-.446-3,3.68,3.68,0,0,1,1.083-2.752,3.62,3.62,0,0,0-.963,2.752,11.573,11.573,0,0,0,.559,2.943,9.21,9.21,0,0,1,.451,3.028,4.753,4.753,0,0,1-1.245,2.838c-1.379,1.6-3.332,2.436-4.761,3.738a4.844,4.844,0,0,0-1.531,2.3,2.756,2.756,0,0,0,.345,2.475.48.48,0,0,1-.748.6Z" transform="translate(-1559.592 -702.912)" fill="#592609"/>
      </g>
      <g id="Grupo_879510" data-name="Grupo 879510" transform="translate(212.762 228.591)">
        <g id="Grupo_879509" data-name="Grupo 879509" transform="translate(0 0)">
          <path id="Trazado_619734" data-name="Trazado 619734" d="M868.993,515.838a6.429,6.429,0,0,1-.864-3.988,12.018,12.018,0,0,1,1-3.72c1.014-2.288,2.368-4.271,2.844-6.475a10.375,10.375,0,0,0-1.124-6.608c-.984-2.143-2.274-4.209-3.2-6.49a14.132,14.132,0,0,1-.947-3.585,14.574,14.574,0,0,1,.109-3.688c.351-2.42,1.077-4.723,1.44-7.081a15.27,15.27,0,0,0-.505-7.065,43.729,43.729,0,0,0-2.784-6.639.291.291,0,0,1,.13-.391.294.294,0,0,1,.39.128,44.281,44.281,0,0,1,2.96,6.685,16.1,16.1,0,0,1,.676,7.4c-.331,2.453-1.01,4.776-1.295,7.092a12,12,0,0,0,.9,6.693c.914,2.138,2.226,4.15,3.308,6.375a11.747,11.747,0,0,1,1.369,7.456c-.521,2.589-1.926,4.693-2.794,6.807-.856,2.064-1.244,4.48-.143,6.148a.873.873,0,0,1-1.456.961Z" transform="translate(-856.537 -459.749)" fill="#592609"/>
          <path id="Trazado_619735" data-name="Trazado 619735" d="M819.767,608.747a3.4,3.4,0,0,1-2.565-2.284,12.2,12.2,0,0,1-.178-3.259A6.492,6.492,0,0,0,813.975,598a6.709,6.709,0,0,1,3.484,5.177,12.111,12.111,0,0,0,.36,3.074,2.637,2.637,0,0,0,2.088,1.639.437.437,0,1,1-.106.867Z" transform="translate(-808.858 -588.803)" fill="#592609"/>
          <path id="Trazado_619736" data-name="Trazado 619736" d="M998.441,717.612l2.838-.372a11.251,11.251,0,0,0,2.762-.585,3.4,3.4,0,0,0,1.989-1.859c.314-.833.551-2,1.566-2.252-1,.3-1.178,1.426-1.469,2.289a3.551,3.551,0,0,1-2,2.012,11.45,11.45,0,0,1-2.8.7l-2.822.474a.207.207,0,0,1-.068-.407Z" transform="translate(-981.301 -695.99)" fill="#592609"/>
          <path id="Trazado_619737" data-name="Trazado 619737" d="M917.581,470.386a5.723,5.723,0,0,0,1.452-3.665c.127-1.387-.038-2.823-.01-4.275a8.021,8.021,0,0,1,1.062-4.2,17.526,17.526,0,0,1,2.765-3.3,17.428,17.428,0,0,0-2.574,3.41,7.691,7.691,0,0,0-.817,4.087c.043,1.415.284,2.838.227,4.319a6.466,6.466,0,0,1-1.478,4.23.436.436,0,0,1-.647-.586Z" transform="translate(-905.681 -454.946)" fill="#592609"/>
          <path id="Trazado_619738" data-name="Trazado 619738" d="M779.731,849.553a1.63,1.63,0,0,0-1.087-1.177,4.673,4.673,0,0,0-2.042-.3,10.925,10.925,0,0,1-2.4-.119,4.916,4.916,0,0,1-2.19-1.136,11.561,11.561,0,0,1-2.59-3.909l-2-4.157,2.291,4.005a11.124,11.124,0,0,0,2.713,3.554,4.177,4.177,0,0,0,1.922.838,10.246,10.246,0,0,0,2.205-.057,5.724,5.724,0,0,1,2.5.215,2.849,2.849,0,0,1,1.96,2.01l.006.028a.656.656,0,0,1-1.283.275A.676.676,0,0,1,779.731,849.553Z" transform="translate(-765.299 -814.088)" fill="#592609"/>
          <path id="Trazado_619739" data-name="Trazado 619739" d="M743.893,951.613a3.036,3.036,0,0,0-2.3,0,8.96,8.96,0,0,1-2.663.621,4.839,4.839,0,0,1-2.553-.982,10.735,10.735,0,0,1-2.026-1.755,10.618,10.618,0,0,0,2.14,1.569,4.529,4.529,0,0,0,2.429.732,8.63,8.63,0,0,0,2.46-.8,3.756,3.756,0,0,1,2.9-.161.437.437,0,1,1-.339.806C743.927,951.631,743.907,951.62,743.893,951.613Z" transform="translate(-734.352 -917.713)" fill="#592609"/>
        </g>
        <path id="Trazado_619740" data-name="Trazado 619740" d="M907.766,619.089a3.65,3.65,0,0,1-.383-3.3,5.632,5.632,0,0,1,1.861-2.6c1.617-1.34,3.538-2.072,4.876-3.516a4.331,4.331,0,0,0,1.244-2.549,8.947,8.947,0,0,0-.326-2.938,11.751,11.751,0,0,1-.446-3,3.679,3.679,0,0,1,1.083-2.752,3.621,3.621,0,0,0-.963,2.752,11.582,11.582,0,0,0,.559,2.942,9.215,9.215,0,0,1,.451,3.028,4.755,4.755,0,0,1-1.245,2.838c-1.379,1.6-3.331,2.436-4.761,3.738a4.845,4.845,0,0,0-1.531,2.3,2.756,2.756,0,0,0,.345,2.475.48.48,0,1,1-.748.6Z" transform="translate(-896.054 -589.212)" fill="#592609"/>
      </g>
      <path id="Trazado_619741" data-name="Trazado 619741" d="M478.724,1265.95a5.812,5.812,0,0,0-2.881-3.905,4.254,4.254,0,0,0-4.685.5,3.373,3.373,0,0,0-.4,4.511,4.847,4.847,0,1,0-6.393,6.793c-1.215-.836-3.036.284-3.291,1.736a4.466,4.466,0,0,0,1.708,3.876,8.556,8.556,0,0,0,14.086-4.509C477.54,1271.9,479.468,1269.182,478.724,1265.95Z" transform="translate(-265.831 -981.141)" fill="#aeb51c"/>
      <path id="Trazado_619742" data-name="Trazado 619742" d="M364.57,552.294a6.154,6.154,0,0,1-6.178-6.554,6.071,6.071,0,1,1-4.438-10.63,11.605,11.605,0,0,1-10.657-2.816,9.906,9.906,0,0,1-2.277-10.6,8.657,8.657,0,0,1,9.319-5.1,12.45,12.45,0,0,1-.309-12.351c2.185-3.726,6.972-5.882,11.091-4.582s6.832,6.252,5.294,10.288c1.414-2.384,5.173-2.519,7.25-.683s2.61,4.954,2.037,7.667a23.721,23.721,0,0,1-3.544,7.473c1.062-2.381,4.563-3.015,6.661-1.468a6.107,6.107,0,0,1,1.7,7.064,9.306,9.306,0,0,1-5.7,5.008,6.93,6.93,0,0,1,4.241,12.927,7,7,0,0,1-4.359.741c-1.073-.143-2.718-1.205-3.8-.93C368.305,548.406,368.017,552.1,364.57,552.294Z" transform="translate(-152.897 -267.84)" fill="#999510"/>
      <g id="Grupo_879516" data-name="Grupo 879516" transform="translate(198.859 231.443)">
        <g id="Grupo_879511" data-name="Grupo 879511">
          <path id="Trazado_619743" data-name="Trazado 619743" d="M525.308,501.23c4.119,1.3,6.832,6.252,5.294,10.288a3.852,3.852,0,0,1,2.108-1.642c1.445-4.014-1.25-8.885-5.33-10.172a9.692,9.692,0,0,0-9.364,2.464A9.3,9.3,0,0,1,525.308,501.23Z" transform="translate(-518.016 -499.327)" fill="#87870b"/>
        </g>
        <g id="Grupo_879512" data-name="Grupo 879512" transform="translate(20.718 22.816)">
          <path id="Trazado_619744" data-name="Trazado 619744" d="M840.4,856.153a4.764,4.764,0,0,1,4.273.566,6.107,6.107,0,0,1,1.7,7.064,7.827,7.827,0,0,1-1.878,2.7,8.686,8.686,0,0,0,3.95-4.227,6.107,6.107,0,0,0-1.7-7.064A4.653,4.653,0,0,0,840.4,856.153Z" transform="translate(-840.399 -854.355)" fill="#87870b"/>
        </g>
        <g id="Grupo_879513" data-name="Grupo 879513" transform="translate(14.778 8.733)">
          <path id="Trazado_619745" data-name="Trazado 619745" d="M753.027,637.994c2.077,1.835,2.61,4.955,2.037,7.667a23.72,23.72,0,0,1-3.544,7.473A3.869,3.869,0,0,1,753.9,651.1a22.13,22.13,0,0,0,3.232-6.967c.573-2.712.04-5.831-2.037-7.667-2.028-1.792-5.643-1.69-7.131.534A5.357,5.357,0,0,1,753.027,637.994Z" transform="translate(-747.969 -635.219)" fill="#87870b"/>
        </g>
        <g id="Grupo_879514" data-name="Grupo 879514" transform="translate(20.99 35.699)">
          <path id="Trazado_619746" data-name="Trazado 619746" d="M854.156,1059.559a7.17,7.17,0,0,0-6.594-4.741,10.9,10.9,0,0,1-2.929,1.553,6.892,6.892,0,0,1,5.879,11.593c.144-.066.295-.114.435-.192A7.153,7.153,0,0,0,854.156,1059.559Z" transform="translate(-844.633 -1054.818)" fill="#87870b"/>
        </g>
        <g id="Grupo_879515" data-name="Grupo 879515" transform="translate(13.914 50.009)">
          <path id="Trazado_619747" data-name="Trazado 619747" d="M734.532,1280.282c1.466-.494,2.24-1.738,3.113-2.789C736.225,1277.88,735.487,1279.17,734.532,1280.282Z" transform="translate(-734.532 -1277.493)" fill="#87870b"/>
        </g>
      </g>
      <path id="Trazado_619748" data-name="Trazado 619748" d="M957.577,427.861c-1.249-3.179-.274-7.246,2.6-9.1s7.368-.73,8.625,2.445c-2.764-3.542-4.743-8.071-3.866-12.478s5.469-8.174,9.783-6.921c3.037.882,5.085,3.947,5.5,7.083a16.579,16.579,0,0,1-1.912,9.158c-.794-1.829.773-4.11,2.749-4.373a4.669,4.669,0,0,1,4.667,3.015,7.647,7.647,0,0,1-.339,5.816,22.7,22.7,0,0,1-3.3,4.969c.2-2.973,3.3-5.276,6.268-5.009a7.5,7.5,0,0,1,6.235,5.614,10.592,10.592,0,0,1-1.738,8.491,18.4,18.4,0,0,1-6.786,5.68,13.658,13.658,0,0,1,4.16-3.4,4.652,4.652,0,0,1,5.06.555,4.553,4.553,0,0,1,.53,5.188,11.228,11.228,0,0,1-3.87,3.935,46.654,46.654,0,0,1-9.426,5.056,4.838,4.838,0,0,1-.551,5.525,7.538,7.538,0,0,1-5.228,2.472,9.461,9.461,0,0,1-9.31-5.208c-1.537-3.467-.126-8.1,3.288-9.75a7.11,7.11,0,0,1-10.361-3.266,6.414,6.414,0,0,1,.113-4.3c.53-1.462,2.546-2.565,2.921-3.77C964.048,433.162,958.539,430.306,957.577,427.861Z" transform="translate(-729.97 -176.407)" fill="#aaa315"/>
      <g id="Grupo_879519" data-name="Grupo 879519" transform="translate(239.04 225.162)">
        <g id="Grupo_879517" data-name="Grupo 879517" transform="translate(0 0)">
          <path id="Trazado_619749" data-name="Trazado 619749" d="M1169.512,439.438a4.351,4.351,0,0,0-4.085-.875,14.321,14.321,0,0,0,1.651-1.965,10.591,10.591,0,0,0,1.738-8.491,7.5,7.5,0,0,0-6.235-5.614,5.864,5.864,0,0,0-3.328.745c.12-.234.253-.462.358-.7a7.646,7.646,0,0,0,.339-5.816,4.669,4.669,0,0,0-4.667-3.015,3.187,3.187,0,0,0-1.286.49,13.443,13.443,0,0,0,.449-5.275c-.413-3.136-2.461-6.2-5.5-7.083a6.906,6.906,0,0,0-5.708,1.019,6.313,6.313,0,0,1,3.2.072c3.037.882,5.085,3.947,5.5,7.083a13.447,13.447,0,0,1-.449,5.275,3.187,3.187,0,0,1,1.286-.489,4.668,4.668,0,0,1,4.667,3.015,7.646,7.646,0,0,1-.339,5.816c-.105.242-.238.47-.358.7a5.865,5.865,0,0,1,3.328-.745,7.5,7.5,0,0,1,6.235,5.615,10.591,10.591,0,0,1-1.738,8.491,14.323,14.323,0,0,1-1.651,1.965,4.351,4.351,0,0,1,4.085.875,4.552,4.552,0,0,1,.53,5.188,11.226,11.226,0,0,1-3.87,3.934,46.654,46.654,0,0,1-6.794,3.912,46.641,46.641,0,0,0,9.3-5,11.225,11.225,0,0,0,3.87-3.934A4.553,4.553,0,0,0,1169.512,439.438Z" transform="translate(-1143.242 -401.591)" fill="#999510"/>
        </g>
        <g id="Grupo_879518" data-name="Grupo 879518" transform="translate(9.119 52.031)">
          <path id="Trazado_619750" data-name="Trazado 619750" d="M1287.021,1212.307a4.839,4.839,0,0,1-.551,5.525,6.063,6.063,0,0,1-1.325,1.154,7.02,7.02,0,0,0,3.833-2.245,4.839,4.839,0,0,0,.555-5.518Q1288.293,1211.8,1287.021,1212.307Z" transform="translate(-1285.145 -1211.223)" fill="#999510"/>
        </g>
      </g>
      <g id="Grupo_879524" data-name="Grupo 879524" transform="translate(268.781 213.045)">
        <path id="Trazado_619751" data-name="Trazado 619751" d="M1639.711,278.666a11.335,11.335,0,0,0,2.344-4.819,5.283,5.283,0,0,0-1.55-4.964,2.8,2.8,0,0,0-4.274,1.04,21.544,21.544,0,0,0,4.932-5.594,8.325,8.325,0,0,0,.475-7.488c-1.171-2.288-4.244-3.353-6.067-1.68a40.329,40.329,0,0,0,5.3-7.345,14.923,14.923,0,0,0,1.75-9.036c-.493-3.1-2.509-6.013-5.274-6.789a5.45,5.45,0,0,0-6.631,4.178,17.864,17.864,0,0,0,4.091-10.9c.039-4.026-1.633-8.142-4.644-10.431a8.339,8.339,0,0,0-10.25-.053c-3.231,2.667-4.142,7.764-3.265,12.125s3.208,8.175,5.491,11.87c-2.456-2.915-6.038-4.928-9.6-4.418s-6.4,4.065-6.5,8.034a14.255,14.255,0,0,0,1.783,7.788c2.677,4.347,6.269,6.356,8.826,10.125-3.31-1.9-7.57,1.175-8.528,5.141s.5,8.178,2.444,11.691c2.449,4.418,7.695,12.713,13.073,11.956C1629.625,288.251,1635.942,283.668,1639.711,278.666Z" transform="translate(-1606.033 -213.045)" fill="#999510"/>
        <g id="Grupo_879523" data-name="Grupo 879523" transform="translate(5.476 0.02)">
          <g id="Grupo_879520" data-name="Grupo 879520" transform="translate(10.167)">
            <path id="Trazado_619752" data-name="Trazado 619752" d="M1853.141,215.66c3.011,2.289,4.683,6.4,4.644,10.431a17.128,17.128,0,0,1-1.981,7.657,5.326,5.326,0,0,1,4.521-.931c.137.038.263.1.4.153a17.068,17.068,0,0,0,1.852-7.414c.039-4.026-1.634-8.142-4.644-10.431a8.534,8.534,0,0,0-8.492-1.1A8.8,8.8,0,0,1,1853.141,215.66Z" transform="translate(-1849.437 -213.357)" fill="#87870b"/>
          </g>
          <g id="Grupo_879521" data-name="Grupo 879521" transform="translate(0 47.51)">
            <path id="Trazado_619753" data-name="Trazado 619753" d="M1691.591,952.9l-.18-.265c-.057.034-.116.062-.172.1C1691.357,952.79,1691.475,952.836,1691.591,952.9Z" transform="translate(-1691.239 -952.637)" fill="#87870b"/>
          </g>
          <g id="Grupo_879522" data-name="Grupo 879522" transform="translate(10.092 18.753)">
            <path id="Trazado_619754" data-name="Trazado 619754" d="M1867.834,537.668a8.325,8.325,0,0,0,.475-7.488c-1.171-2.288-4.245-3.353-6.068-1.68a40.325,40.325,0,0,0,5.3-7.345,14.923,14.923,0,0,0,1.75-9.036c-.493-3.1-2.509-6.013-5.274-6.789a5.3,5.3,0,0,0-4.263.737c2.489.978,4.289,3.688,4.75,6.586a14.923,14.923,0,0,1-1.75,9.036,40.333,40.333,0,0,1-5.3,7.345c1.823-1.672,4.9-.608,6.067,1.681a8.325,8.325,0,0,1-.475,7.488,16.855,16.855,0,0,1-3.35,4.135,2.9,2.9,0,0,1,2.691.419,5.283,5.283,0,0,1,1.55,4.964,11.332,11.332,0,0,1-2.344,4.819,28.647,28.647,0,0,1-13.323,9.767,5.277,5.277,0,0,0,2.036.125c5.988-.843,12.306-5.426,16.075-10.427a11.333,11.333,0,0,0,2.344-4.819,5.284,5.284,0,0,0-1.55-4.964,2.9,2.9,0,0,0-2.692-.419A16.865,16.865,0,0,0,1867.834,537.668Z" transform="translate(-1848.27 -505.156)" fill="#87870b"/>
          </g>
        </g>
        <path id="Trazado_619755" data-name="Trazado 619755" d="M1689.229,289.866c.26-1.8,1.139-3.888,2.716-3.9,1.065-.01,1.976,1.027,2.337,2.193a10.369,10.369,0,0,1,.216,3.668q-.417,6.887-.833,13.773c.979-1.172,2.88-.587,3.609.826a5.724,5.724,0,0,1-.118,4.71,30.5,30.5,0,0,1-2.422,4,22.067,22.067,0,0,0-1.929,18.094c-1.493-4.062-2.946-7.312-5.844-9.7s-6.171-5.047-6.786-9.091c-.5-3.3,1.315-6.932,4.107-7.771,2.883-.866,5.809,1.532,6.479,4.774,2.648-1.926,1.645-6.527.6-9.236C1689.791,298.137,1688.573,294.416,1689.229,289.866Z" transform="translate(-1675.331 -281.277)" fill="#aaa315"/>
        <path id="Trazado_619756" data-name="Trazado 619756" d="M1683.169,979.651a3.876,3.876,0,0,0-4.518.232,6.3,6.3,0,0,0-1.9,5.447,10.251,10.251,0,0,0,2.43,5.415,23.943,23.943,0,0,0,4.256,3.764,19.481,19.481,0,0,1-1.954-3.4,7.217,7.217,0,0,1-.538-3.956,3.651,3.651,0,0,1,2.185-2.905,2.348,2.348,0,0,1,2.874,1.621C1685.219,983.544,1685.346,981.039,1683.169,979.651Z" transform="translate(-1672.173 -929.809)" fill="#aaa315"/>
      </g>
      <path id="Trazado_619757" data-name="Trazado 619757" d="M1459.958,1236.805a4.293,4.293,0,0,1,.337-5.473,3.6,3.6,0,0,1,5.244.435,4.551,4.551,0,1,1,7.737-2.253,7.863,7.863,0,0,1,2.354-7.564,6.249,6.249,0,0,1,7.675-.318,5.2,5.2,0,0,1,.676,7.36,12.842,12.842,0,0,1,2.555-5.911,7.886,7.886,0,0,1,5.578-2.974,5.73,5.73,0,0,1,5.365,3,4.524,4.524,0,0,1-1.562,5.713,11.818,11.818,0,0,1,10.169-5.721,7.616,7.616,0,0,1,4.38,1.291,4.552,4.552,0,0,1,1.959,3.976,3.277,3.277,0,0,1-3.021,2.967,7.814,7.814,0,0,1,4.909-2.717,4.518,4.518,0,0,1,4.634,2.654c.762,2.1-.644,4.5-2.588,5.609s-4.274,1.249-6.51,1.351c-14.047.639-28.072.659-42.128.58C1465.023,1238.8,1461.79,1239.293,1459.958,1236.805Z" transform="translate(-1199.793 -942.337)" fill="#aeb51c"/>
      <path id="Trazado_619758" data-name="Trazado 619758" d="M1614.89,1339.013a3.5,3.5,0,0,0,.74-4.094,4.205,4.205,0,0,0-4.027-1.8,6.971,6.971,0,0,0-4.051,2.038,5.778,5.778,0,0,0-4.5-6.136,6.1,6.1,0,0,0-6.919,3.554,6.2,6.2,0,0,0-5.373-3.458,6.066,6.066,0,0,0-5.512,3.129,10.733,10.733,0,0,0-10.839.093c-1.7,1.07-3.075,2.895-2.713,4.785.365,1.906,2.4,3.232,4.455,3.581a19.75,19.75,0,0,0,6.191-.358,65.786,65.786,0,0,1,14.453-.53c3.939.288,7.714,1.118,11.669,1C1610.772,1340.747,1613.212,1340.71,1614.89,1339.013Z" transform="translate(-1305.063 -1044.126)" fill="#179587"/>
      <path id="Trazado_619759" data-name="Trazado 619759" d="M684.9,723.013c-2.166.4-4.357-.329-6.531-.683s-4.713-.2-6.133,1.486c-1.525,1.807-1.092,4.48-.827,6.829s-.035,5.258-2.179,6.254a4.771,4.771,0,0,1-4.13-.426c-1.27-.666-2.378-1.614-3.657-2.265a9.228,9.228,0,0,0-9.6.9,22.716,22.716,0,0,1,5.964,2.344,7.663,7.663,0,0,1,3.671,5.042c.487,3.1-1.6,5.973-3.694,8.313s-4.44,4.847-4.632,7.98c-.216,3.519,2.521,6.684,5.755,8.087s6.878,1.419,10.4,1.373q15.014-.2,30-1.34a15.693,15.693,0,0,0,5.331-1.049,8.121,8.121,0,0,0,4.65-6.7c.176-2.591-.908-5.074-1.726-7.538s-1.359-5.267-.174-7.577a5.889,5.889,0,0,1,8.779-1.6,9.237,9.237,0,0,0-12.619-2.521,8.343,8.343,0,0,0-3.962-4.408c.434,1.691.859,3.53.177,5.137s-3,2.578-4.229,1.338a3.022,3.022,0,0,1-.312-3.267c.455-1.069,1.234-1.967,1.77-3a7.608,7.608,0,0,0-2.882-9.761,7.431,7.431,0,0,1,.525,5.137,5.085,5.085,0,0,1-3.562,3.555,3.891,3.891,0,0,1-4.381-2.091,5.272,5.272,0,0,1,2.18-6.112c8.394-5.208,2.286-11.751,2.286-11.751a44.393,44.393,0,0,1-2,5.182A6.467,6.467,0,0,1,684.9,723.013Z" transform="translate(-444.382 -469.414)" fill="#ffd815"/>
      <path id="Trazado_619760" data-name="Trazado 619760" d="M712.038,829.432a20.594,20.594,0,0,1-8.163-1.241c-2.393-1.038-4.886-3.476-4.708-6.378.148-2.411,2.084-4.572,3.956-6.661l.236-.262c2.237-2.5,4.725-5.869,4.117-9.749a9.352,9.352,0,0,0-4.463-6.247,15.144,15.144,0,0,0-1.782-.954c.147-.008.295-.012.444-.012a7.184,7.184,0,0,1,3.252.757,16.407,16.407,0,0,1,1.7,1.052,20.179,20.179,0,0,0,1.938,1.2,7.688,7.688,0,0,0,3.479.934,5.176,5.176,0,0,0,2.2-.47c2.467-1.145,3.625-4.073,3.178-8.031l-.055-.469c-.225-1.931-.458-3.928.481-5.039a3.9,3.9,0,0,1,2.971-1.022,9.618,9.618,0,0,1,1.55.133c.518.083,1.036.191,1.556.3a19.367,19.367,0,0,0,3.917.525,8.944,8.944,0,0,0,1.655-.147,8.126,8.126,0,0,0,5.424-3.94,13.4,13.4,0,0,0,.818-1.769,4.526,4.526,0,0,1,.056,1.513c-.223,1.612-1.423,3.1-3.568,4.434a6.989,6.989,0,0,0-2.871,8.266,5.669,5.669,0,0,0,6.383,3.12,6.743,6.743,0,0,0,4.544-3.933,5.212,5.212,0,0,1-.562,2.495,12.911,12.911,0,0,1-.692,1.126,12.634,12.634,0,0,0-1.137,1.994,4.7,4.7,0,0,0,.678,5.179,3.677,3.677,0,0,0,2.645,1.079,5.015,5.015,0,0,0,4.43-2.963,5.993,5.993,0,0,0,.367-1.213c.066.14.127.283.182.428l.8,2.1,1.834-1.293a6.724,6.724,0,0,1,3.9-1.171c.185,0,.368.007.55.019a7,7,0,0,0-3.172,3.049c-1.574,3.067-.714,6.561.07,8.923.14.417.286.838.433,1.259a14.65,14.65,0,0,1,1.209,5.611,6.361,6.361,0,0,1-3.63,5.228,14.386,14.386,0,0,1-4.743.9c-9.916.757-19.971,1.207-29.888,1.336C713.055,829.427,712.547,829.432,712.038,829.432Z" transform="translate(-488.658 -532.335)" fill="#f1b62b"/>
      <path id="Trazado_619761" data-name="Trazado 619761" d="M732.237,1022.424a13.9,13.9,0,0,0,4.2-2.44,6.492,6.492,0,0,0,2.214-4.381c.112-2.564-1.64-4.762-3.409-6.508s-3.763-3.5-4.4-5.976a6.382,6.382,0,0,1,3.87-7.428A5.1,5.1,0,0,0,730.3,996a5.7,5.7,0,0,0-2.66,3.756c-.2.986-.157,2.02-.406,2.994a2.487,2.487,0,0,1-1.868,2.032c-1.008.094-1.876-.884-2.111-1.93a8.031,8.031,0,0,1,.192-3.2,20.423,20.423,0,0,0,.306-7.086,8.974,8.974,0,0,0-3.395-5.926,3.606,3.606,0,0,1-1.783,4.885,3.326,3.326,0,0,1-4.112-2.887,16.125,16.125,0,0,1-.625,4.732,5.017,5.017,0,0,1-3.029,3.313,2.932,2.932,0,0,1-3.629-1.93c.9,1.173.354,3.029-.7,4.054a17,17,0,0,1-3.713,2.221,12.23,12.23,0,0,0-.652,20.455,18.5,18.5,0,0,0,7.369,2.505,108.833,108.833,0,0,0,12.248.915C725.289,1025.1,728.937,1023.781,732.237,1022.424Z" transform="translate(-486.552 -723.888)" fill="#ee4e5d"/>
      <path id="Trazado_619762" data-name="Trazado 619762" d="M747.236,1090.074c-.991-.052-1.978-.094-2.962-.136a72.575,72.575,0,0,1-9.1-.759,17.021,17.021,0,0,1-6.712-2.242,10.315,10.315,0,0,1,.55-17.25c.351-.2.716-.381,1.08-.562a11.083,11.083,0,0,0,2.987-1.928,5.725,5.725,0,0,0,1.177-1.667,4.659,4.659,0,0,0,1.165.149,4.454,4.454,0,0,0,1.271-.183,6.756,6.756,0,0,0,4.2-4.463c.107-.31.2-.623.273-.935a4.742,4.742,0,0,0,1.987.444,4.25,4.25,0,0,0,1.368-.223,4.769,4.769,0,0,0,2.5-2.051,9.281,9.281,0,0,1,.433,1.649,18.837,18.837,0,0,1-.3,6.4,9.616,9.616,0,0,0-.177,3.989,4.06,4.06,0,0,0,3.673,3.36l.287-.013a4.175,4.175,0,0,0,3.4-3.393c.033-.13.062-.261.088-.39a7.48,7.48,0,0,0,.154.758c.712,2.76,2.675,4.675,4.407,6.365l.49.48c2.011,1.984,2.917,3.594,2.853,5.062a4.593,4.593,0,0,1-1.609,3.061,12.389,12.389,0,0,1-3.691,2.117c-2.8,1.153-6.057,2.381-9.175,2.381C747.847,1090.091,747.439,1090.085,747.236,1090.074Z" transform="translate(-511.967 -790.904)" fill="#b82835"/>
      <path id="Trazado_619763" data-name="Trazado 619763" d="M625.375,1224.874a3.352,3.352,0,0,1-2.9-2.583,9.818,9.818,0,0,1,.03-4.131,7.745,7.745,0,0,0,3.659,13.61c3.357.56,6.631-1.1,9.944-1.881a19.476,19.476,0,0,1,8.993.03c1.909.462,3.8,1.22,5.763,1.085s4.036-1.575,3.989-3.539a4.666,4.666,0,0,0-1.8-3.141,13.841,13.841,0,0,1-2.628-2.614,4.6,4.6,0,0,1,3.31-7.016,6.1,6.1,0,0,0-6.321,1.655c-1.141,1.263-1.935,3.14-3.612,3.429a3,3,0,0,1-3.127-2.159,5.686,5.686,0,0,1,.469-4.024,10.842,10.842,0,0,1,9.447-6.211c-3.3-.332-6.715-.6-9.875.414s-6.035,3.635-6.331,6.941c-.115,1.282.157,2.572.081,3.857a3.56,3.56,0,0,1-1.812,3.183c-1.434.608-3.162-.469-3.71-1.927a6.189,6.189,0,0,1,.426-4.537c-.081.189-.993.605-1.205.815a4.368,4.368,0,0,0-.96,1.464,3.754,3.754,0,0,0-.024,2.989C627.892,1222.275,628.143,1224.915,625.375,1224.874Z" transform="translate(-414.313 -930.156)" fill="#ee4e5d"/>
      <path id="Trazado_619764" data-name="Trazado 619764" d="M483.367,1474.333l3.428,2.456,1.184-3.516,1.4,3.283,2.814-2.244,1.274,2.843,3.283-2.964.81,3.093,3.072-2.486,1.024,2.148,2.706-2.366.366,1.719,3.246-2.181.264,2.015a18.534,18.534,0,0,1,8.572-3.719,3.822,3.822,0,0,0-2.894,3.371l3.531-1.561-.062,1.651,2.608-1.33.252,1.771,3.788-1.891.208,1.791,4.469-2.07-.08,2.347a6.682,6.682,0,0,1,3.739-2.625l.134,1.712,3.958-2.5q.033,1.064.067,2.129a10.944,10.944,0,0,1,7.071-2.917l-.315,2.047a6.572,6.572,0,0,1,4.941-2.335l-.461,1.475,4.141-1.676a8.112,8.112,0,0,1-2.878,6.089c-2.6,2.169-6.243,2.465-9.628,2.636-13.693.695-27.4.941-41.112,1.187a32.154,32.154,0,0,1-7.342-.431,13.019,13.019,0,0,1-5.608-2.729,3.793,3.793,0,0,1-1.133-1.279C483.891,1476.657,483.858,1474.684,483.367,1474.333Z" transform="translate(-286.735 -1177.859)" fill="#bfce28"/>
      <path id="Trazado_619765" data-name="Trazado 619765" d="M1577.885,1378.633a4.176,4.176,0,0,1,1.283-3.969l.451,2.719a9.408,9.408,0,0,1,4.091-5.175,3.546,3.546,0,0,0,.2,4.291,3.471,3.471,0,0,1,2.7-2.834,2.973,2.973,0,0,0-.372,2.822l2.518-1.933a3.083,3.083,0,0,0,.215,3.022,3.422,3.422,0,0,1,2.078-2.271,3.339,3.339,0,0,0,.354,2.473,16.508,16.508,0,0,1,6.462-4.937,4.1,4.1,0,0,0-2.02,5.059,2.092,2.092,0,0,1,2.028-1.533,1.623,1.623,0,0,0,.235,1.76,4.414,4.414,0,0,1,2.824-2.2,3.38,3.38,0,0,0,.285,2.794,11.959,11.959,0,0,1,8.677-6.537,4.205,4.205,0,0,0-3.494,5.929l.87-1.2,1.249,1.691a5.514,5.514,0,0,1,3.526-2.538l-.519,2.4,4.09-2.424-.6,2.632,3.785-1.783-.3,1.669a5.378,5.378,0,0,1,3.435-.834,1.846,1.846,0,0,0-.819,1.877,1.766,1.766,0,0,1,2.448,1.132l-17.537,1.39c-8.551.678-17.115,1.356-25.693,1.319-4.254-.018-4.92-2.738-5.436-6.326C1575.913,1377.549,1576.9,1378.126,1577.885,1378.633Z" transform="translate(-1308.113 -1084.648)" fill="#bfce28"/>
      <path id="Trazado_619766" data-name="Trazado 619766" d="M1389.183,767.358a8.466,8.466,0,0,0,2.01-4.856c.357,2.508.676,5.235-.593,7.427a16.048,16.048,0,0,1-2.188,2.782c-.781.831-.718,1.407-1.527.308C1385.341,770.921,1388.008,768.724,1389.183,767.358Z" transform="translate(-1131.749 -514.146)" fill="#ffc112"/>
      <path id="Trazado_619767" data-name="Trazado 619767" d="M1364.847,654.573a5.2,5.2,0,0,0,.935-3.091c.37,1.512.729,3.16.086,4.577a9.859,9.859,0,0,1-1.17,1.833c-.427.555-.354.9-.915.281C1362.713,656.983,1364.211,655.479,1364.847,654.573Z" transform="translate(-1110.22 -410.261)" fill="#ffc112"/>
      <path id="Trazado_619768" data-name="Trazado 619768" d="M2327.842,547.105a8.469,8.469,0,0,0,.776-4.795,25.269,25.269,0,0,0-1.122-4.79,10.261,10.261,0,0,1-2.367,8.327,19.833,19.833,0,0,0-2.4,2.743,5.116,5.116,0,0,0,.2,5.4c-.376-.541.17-2.14.389-2.673a2.614,2.614,0,0,1,1.087-1.372C2325.8,549.111,2327.023,548.656,2327.842,547.105Z" transform="translate(-2007.26 -303.622)" fill="#ffdb45"/>
      <path id="Trazado_619769" data-name="Trazado 619769" d="M2358.414,446.337a9.19,9.19,0,0,0-.977-3.543,4.883,4.883,0,0,1-.227,3.711,11.357,11.357,0,0,0-.879,1.744,2.649,2.649,0,0,0,.549,2.448c-.172-.195-.036-.906.072-1.128.144-.3.453-.492.657-.745A3.9,3.9,0,0,0,2358.414,446.337Z" transform="translate(-2039.239 -214.984)" fill="#ffdb45"/>
      <path id="Trazado_619770" data-name="Trazado 619770" d="M2367.556,927.52a5.552,5.552,0,0,1,3.605-3.8,4.417,4.417,0,0,0-1.793,5.527c.416.892,1.13,1.619,1.535,2.516a4.223,4.223,0,0,1-.767,4.535c1.268-1.334-.478-3.218-1.327-3.958A4.83,4.83,0,0,1,2367.556,927.52Z" transform="translate(-2049.669 -665.003)" fill="#ffdb45"/>
      <path id="Trazado_619771" data-name="Trazado 619771" d="M653.09,1134.205a4.916,4.916,0,0,0-.073-5.067,14.47,14.47,0,0,0-3.635-3.868,13.469,13.469,0,0,1,1.823,2.683,4.531,4.531,0,0,1,.36,3.16c-.312,1.048-1.113,1.883-1.523,2.9a4.264,4.264,0,0,0,1.605,5.065C650.58,1136.619,651.751,1136.144,653.09,1134.205Z" transform="translate(-442.081 -853.601)" fill="#ffc112"/>
      <path id="Trazado_619772" data-name="Trazado 619772" d="M374.344,554.83c.664-2.657,3.726-4.713,6.439-5.086a7.08,7.08,0,0,1,6.94,3.426,3.2,3.2,0,0,1,.5,1.737,1.566,1.566,0,0,1-.985,1.416c-.766.244-1.531-.294-2.275-.6a4.039,4.039,0,1,0-.754,7.7,4.047,4.047,0,0,1,1.733-.208c1.053.266,1.365,1.747.828,2.692a5.037,5.037,0,0,1-2.59,1.877c-3.057,1.291-6.55,2.577-7.93,5.595a6.2,6.2,0,0,0,3.017,7.934,22.859,22.859,0,0,1-7.568-1.688,8.488,8.488,0,0,1-4.919-5.678,7.407,7.407,0,0,1,3.071-7.206c2.346-1.687,5.1-1.844,7.867-1.523C375.326,561.373,373.457,558.379,374.344,554.83Z" transform="translate(-177.531 -315.006)" fill="#aaa315"/>
      <path id="Trazado_619773" data-name="Trazado 619773" d="M1282,1216.189a7.264,7.264,0,0,1,1.048,5.492c-.288,1.34-.964,2.663-.717,4.011l2.831-4.379a5.685,5.685,0,0,0,1.253-3.332c-.11-1.545-1.449-2.714-2.819-3.437a17.6,17.6,0,0,1-4.035-2.265c-1.132-1.057-1.69-2.981-.663-4.141-.956,1.08-2,3.126-1.108,4.527C1278.748,1214.169,1280.934,1214.588,1282,1216.189Z" transform="translate(-1029.792 -931.144)" fill="#fc5522"/>
      <path id="Trazado_619774" data-name="Trazado 619774" d="M1398.528,1360.167a2.407,2.407,0,0,1,2.238-1.469,2.705,2.705,0,0,0-1.359,2.073c-.15.847-.088,1.719-.221,2.569a2.883,2.883,0,0,1-1.112,2.031c-.55.341-1.938.511-2.158-.339-.182-.708.984-1.463,1.318-1.933A24.284,24.284,0,0,0,1398.528,1360.167Z" transform="translate(-1140.62 -1072.014)" fill="#fc5522"/>
      <path id="Trazado_619775" data-name="Trazado 619775" d="M1445.111,235.785a2.112,2.112,0,0,1,.531-2.214,2.187,2.187,0,0,1,2.967.266,3.143,3.143,0,0,1,4.3,3.853,3.571,3.571,0,0,1-.4,2.967,3.618,3.618,0,0,1-4.251,1.107c-2.531.95-4.961-.5-5.314-2.258A3.714,3.714,0,0,1,1445.111,235.785Z" transform="translate(-1184.598 -18.774)" fill="#d2e1f1"/>
      <path id="Trazado_619776" data-name="Trazado 619776" d="M204.791,628.649a2.681,2.681,0,0,1,.38-1.971,3.139,3.139,0,0,1,3.863-.673,2.461,2.461,0,0,1,2.7.071,2.514,2.514,0,0,1,.544,3.287,2.675,2.675,0,0,1-3.216,4.2,3.643,3.643,0,0,1-6.2,3.083,2.182,2.182,0,0,1-2.221-3.757,3.024,3.024,0,0,1,4.15-4.243Z" transform="translate(-21.209 -386.077)" fill="#dee4f0"/>
      <path id="Trazado_619777" data-name="Trazado 619777" d="M1300.5,1580.537c1.243-.269,2.745-.865,2.823-2.135.065-1.068-1.029-1.889-2.089-2.037a16.173,16.173,0,0,0-3.194.222,3,3,0,0,1-2.836-1.121,2.458,2.458,0,0,1,.924-3.1,5.574,5.574,0,0,1,3.424-.726,16.792,16.792,0,0,0,3.555.026c.6-.1,1.285-.43,1.336-1.035.073-.875-1.13-1.186-2.009-1.156a58.354,58.354,0,0,0-15.158,2.541,3.639,3.639,0,0,0-1.62.829,1.3,1.3,0,0,0-.189,1.669c.521.615,1.606.388,2.172.961a1.4,1.4,0,0,1-.239,1.928,4.062,4.062,0,0,1-2,.782,99.107,99.107,0,0,0-11.982,2.386c3.384,2.29,8.573,1.747,12.482,1.671A76.2,76.2,0,0,0,1300.5,1580.537Z" transform="translate(-1026.012 -1269.255)" fill="#d0d830"/>
      <path id="Trazado_619778" data-name="Trazado 619778" d="M649.956,1615.671a4.987,4.987,0,0,1-1.9.04l-12.547-1.355c-2.038-.22-4.326-.37-5.9.94-1.014.842-1.543,2.157-2.55,3.007a7.566,7.566,0,0,1-4.6,1.3,91.715,91.715,0,0,1-12.758-.241,5.2,5.2,0,0,1-1.835-.4,1.832,1.832,0,0,1-1.09-1.435,1.888,1.888,0,0,1,1.561-1.768,6.129,6.129,0,0,1,2.541.162,35.992,35.992,0,0,0,13.116.106c-.676-.65-1.413-1.544-1.072-2.418s1.463-1.032,2.39-1.066l9.686-.359,6.882-.255,4.734-.176q3.7-.137,7.395-.272c.683-.025,1.558.081,1.743.739s-.574,1.238-1.252,1.219c-1-.028-2.2-1.3-3-.382S651.593,1615.2,649.956,1615.671Z" transform="translate(-402.207 -1308.566)" fill="#d0d830"/>
      <path id="Trazado_619779" data-name="Trazado 619779" d="M1882.506,1560.343c.021.572-2.157,1.116-4.866,1.216s-4.922-.282-4.943-.854,2.158-1.116,4.866-1.216S1882.485,1559.771,1882.506,1560.343Z" transform="translate(-1586.778 -1259.899)" fill="#d0d830"/>
    </g>
  </g>
</svg>
