<svg xmlns="http://www.w3.org/2000/svg" width="169.912" height="169.912" viewBox="0 0 169.912 169.912">
  <g id="Grupo_881575" data-name="Grupo 881575" transform="translate(-1115 -13431)">
    <ellipse id="Elipse_5191" data-name="Elipse 5191" cx="84.956" cy="84.956" rx="84.956" ry="84.956" transform="translate(1115 13431)" fill="#179587"/>
    <g id="conversacion" transform="translate(1136.682 13452.999)">
      <path id="Trazado_622374" data-name="Trazado 622374" d="M182.754,476.577l-2.093-11.51-23.543,7.848,1.308,3.662Z" transform="translate(-118.348 -351.015)" fill="#415a6b"/>
      <path id="Trazado_622375" data-name="Trazado 622375" d="M280.821,314.627l2.354-2.093s8.371,7.324,5.232,9.94C285.53,325.352,280.56,316.981,280.821,314.627Z" transform="translate(-211.706 -235.888)" fill="#344a5e"/>
      <path id="Trazado_622376" data-name="Trazado 622376" d="M275.354,284.929s1.308-.785,1.308-1.308.785-1.57,1.57-2.877a26.216,26.216,0,0,1,3.139-2.877c.523-.523,2.354-3.924,3.139-4.447.523-.523,1.308,0,1.57,0,.262.262,0,1.046-.262,1.831s-2.616,3.662-2.877,4.185.262.785,1.046,1.046c.785,0,4.185.262,5.232-.523a3.518,3.518,0,0,1,2.093-.523c.523-.262,3.662-2.093,4.447,0l-1.569,1.046s-1.831,1.046-2.877,1.569a16.726,16.726,0,0,0-2.616,1.046,3.5,3.5,0,0,0,.262,1.308,1.759,1.759,0,0,1-.785,1.831,3.749,3.749,0,0,1-.523,1.831,8.408,8.408,0,0,0-.785,1.308,2.718,2.718,0,0,1-2.093,1.046c-.785,0-3.139,1.046-4.447,1.308-1.308.523-7.586,1.046-7.586,1.046S270.383,287.022,275.354,284.929Z" transform="translate(-205.192 -206.191)" fill="#ffc987"/>
      <path id="Trazado_622377" data-name="Trazado 622377" d="M246.977,312.533s-2.616,2.093,0,6.8,5.232,3.4,5.232,3.4-8.109,6.8-11.771,8.109a19.148,19.148,0,0,1-5.755,1.308L232.851,319.6a54.867,54.867,0,0,1,6.54-2.354c1.57-.262,1.57-1.57,2.616-1.831C243.315,315.149,246.977,312.533,246.977,312.533Z" transform="translate(-175.507 -235.888)" fill="#415a6b"/>
      <g id="Grupo_880364" data-name="Grupo 880364" transform="translate(48.973 55.98)">
        <path id="Trazado_622378" data-name="Trazado 622378" d="M208.135,270.9l1.57,7.848s1.308,12.033,2.877,13.864c.785,1.046,1.046,3.4,1.308,5.232h3.4a18.244,18.244,0,0,0-1.57-4.447,36.862,36.862,0,0,1-3.4-11.771c-.262-2.877-1.831-28.774-2.616-32.437s-1.831-5.232-2.354-8.371-.785-9.679-2.093-10.987c-1.308-1.046-6.54-1.569-6.54-1.569s1.831,7.324,3.139,9.94C202.9,240.822,207.874,265.935,208.135,270.9Z" transform="translate(-198.718 -228.266)" fill="#222b5a"/>
        <path id="Trazado_622379" data-name="Trazado 622379" d="M213.652,278.4c0,.262,0,.262.262.523C213.652,278.923,213.652,278.662,213.652,278.4Z" transform="translate(-209.99 -266.105)" fill="#222b5a"/>
      </g>
      <path id="Trazado_622380" data-name="Trazado 622380" d="M145.461,133.333l3.662,4.185a18.14,18.14,0,0,0,.785,4.185c.262,1.046-1.57,2.354-1.831,2.877s1.046,3.924,1.046,5.232-1.57,1.308-2.354,1.308c0,0,0,2.616-1.308,2.093,0,0,1.046,1.046,0,1.831s.262,4.185-2.877,3.924-6.016-.262-6.016-.262l.262,11.248-11.51-3.4-3.4-13.341,2.354-3.924c.523-1.308,6.278-12.556,6.278-12.556Z" transform="translate(-91.779 -100.634)" fill="#ffc987"/>
      <path id="Trazado_622381" data-name="Trazado 622381" d="M167.161,209.428a24.691,24.691,0,0,0,3.662.262c-.523-.262-6.278-4.447-8.371-9.155,0,0,1.046,7.324,4.709,12.033Z" transform="translate(-122.373 -151.355)" fill="#f7b64c"/>
      <path id="Trazado_622382" data-name="Trazado 622382" d="M147.673,305.313h0c-1.569,3.139-6.278,7.063-22.235,5.755l-10.987-56.5,8.632-3.4,2.616,1.046a10.151,10.151,0,0,1,2.093,2.354,2.626,2.626,0,0,0,1.57,1.308s1.57-3.662,1.57-5.493c0-1.57,5.755,1.57,5.755,1.57s.523,1.046,1.308,2.877h0a5.721,5.721,0,0,1,.785,2.354c0,.262,0,.262.262.523a16.618,16.618,0,0,1,.523,1.831v1.046a.961.961,0,0,0,.262.785v1.046a.961.961,0,0,0,.262.785v.523h0v1.046c.262.785.262,1.569.523,2.354v.262c.262,1.308.523,2.877.785,4.447v.523c.262.785.262,1.57.523,2.093v1.57a.961.961,0,0,0,.262.785v.523a.961.961,0,0,0,.262.785v.523a.961.961,0,0,0,.262.785v.262a.961.961,0,0,0,.262.785h0a11.317,11.317,0,0,0,.262,1.308v1.308a2.358,2.358,0,0,0,.262,1.308v3.14l1.57,7.848C146.1,295.112,146.627,300.867,147.673,305.313Z" transform="translate(-86.144 -188.646)" fill="#ced6e0"/>
      <path id="Trazado_622383" data-name="Trazado 622383" d="M181.751,341.142c.523-1.308,1.308-2.616,1.308-3.662.262-1.831-.785-7.324-2.354-11.248a133.31,133.31,0,0,1-4.97-17c-.523-3.139-.523-7.063-1.57-10.987a36.063,36.063,0,0,1-1.046-8.109c0,1.57.262,6.54.785,8.109s1.569,10.987,1.569,10.987c.523,3.924,3.662,13.6,5.232,17.265s2.093,9.679,2.093,10.987a16.337,16.337,0,0,1-1.046,3.662Z" transform="translate(-130.423 -218.981)" fill="#adb3ba"/>
      <path id="Trazado_622384" data-name="Trazado 622384" d="M58.818,299.458a68.709,68.709,0,0,0,1.57-12.818c0-5.755-2.877-12.818-2.877-12.818L41.815,230.4s-9.155,3.4-13.6,5.232-5.493,4.185-5.493,4.185l6.016,59.642Z" transform="translate(-16.907 -173.896)" fill="#222b5a"/>
      <path id="Trazado_622385" data-name="Trazado 622385" d="M97.263,216.533s-4.709,2.877-5.493,4.447a12.641,12.641,0,0,0-.785,4.447l3.139,1.831-2.354,2.093s20.142,37.407,20.665,46.562c0,0-2.616-15.433-4.447-23.543S97.263,219.411,97.263,216.533Z" transform="translate(-68.432 -163.43)" fill="#363e68"/>
      <path id="Trazado_622386" data-name="Trazado 622386" d="M156.294,426.667h7.848a13.605,13.605,0,0,1,1.308.785c.523.262,2.616,1.569,3.4,1.569a2.865,2.865,0,0,1,1.046.523l2.093.262s1.046,3.4-4.447,1.831l-3.139-1.308a12.072,12.072,0,0,1,2.616,1.831,19.526,19.526,0,0,0,3.139,1.831c.262.262,1.57.785,1.831,1.046s2.616,0,2.877,1.308c.262,1.046-1.308,1.046-1.308,1.046H170.42s-.523,1.831-1.308,1.57l-1.046-.262a2.042,2.042,0,0,1,0,1.308,1.5,1.5,0,0,1-1.831.523l-.785-.262s.262,1.57-1.831,1.046c-2.093-.262-2.093-.785-2.877-1.046a2.261,2.261,0,0,1-1.57-.785c-.785-.523-4.185-2.616-4.185-2.616S155.509,427.975,156.294,426.667Z" transform="translate(-116.738 -322.032)" fill="#ffc987"/>
      <path id="Trazado_622387" data-name="Trazado 622387" d="M204.644,286c-.262-.523-4.709-13.6-4.97-18.573-.523-5.232-3.662-17.526-6.54-23.02-1.831-3.4-1.046-5.232-.262-6.54.523,0,1.308.262,2.093.262l1.308,2.093h1.308s3.662,12.033,5.232,20.927C204.121,269.78,204.121,282.859,204.644,286Z" transform="translate(-144.684 -179.532)" fill="#363e68"/>
      <path id="Trazado_622388" data-name="Trazado 622388" d="M287.647,398.071s-6.278-.523-7.586-1.831-1.308-8.371.262-9.155S287.647,398.071,287.647,398.071Z" transform="translate(-210.422 -292.128)" fill="#adb3ba"/>
      <path id="Trazado_622389" data-name="Trazado 622389" d="M234.782,371.662s-3.662-1.046-2.354-3.662l4.447.785a22.311,22.311,0,0,1,5.755,2.093c2.093,1.308,0,9.679,0,9.679s-.523.523-2.354.523a11.762,11.762,0,0,1-4.709-.785c-1.308-.523-4.185-1.308-5.493-2.616-1.308-1.046-5.755-5.755-5.755-5.755s.523-1.308,3.139,0a16.514,16.514,0,0,1,2.354,1.046l2.616.523h3.662a4.888,4.888,0,0,0,1.046-.785A12.891,12.891,0,0,1,234.782,371.662Z" transform="translate(-169.068 -277.752)" fill="#ffc987"/>
      <path id="Trazado_622390" data-name="Trazado 622390" d="M286.668,393.6s2.093,9.417-2.616,7.586l14.387,9.155,3.662-10.987Z" transform="translate(-214.152 -297.074)" fill="#e8e8e8"/>
      <path id="Trazado_622391" data-name="Trazado 622391" d="M241.423,349.356s-.262-.523-1.57-.785a42.363,42.363,0,0,1-4.447-1.57,2.773,2.773,0,0,1-1.57-1.046c-.785-.785-4.185-4.709-4.185-4.709s.785-.785,1.308-.262l-1.308-1.046a2.819,2.819,0,0,1,3.662.523s2.354.785,3.139,2.093l2.354,1.046,4.447.523,1.831-.785s-1.831-.785-1.831-2.354,1.831-1.308,2.877-.785c1.046.785.785,1.046,2.093,1.308a4.027,4.027,0,0,1,2.616,1.308l.262.523s-2.354,6.278-5.232,6.278C243.255,349.356,241.423,349.356,241.423,349.356Z" transform="translate(-173.093 -256.231)" fill="#ffe2b8"/>
      <g id="Grupo_880365" data-name="Grupo 880365" transform="translate(57.867 84.493)">
        <path id="Trazado_622392" data-name="Trazado 622392" d="M234.985,344.533l.262.262.785.785,1.046,1.046,1.308,1.308c.523.523,1.046.785,1.308,1.308l.262.262.262.262c.262,0,.523.262.785.262.523.262.785.523,1.046.523l.262.262h0a.256.256,0,0,1-.262-.262.914.914,0,0,0-.523-.262c-.262,0-.262-.262-.523-.262s-.523-.262-.785-.262a3172.815,3172.815,0,0,0-.523-.523,6.94,6.94,0,0,1-1.57-1.308c-.523-.523-1.046-.785-1.308-1.308-.262-.262-.262-.523-.523-.523-.262-.262-.262-.523-.523-.523l-.785-.785C235.247,344.795,234.985,344.533,234.985,344.533Z" transform="translate(-234.985 -344.533)" fill="#f7b64c"/>
        <path id="Trazado_622393" data-name="Trazado 622393" d="M241.385,344.533l.262.262a3.61,3.61,0,0,1,.785,1.046c.262.262.523.785,1.046,1.308a6.94,6.94,0,0,1,1.57,1.308c.262.262.523.523.785.523.262.262.523.262.785.523a3.717,3.717,0,0,0,1.57.523,1.977,1.977,0,0,0,1.046.262.913.913,0,0,1,.523.262h-.523c-.261,0-.785-.262-1.046-.262s-.523-.262-.785-.262-.523-.262-.785-.262c-.523-.262-1.046-.785-1.57-1.046-.262-.262-.523-.523-.785-.523-.262-.262-.523-.523-.785-.523-.262-.262-.523-.523-.523-.785-.262-.262-.262-.523-.523-.523-.262-.523-.523-.785-.523-1.046Z" transform="translate(-239.815 -344.533)" fill="#f7b64c"/>
      </g>
      <path id="Trazado_622394" data-name="Trazado 622394" d="M383.579,178.918l-7.324-.785s-2.877,6.278-2.877,7.586a3.261,3.261,0,0,1,0,2.354c-.523,1.046-2.877,3.139-3.139,4.185a1.977,1.977,0,0,0,.785,2.093l1.046.523s-1.57,2.354,0,2.877c0,0-1.046.262-.523,1.57s-2.093,4.447,2.093,5.232,5.755,3.139,5.493,4.97-4.97,8.109-4.97,8.109c-8.371,11.248,5.493,5.232,8.109,1.831l13.341-9.94-1.831-20.142Z" transform="translate(-279.149 -134.448)" fill="#ffc987"/>
      <path id="Trazado_622395" data-name="Trazado 622395" d="M352.661,317.2,349,320.6l2.616-7.848s-4.709,3.924-6.8,7.586-6.8,19.619-5.755,27.2l1.046,7.848,20.4-38.976,2.616-6.016Z" transform="translate(-255.556 -234.278)" fill="#ced6e0"/>
      <path id="Trazado_622396" data-name="Trazado 622396" d="M350.638,316.8s-4.97,7.063-5.755,10.725-5.755,14.91-6.016,20.927l-.262,6.278s-1.308-14.91,1.57-22.758a68.41,68.41,0,0,1,8.109-14.91Z" transform="translate(-255.103 -239.108)" fill="#727997"/>
      <path id="Trazado_622397" data-name="Trazado 622397" d="M360.684,346.958a11.438,11.438,0,0,0-1.57-2.616c-1.308-1.57-.262-5.493-.523-7.848s5.232-11.51,7.063-15.7c1.57-4.447,3.924-18.311,1.57-22.758a9.1,9.1,0,0,0-7.063-4.709s-11.771,9.417-17.788,14.387-15.172,16.742-16.742,26.159a69.722,69.722,0,0,0-1.046,13.341l36.1-.262Z" transform="translate(-244.745 -221.396)" fill="#727997"/>
      <path id="Trazado_622398" data-name="Trazado 622398" d="M373.949,291.2l4.185,3.4a84.089,84.089,0,0,0-14.387,9.417c-6.54,5.493-14.126,14.126-15.7,17.265,0,0,5.493-11.771,14.649-19.881C371.595,293.293,373.949,291.2,373.949,291.2Z" transform="translate(-262.457 -219.786)" fill="#727997"/>
      <path id="Trazado_622399" data-name="Trazado 622399" d="M388.585,269.221h0c2.093.785,3.4,1.831,3.924,2.877,5.232-2.877,7.063-8.632,7.324-8.632C394.078,270.267,388.585,269.221,388.585,269.221Z" transform="translate(-293.05 -198.854)" fill="#f7b64c"/>
      <path id="Trazado_622400" data-name="Trazado 622400" d="M410.419,284.2l1.831,3.139a61.675,61.675,0,0,1-8.632,5.755l-1.308-.785s-1.308,2.877-7.324,5.232c2.616-4.447,10.987-11.51,14.649-13.341A.49.49,0,0,1,410.419,284.2Z" transform="translate(-297.881 -214.352)" fill="#f3f3f3"/>
      <path id="Trazado_622401" data-name="Trazado 622401" d="M393.919,165.48a80.87,80.87,0,0,0,3.4,8.109c2.354,4.97,3.924,7.848,7.063,7.324s3.4-2.354,4.709-.523-.523,9.679,1.831,13.6,9.417,10.725,8.371,19.1l-1.308,8.371a16.571,16.571,0,0,0,4.97-10.2c.523-6.278-1.046-9.417-1.569-18.573s-.262-20.665-3.924-25.374S400.2,157.632,393.919,165.48Z" transform="translate(-297.076 -121.795)" fill="#636363"/>
      <ellipse id="Elipse_5363" data-name="Elipse 5363" cx="2.616" cy="4.186" rx="2.616" ry="4.186" transform="matrix(-0.931, -0.364, 0.364, -0.931, 110.595, 66.047)" fill="#ffc987"/>
      <path id="Trazado_622402" data-name="Trazado 622402" d="M302.6,340.023s2.877-12.556,12.294-12.556,9.417,8.109,8.894,12.294a20.769,20.769,0,0,1-4.709,9.94c-2.093,2.093-16.48,16.742-16.48,16.742s-3.139,3.662-6.278,2.354-11.771-10.464-12.556-12.294a18.92,18.92,0,0,0-4.447-5.755c-1.569-1.046-10.2-10.464-10.2-10.464s8.894-2.354,10.725-4.709,1.046-3.139,1.046-3.139,3.924,4.709,4.97,6.278,4.97,4.97,6.278,7.324,2.354,4.709,3.139,5.755a5.86,5.86,0,0,0,2.616,1.831c.262,0,.262-1.831.523-2.354C298.416,350.748,302.6,340.023,302.6,340.023Z" transform="translate(-202.881 -247.159)" fill="#fff"/>
      <path id="Trazado_622403" data-name="Trazado 622403" d="M393.919,178.133a20.853,20.853,0,0,0,2.093,8.371c2.093,4.185,2.877,5.493,2.877,5.493s-3.662-9.417-3.4-11.51" transform="translate(-297.076 -134.448)" fill="#636363"/>
      <path id="Trazado_622404" data-name="Trazado 622404" d="M382.848,297.6l-7.063,5.493s2.354,4.185,1.831,6.016l-.785,1.831s6.54-10.2,6.8-11.248A2.614,2.614,0,0,0,382.848,297.6Z" transform="translate(-283.389 -224.617)" fill="#f3f3f3"/>
      <path id="Trazado_622405" data-name="Trazado 622405" d="M128.456,118.278s1.57,1.046,2.877-1.57,1.308-4.97,3.4-5.493,3.662,2.877,3.924,5.755h1.57s-.262-3.4,1.831-4.97c1.831-1.57,7.586-3.4,8.632-4.447a5.168,5.168,0,0,1,3.139-1.046,4.359,4.359,0,0,0,1.57-6.278c-2.616-4.185-11.51-11.248-20.142-6.278C122.178,101.275,130.811,111.477,128.456,118.278Z" transform="translate(-96.225 -69.622)" fill="#636363"/>
      <g id="Grupo_880366" data-name="Grupo 880366" transform="translate(28.506 51.533)">
        <path id="Trazado_622406" data-name="Trazado 622406" d="M117.417,210.133s6.54,10.2,8.894,12.033a5.786,5.786,0,0,0-3.139.523c-1.831.785-7.063,2.616-7.063,2.616s-.262-8.894-.785-10.725A4.03,4.03,0,0,1,117.417,210.133Z" transform="translate(-115.261 -210.133)" fill="#f3f3f3"/>
        <path id="Trazado_622407" data-name="Trazado 622407" d="M177.909,238.108a4.417,4.417,0,0,1-.523-1.308h0C177.647,237.323,177.909,237.585,177.909,238.108Z" transform="translate(-162.151 -230.26)" fill="#f3f3f3"/>
        <path id="Trazado_622408" data-name="Trazado 622408" d="M180.182,240.724c.262.523,1.57,2.093-3.4,6.54-1.046,1.046-3.139.785-3.662,2.877a30.864,30.864,0,0,1,.262-4.185c.262-1.308,1.831-4.447,1.046-7.586a2,2,0,0,0-.523-1.308h0l2.877-.262a3.783,3.783,0,0,1,1.831.523l3.4,3.4C182.274,240.462,180.182,240.2,180.182,240.724Z" transform="translate(-158.93 -230.26)" fill="#f3f3f3"/>
      </g>
      <path id="Trazado_622409" data-name="Trazado 622409" d="M3.457,277.015S2.673,266.29,7.643,265.5c5.232-.785,8.632,13.6,9.417,17.788.523,4.185.523,14.649,0,15.172s1.308,2.616,1.57,3.4,3.4-.262,4.97.523,3.139,2.354,3.924,2.354H40.079s-2.354,12.556-1.57,16.742c0,0-14.126-2.616-16.742-3.662s-12.818-4.709-15.7-6.016S.318,308.144.318,305.528,3.457,277.015,3.457,277.015Z" transform="translate(0 -200.369)" fill="#363e68"/>
      <path id="Trazado_622410" data-name="Trazado 622410" d="M320.319,13.865c0,7.848,9.155,13.864,20.665,13.864h.262l14.126,7.586V23.805c3.662-2.616,6.016-6.016,6.016-9.94C361.388,6.017,352.233,0,340.723,0,329.736,0,320.319,6.279,320.319,13.865Z" transform="translate(-241.525 0)" fill="#f1b62b"/>
      <g id="Grupo_880367" data-name="Grupo 880367" transform="translate(85.333 10.464)">
        <circle id="Elipse_5364" data-name="Elipse 5364" cx="3.401" cy="3.401" r="3.401" transform="translate(21.712)" fill="#fff"/>
        <circle id="Elipse_5365" data-name="Elipse 5365" cx="3.401" cy="3.401" r="3.401" transform="translate(10.725)" fill="#fff"/>
        <circle id="Elipse_5366" data-name="Elipse 5366" cx="3.401" cy="3.401" r="3.401" fill="#fff"/>
      </g>
      <path id="Trazado_622411" data-name="Trazado 622411" d="M283.521,57.6c0,7.848-9.155,13.864-20.665,13.864h-.262l-14.126,7.586V67.538c-3.662-2.616-6.016-6.016-6.016-9.94,0-7.848,9.155-13.864,20.665-13.864C274.365,43.734,283.521,50.012,283.521,57.6Z" transform="translate(-182.754 -33.008)" fill="#f3705a"/>
      <g id="Grupo_880368" data-name="Grupo 880368" transform="translate(65.976 21.189)">
        <circle id="Elipse_5367" data-name="Elipse 5367" cx="3.401" cy="3.401" r="3.401" fill="#fff"/>
        <circle id="Elipse_5368" data-name="Elipse 5368" cx="3.401" cy="3.401" r="3.401" transform="translate(10.725)" fill="#fff"/>
        <circle id="Elipse_5369" data-name="Elipse 5369" cx="3.401" cy="3.401" r="3.401" transform="translate(21.712)" fill="#fff"/>
      </g>
    </g>
  </g>
</svg>
