<svg xmlns="http://www.w3.org/2000/svg" width="169.912" height="169.912" viewBox="0 0 169.912 169.912">
  <g id="Grupo_881574" data-name="Grupo 881574" transform="translate(-779 -13431)">
    <ellipse id="Elipse_5191" data-name="Elipse 5191" cx="84.956" cy="84.956" rx="84.956" ry="84.956" transform="translate(779 13431)" fill="#179587"/>
    <g id="campana-digital" transform="translate(795 13444.5)">
      <path id="Trazado_622338" data-name="Trazado 622338" d="M15.144,159.831H5.979A64.841,64.841,0,0,0,0,187.108q0,1.735.091,3.448H15.144Z" transform="translate(0 -114.062)" fill="#3b467e"/>
      <path id="Trazado_622339" data-name="Trazado 622339" d="M399.592,338.75h-5.711v21.486h5.711a2.665,2.665,0,0,0,2.657-2.657V341.407A2.665,2.665,0,0,0,399.592,338.75Z" transform="translate(-289.234 -245.446)" fill="#222b5a"/>
      <path id="Trazado_622340" data-name="Trazado 622340" d="M281.707,298.741v23.484l21.981,13.115V285.626Z" transform="translate(-206.863 -206.436)" fill="#eef6ff"/>
      <path id="Trazado_622341" data-name="Trazado 622341" d="M371.794,324.255a1.332,1.332,0,0,1-1.328,1.328h-5.7a1.332,1.332,0,0,1-1.328-1.328v-58.12a1.332,1.332,0,0,1,1.328-1.328h5.7a1.332,1.332,0,0,1,1.328,1.328Z" transform="translate(-266.882 -191.148)" fill="#ee4e5d"/>
      <path id="Trazado_622342" data-name="Trazado 622342" d="M368,324.255v-58.12a1.332,1.332,0,0,1,1.328-1.328h-4.563a1.332,1.332,0,0,0-1.328,1.328v58.12a1.332,1.332,0,0,0,1.328,1.328h4.563A1.333,1.333,0,0,1,368,324.255Z" transform="translate(-266.881 -191.148)" fill="#b7092b"/>
      <path id="Trazado_622343" data-name="Trazado 622343" d="M170.224,342.151h-6.159a1.332,1.332,0,0,0-1.328,1.328V360.5a1.332,1.332,0,0,0,1.328,1.328h6.159Z" transform="translate(-119.501 -247.943)" fill="#f3f9ff"/>
      <path id="Trazado_622344" data-name="Trazado 622344" d="M166.592,360.5V343.48a1.332,1.332,0,0,1,1.328-1.328h-3.855a1.332,1.332,0,0,0-1.328,1.328V360.5a1.332,1.332,0,0,0,1.328,1.328h3.855A1.332,1.332,0,0,1,166.592,360.5Z" transform="translate(-119.501 -247.944)" fill="#dee4f0"/>
      <path id="Trazado_622345" data-name="Trazado 622345" d="M214.57,354.575a1.332,1.332,0,0,1-1.328,1.328h-22a1.332,1.332,0,0,1-1.328-1.328v-23.74a1.332,1.332,0,0,1,1.328-1.328h22a1.332,1.332,0,0,1,1.328,1.328Z" transform="translate(-139.46 -238.658)" fill="#ee4e5d"/>
      <path id="Trazado_622346" data-name="Trazado 622346" d="M195.19,354.575v-23.74a1.332,1.332,0,0,1,1.328-1.328h-5.272a1.332,1.332,0,0,0-1.328,1.328v23.74a1.332,1.332,0,0,0,1.328,1.328h5.272A1.332,1.332,0,0,1,195.19,354.575Z" transform="translate(-139.46 -238.658)" fill="#b7092b"/>
      <path id="Trazado_622347" data-name="Trazado 622347" d="M376.984,81.469a1.332,1.332,0,0,0-1.328-1.328H339.4a1.332,1.332,0,0,0-1.328,1.328V106.7a1.332,1.332,0,0,0,1.328,1.328h10.943a3,3,0,0,1,2.124,1.064l4.264,5.7a.94.94,0,0,0,1.591,0l4.264-5.7a3,3,0,0,1,2.124-1.064h10.943a1.332,1.332,0,0,0,1.328-1.328V81.469Z" transform="translate(-248.255 -55.545)" fill="#179587"/>
      <path id="Trazado_622348" data-name="Trazado 622348" d="M343.347,106.7V81.469a1.332,1.332,0,0,1,1.328-1.328H339.4a1.332,1.332,0,0,0-1.328,1.328V106.7a1.332,1.332,0,0,0,1.328,1.328h5.272A1.332,1.332,0,0,1,343.347,106.7Z" transform="translate(-248.255 -55.545)" fill="#179587"/>
      <g id="Grupo_880361" data-name="Grupo 880361" transform="translate(95.9 30.468)">
        <path id="Trazado_622349" data-name="Trazado 622349" d="M385.716,106.225H362.952a1.993,1.993,0,1,1,0-3.985h22.765a1.993,1.993,0,1,1,0,3.985Z" transform="translate(-360.959 -102.24)" fill="#fff"/>
        <path id="Trazado_622350" data-name="Trazado 622350" d="M385.716,129.477H362.952a1.993,1.993,0,1,1,0-3.985h22.765a1.993,1.993,0,1,1,0,3.985Z" transform="translate(-360.959 -119.314)" fill="#fff"/>
        <path id="Trazado_622351" data-name="Trazado 622351" d="M374.379,152.728H362.952a1.993,1.993,0,1,1,0-3.985h11.428a1.993,1.993,0,1,1,0,3.985Z" transform="translate(-360.959 -136.388)" fill="#fff"/>
      </g>
      <circle id="Elipse_5361" data-name="Elipse 5361" cx="14.773" cy="14.773" r="14.773" transform="translate(56.432 4.501)" fill="#ee4e5d"/>
      <path id="Trazado_622352" data-name="Trazado 622352" d="M217.673,19.273A14.775,14.775,0,0,1,229.81,4.739a14.773,14.773,0,1,0,0,29.068A14.774,14.774,0,0,1,217.673,19.273Z" transform="translate(-155.97 0)" fill="#b7092b"/>
      <path id="Trazado_622353" data-name="Trazado 622353" d="M243.255,49.308a.891.891,0,0,1-.635-.265l-6.979-7.037a4.529,4.529,0,0,1,0-6.361,4.435,4.435,0,0,1,6.309,0l1.331,1.342,1.332-1.342a4.435,4.435,0,0,1,6.309,0,4.525,4.525,0,0,1,0,6.361l-7.033,7.039A.888.888,0,0,1,243.255,49.308Z" transform="translate(-172.077 -21.903)" fill="#fff"/>
      <path id="Trazado_622354" data-name="Trazado 622354" d="M56.364,333.475a.752.752,0,0,1-.536-.224l-5.891-5.94a3.823,3.823,0,0,1,0-5.37,3.744,3.744,0,0,1,5.325,0l1.123,1.133,1.124-1.133a3.744,3.744,0,0,1,5.325,0,3.82,3.82,0,0,1,0,5.37L56.9,333.254A.748.748,0,0,1,56.364,333.475Z" transform="translate(-35.86 -232.287)" fill="#ee4e5d"/>
      <path id="Trazado_622355" data-name="Trazado 622355" d="M52.907,326.071a3.815,3.815,0,0,1-.123-5.233c-.061,0-.122-.009-.184-.009a3.723,3.723,0,0,0-2.662,1.112,3.823,3.823,0,0,0,0,5.37l5.891,5.94a.754.754,0,0,0,1.07,0l1.571-1.573Z" transform="translate(-35.861 -232.286)" fill="#b7092b"/>
      <path id="Trazado_622356" data-name="Trazado 622356" d="M135.276,115.02v-3.667a3.724,3.724,0,0,1,3.72-3.72h.86a.266.266,0,1,0,0-.531,3.724,3.724,0,0,1-3.72-3.72V99.715a3.724,3.724,0,0,1,3.72-3.72.266.266,0,1,0,0-.531,3.724,3.724,0,0,1-3.72-3.72V88.077a3.724,3.724,0,0,1,3.72-3.72.266.266,0,1,0,0-.531h-1.642a3.724,3.724,0,0,1-3.72-3.72V76.439a3.724,3.724,0,0,1,3.05-3.656V58.505a4,4,0,0,0-3.985-3.985h-6.2a4.709,4.709,0,0,0-4.523,3.949l-2.5,18.321c-.3,2.163-1.858,3.934-3.478,3.947v34.539h18.427C135.284,115.191,135.276,115.107,135.276,115.02Z" transform="translate(-85.814 -36.731)" fill="#ffe2b8" stroke="#707070" stroke-width="0.1"/>
      <path id="Trazado_622357" data-name="Trazado 622357" d="M133.56,54.52h-6.2a4.709,4.709,0,0,0-4.523,3.949l-2.5,18.321c-.3,2.163-1.858,3.934-3.478,3.947V86.01h5.253c1.627,0,3.2-1.777,3.5-3.949l2.5-18.321a4.709,4.709,0,0,1,4.523-3.949h4.912V58.505A4,4,0,0,0,133.56,54.52Z" transform="translate(-85.815 -36.731)" fill="#ffc987"/>
      <path id="Trazado_622358" data-name="Trazado 622358" d="M189.157,265.071a4,4,0,0,1-3.985-3.985v-3.667a4,4,0,0,1,3.985-3.985H210.77a4,4,0,0,1,3.985,3.985v3.667a4,4,0,0,1-3.985,3.985Z" transform="translate(-135.975 -182.796)" fill="#ffe2b8"/>
      <path id="Trazado_622359" data-name="Trazado 622359" d="M57.328,179.308A1.332,1.332,0,0,1,56,177.98V137.158a1.332,1.332,0,0,1,1.328-1.328H71.107a1.332,1.332,0,0,1,1.328,1.328V177.98a1.332,1.332,0,0,1-1.328,1.328H57.328Z" transform="translate(-41.122 -96.438)" fill="#222b5a"/>
      <path id="Trazado_622360" data-name="Trazado 622360" d="M61.272,177.98V137.158A1.332,1.332,0,0,1,62.6,135.83H57.328A1.332,1.332,0,0,0,56,137.158V177.98a1.332,1.332,0,0,0,1.328,1.328H62.6A1.332,1.332,0,0,1,61.272,177.98Z" transform="translate(-41.122 -96.438)" fill="#0d1e57"/>
      <circle id="Elipse_5362" data-name="Elipse 5362" cx="3.556" cy="3.556" r="3.556" transform="translate(19.539 42.342)" fill="#aec1ed"/>
      <g id="Grupo_880362" data-name="Grupo 880362" transform="translate(48.415 35.723)">
        <path id="Trazado_622361" data-name="Trazado 622361" d="M186.215,133.659a4,4,0,0,1-3.985-3.985v-3.668a4,4,0,0,1,3.985-3.985H208.61a4,4,0,0,1,3.985,3.985v3.668a4,4,0,0,1-3.985,3.985Z" transform="translate(-182.23 -122.021)" fill="#ffe2b8"/>
        <path id="Trazado_622362" data-name="Trazado 622362" d="M192.393,177.464a4,4,0,0,1-3.985-3.985v-3.668a4,4,0,0,1,3.985-3.985h21.723a4,4,0,0,1,3.985,3.985v3.668a4,4,0,0,1-3.985,3.985Z" transform="translate(-186.767 -154.188)" fill="#ffe2b8"/>
        <path id="Trazado_622363" data-name="Trazado 622363" d="M192.393,221.269a4,4,0,0,1-3.985-3.985v-3.667a4,4,0,0,1,3.985-3.985h21.723a4,4,0,0,1,3.985,3.985v3.667a4,4,0,0,1-3.985,3.985Z" transform="translate(-186.767 -186.355)" fill="#ffe2b8"/>
      </g>
      <g id="Grupo_880363" data-name="Grupo 880363" transform="translate(48.415 35.723)">
        <path id="Trazado_622364" data-name="Trazado 622364" d="M193.26,260.969a4,4,0,0,1-3.985-3.985v-3.55h-.117a4,4,0,0,0-3.985,3.985v3.667a4,4,0,0,0,3.985,3.985H210.77a4,4,0,0,0,3.985-3.985v-.117h-21.5Z" transform="translate(-184.39 -218.52)" fill="#ffc987" stroke="#707070" stroke-width="0.1"/>
        <path id="Trazado_622365" data-name="Trazado 622365" d="M190.318,129.558a4,4,0,0,1-3.985-3.985v-3.55h-.117a4,4,0,0,0-3.985,3.985v3.668a4,4,0,0,0,3.985,3.985H208.61a4,4,0,0,0,3.985-3.985v-.117H190.318Z" transform="translate(-182.23 -122.022)" fill="#ffc987" stroke="#707070" stroke-width="0.1"/>
        <path id="Trazado_622366" data-name="Trazado 622366" d="M196.5,173.362a4,4,0,0,1-3.985-3.985v-3.55h-.117a4,4,0,0,0-3.985,3.985v3.668a4,4,0,0,0,3.985,3.985h21.723a4,4,0,0,0,3.985-3.985v-.117Z" transform="translate(-186.767 -154.188)" fill="#ffc987" stroke="#707070" stroke-width="0.1"/>
        <path id="Trazado_622367" data-name="Trazado 622367" d="M196.5,217.166a4,4,0,0,1-3.985-3.985v-3.55h-.117a4,4,0,0,0-3.985,3.985v3.667a4,4,0,0,0,3.985,3.985h21.723a4,4,0,0,0,3.985-3.985v-.117H196.5Z" transform="translate(-186.767 -186.355)" fill="#ffc987" stroke="#707070" stroke-width="0.1"/>
      </g>
      <path id="Trazado_622368" data-name="Trazado 622368" d="M54.834,389.646H31.067a.531.531,0,0,0-.528.531v15.25a.531.531,0,0,0,.528.531H54.834a.531.531,0,0,0,.528-.531v-15.25A.531.531,0,0,0,54.834,389.646Z" transform="translate(-22.425 -282.82)" fill="#f1b62b"/>
      <path id="Trazado_622369" data-name="Trazado 622369" d="M35.812,405.738V394.123l-5.144-3.976a.533.533,0,0,1,.08-.077.528.528,0,0,0-.207.418v15.25a.531.531,0,0,0,.528.531H36.34A.53.53,0,0,1,35.812,405.738Z" transform="translate(-22.426 -283.131)" fill="#ef9614"/>
      <path id="Trazado_622370" data-name="Trazado 622370" d="M55.186,389.646H31.419a.524.524,0,0,0-.4.19l11.866,9.171a.723.723,0,0,0,.837,0l11.866-9.171A.523.523,0,0,0,55.186,389.646Z" transform="translate(-22.777 -282.82)" fill="#e4a40d"/>
      <path id="Trazado_622371" data-name="Trazado 622371" d="M442.862,232.153H419.1a.531.531,0,0,0-.528.531v15.25a.531.531,0,0,0,.528.531h23.767a.531.531,0,0,0,.528-.531v-15.25A.531.531,0,0,0,442.862,232.153Z" transform="translate(-307.362 -167.17)" fill="#f1b62b"/>
      <path id="Trazado_622372" data-name="Trazado 622372" d="M423.839,248.246V236.631l-5.144-3.976a.531.531,0,0,1,.08-.077.528.528,0,0,0-.207.418v15.25a.531.531,0,0,0,.528.531h5.272A.531.531,0,0,1,423.839,248.246Z" transform="translate(-307.362 -167.482)" fill="#ef9614"/>
      <path id="Trazado_622373" data-name="Trazado 622373" d="M443.214,232.153H419.447a.524.524,0,0,0-.4.19l11.866,9.171a.723.723,0,0,0,.837,0l11.866-9.171A.524.524,0,0,0,443.214,232.153Z" transform="translate(-307.713 -167.17)" fill="#dca115"/>
    </g>
  </g>
</svg>
